<svg width="32" height="24" viewBox="0 0 32 24" fill="none" xmlns="http://www.w3.org/2000/svg">
<g clip-path="url(#clip0_2_2019)">
<path d="M2.92296 3.80861C4.29012 2.82178 6.02419 2.35791 7.7009 2.54596C9.59231 2.72143 11.3729 3.74055 12.5271 5.24317C13.1836 10.8816 23.1997 9.32774 25.8067 5.42941C28.3158 7.10581 29.8203 10.1577 29.4951 13.1774C25.2252 15.8822 26.0292 15.9426 25.9246 19.7628C25.3667 20.8249 24.3197 21.6308 23.1223 21.7972C22.0258 21.9836 20.8931 21.6128 20.0462 20.9072C18.8174 23.2211 15.9593 24.4999 13.42 23.8158C11.1939 23.2802 9.40626 21.3477 9.02684 19.0876C8.63642 17.3077 4.34211 14.9798 1.29637 13.5534C0.358732 12.2191 -0.115587 10.5643 0.0240433 8.93623C0.167239 6.90882 1.2659 4.97987 2.92296 3.80861Z" fill="#7F1472"/>
<path d="M15.7516 0.909115C17.4068 -0.0598005 19.4808 -0.265764 21.2972 0.346752C23.5645 1.07746 25.3501 3.09054 25.8065 5.42955C26.1468 7.02895 25.8693 8.73932 25.0624 10.1578C24.9082 9.48263 24.5522 8.82359 23.9472 8.45638C23.3675 8.1018 22.6645 8.0659 22.0038 8.05163C20.587 8.05514 19.1695 8.04982 17.7522 8.05514C17.7522 9.85872 17.7522 11.6622 17.7522 13.4676C17.0381 13.2956 16.3492 13.0323 15.7033 12.6849C16.079 11.1446 16.4351 9.59729 16.8216 8.05877C16.1828 8.04982 15.5457 8.04982 14.9088 8.06052C14.6689 9.18535 14.4219 10.3064 14.1768 11.4294C12.6272 9.82106 12.0115 7.40861 12.5269 5.24332C12.9455 3.43623 14.1375 1.82433 15.7516 0.909115ZM29.0542 1.33357C30.375 0.857192 31.839 2.22194 31.4418 3.5723C31.1753 4.90126 29.3607 5.48154 28.3796 4.54124C27.2759 3.66369 27.6942 1.70071 29.0542 1.33357ZM19.6295 9.66699C20.567 9.70289 21.5209 9.58285 22.4493 9.73154C23.4122 9.87305 23.4841 11.381 22.5926 11.6748C21.6351 11.9596 20.6154 11.7536 19.6313 11.8126C19.6277 11.098 19.6277 10.3817 19.6295 9.66699ZM1.29618 13.5535C2.0746 12.0383 3.94461 11.2843 5.56402 11.7876C6.00243 13.6467 6.43196 15.5074 6.87762 17.3666C7.55933 17.3755 8.24116 17.3773 8.92293 17.3666C9.03554 16.9815 9.14664 16.5946 9.24505 16.206C9.47583 16.6251 9.80513 17.0423 9.76935 17.5511C9.79087 18.1527 9.39894 18.6579 9.02672 19.0876C8.1462 19.9097 6.61632 19.4584 6.09908 18.4287C4.7856 19.0608 3.1072 18.8674 2.04414 17.8447C0.866654 16.7916 0.564303 14.9433 1.29618 13.5535ZM25.0551 13.2992C26.3378 12.3625 28.1723 12.2587 29.4949 13.1775C30.5521 13.9045 31.2091 15.1869 31.1305 16.4764C31.0822 17.7892 30.2764 19.034 29.108 19.6286C28.1367 20.1425 26.9374 20.1838 25.9249 19.7629C24.8526 19.3062 24.0155 18.3515 23.7398 17.2143C25.3181 16.7522 26.0356 14.6228 25.0551 13.2992Z" fill="#EF1A8A"/>
<path d="M19.6292 13.4619C19.6274 14.2248 19.6256 14.9896 19.6292 15.7544C20.4235 15.7544 21.2178 15.7562 22.0126 15.7562C22.5331 15.765 23.1133 15.6361 23.4349 15.1901C23.6694 14.6349 23.5334 13.8021 22.8861 13.6087C21.8319 13.2773 20.7118 13.4708 19.6292 13.4619ZM19.6292 9.66663C19.6274 10.3814 19.6274 11.0977 19.6311 11.8123C20.6151 11.7533 21.6348 11.9593 22.5923 11.6745C23.4833 11.3807 23.4119 9.87269 22.449 9.73118C21.5206 9.58249 20.5668 9.70253 19.6292 9.66663ZM17.7518 8.05478C19.1692 8.04946 20.5861 8.05478 22.0035 8.05127C22.6642 8.06554 23.3672 8.10144 23.9469 8.45602C24.5519 8.82323 24.908 9.48227 25.0621 10.1575C25.105 11.096 24.6698 12.038 23.8218 12.4893C24.2745 12.6882 24.7109 12.9335 25.0549 13.2989C26.0353 14.6224 25.3178 16.7519 23.7396 17.214C21.7618 17.522 19.7471 17.3 17.7518 17.3644C17.7518 16.0659 17.7535 14.7658 17.7518 13.4673C17.7518 11.6619 17.7518 9.85836 17.7518 8.05478ZM4.6958 8.05478C5.34003 8.05127 5.98245 8.05303 6.62662 8.05303C7.07767 10.1664 7.53397 12.2798 7.99566 14.3896C8.55575 12.2798 9.08362 10.1593 9.66698 8.05478C10.4114 8.05127 11.1576 8.04946 11.9021 8.05841C12.4371 10.2148 12.9883 12.3675 13.509 14.5257C13.7326 13.4941 13.9563 12.4625 14.1764 11.4291C14.4215 10.3061 14.6686 9.185 14.9084 8.06016C15.5454 8.04946 16.1824 8.04946 16.8212 8.05841C16.4347 9.59693 16.0787 11.1443 15.7029 12.6846C15.3181 14.2427 14.962 15.8062 14.572 17.3626C13.9063 17.3681 13.2424 17.3681 12.5767 17.3626C11.9468 15.063 11.3491 12.7544 10.7514 10.4476C10.2432 12.3658 9.73855 14.2839 9.24471 16.2056C9.1463 16.5942 9.0352 16.9812 8.92259 17.3663C8.24077 17.377 7.559 17.3751 6.87723 17.3663C6.43162 15.5071 6.00203 13.6464 5.56362 11.7873C5.28104 10.5408 4.96787 9.30317 4.6958 8.05478Z" fill="white"/>
</g>
<defs>
<clipPath id="clip0_2_2019">
<rect width="32" height="24" fill="white"/>
</clipPath>
</defs>
</svg>
