<svg width="217" height="94" viewBox="0 0 217 94" fill="none" xmlns="http://www.w3.org/2000/svg">
<path d="M217 53.5002L214.609 30.5303L195.912 44.0861L217 53.5002ZM4.48071 93.7774C4.57405 93.1103 4.67144 92.4474 4.77283 91.7887L0.819404 91.1801C0.715208 91.857 0.615159 92.538 0.519294 93.2231L4.48071 93.7774ZM5.42891 87.8876C5.66339 86.604 5.91354 85.3373 6.17903 84.0873L2.26631 83.2563C1.99281 84.544 1.73528 85.8481 1.49403 87.1687L5.42891 87.8876ZM7.0563 80.243C7.37025 78.9582 7.70095 77.6918 8.04799 76.4438L4.19421 75.3722C3.83578 76.6612 3.49446 77.9683 3.17062 79.2935L7.0563 80.243ZM9.13989 72.7477C9.5391 71.473 9.95597 70.2184 10.39 68.9837L6.61643 67.657C6.16693 68.9356 5.73555 70.234 5.3227 71.5523L9.13989 72.7477ZM11.7434 65.3391C12.2225 64.1156 12.7192 62.9128 13.233 61.7304L9.56433 60.1363C9.03095 61.3639 8.51561 62.6119 8.01879 63.8805L11.7434 65.3391ZM14.8614 58.1685C15.424 56.9978 16.004 55.8484 16.6009 54.7201L13.0653 52.8495C12.4441 54.0237 11.8408 55.2191 11.2561 56.4361L14.8614 58.1685ZM18.5101 51.2812C19.1643 50.1573 19.8362 49.0558 20.5251 47.9765L17.1533 45.8245C16.4349 46.95 15.7347 48.098 15.0532 49.2688L18.5101 51.2812ZM22.6985 44.7242C23.4458 43.6557 24.2107 42.6105 24.9926 41.5884L21.8156 39.158C20.9991 40.2254 20.2005 41.3166 19.4206 42.4317L22.6985 44.7242ZM27.423 38.5499C28.2601 37.5488 29.1145 36.5716 29.9855 35.6182L27.0323 32.9203C26.1219 33.9169 25.229 34.938 24.3544 35.9841L27.423 38.5499ZM32.6659 32.8104C33.5871 31.887 34.525 30.9878 35.4788 30.1127L32.7746 27.1653C31.7775 28.0801 30.7971 29.0201 29.8341 29.9854L32.6659 32.8104ZM38.3951 27.5528C39.3929 26.7149 40.4064 25.9014 41.4349 25.112L38.9994 21.9389C37.9248 22.7637 36.8657 23.6138 35.8229 24.4895L38.3951 27.5528ZM44.5666 22.8143C45.6321 22.0674 46.7121 21.3446 47.806 20.6457L45.6522 17.275C44.5107 18.0044 43.3832 18.7589 42.2705 19.5389L44.5666 22.8143ZM51.1281 18.6203C52.2518 17.9672 53.3886 17.3378 54.5378 16.7319L52.6722 13.1936C51.4748 13.8249 50.2898 14.481 49.118 15.1621L51.1281 18.6203ZM58.0222 14.9843C59.1946 14.4255 60.3787 13.8899 61.5737 13.3773L59.9968 9.70124C58.7539 10.2344 57.5218 10.7917 56.3012 11.3734L58.0222 14.9843ZM65.1904 11.9081C66.4031 11.4424 67.6259 10.9993 68.858 10.5785L67.5653 6.79313C66.2863 7.22992 65.0164 7.69008 63.7565 8.17393L65.1904 11.9081ZM72.579 9.38367C73.8238 9.00885 75.0771 8.65592 76.3383 8.32464L75.3221 4.45588C74.0156 4.79908 72.7165 5.16487 71.4257 5.55354L72.579 9.38367ZM80.138 7.39696C81.4075 7.11012 82.6841 6.84448 83.9669 6.59978L83.2174 2.67063C81.8909 2.92364 80.5704 3.19844 79.2565 3.49531L80.138 7.39696ZM87.8227 5.92998C89.1103 5.72793 90.4033 5.54638 91.7011 5.38508L91.2077 1.41562C89.8681 1.58212 88.5328 1.7696 87.2026 1.97834L87.8227 5.92998ZM95.5936 4.96304C96.8932 4.84251 98.1968 4.74179 99.5035 4.66065L99.2556 0.66834C97.9087 0.751973 96.5647 0.855813 95.2242 0.980133L95.5936 4.96304ZM103.416 4.47625C104.722 4.43406 106.031 4.41103 107.341 4.40691L107.329 0.406931C105.98 0.411169 104.632 0.434882 103.287 0.478335L103.416 4.47625ZM111.259 4.45064C112.567 4.48381 113.875 4.5355 115.184 4.60547L115.397 0.611173C114.052 0.53922 112.706 0.48605 111.361 0.451923L111.259 4.45064ZM119.096 4.86887C120.4 4.97465 121.704 5.09834 123.006 5.2397L123.437 1.26306C122.099 1.11781 120.76 0.990694 119.42 0.881968L119.096 4.86887ZM126.902 5.7157C128.199 5.89175 129.494 6.08515 130.786 6.29568L131.429 2.34773C130.102 2.13153 128.772 1.9329 127.44 1.75207L126.902 5.7157ZM134.654 6.97825C135.94 7.2227 137.223 7.48401 138.502 7.76196L139.351 3.85318C138.038 3.56785 136.721 3.29957 135.401 3.0486L134.654 6.97825ZM142.329 8.64607C143.602 8.95755 144.87 9.28547 146.132 9.62959L147.184 5.77035C145.888 5.41712 144.586 5.08051 143.28 4.76076L142.329 8.64607ZM149.907 10.7112C151.162 11.0889 152.412 11.4826 153.655 11.8921L154.907 8.09303C153.631 7.67258 152.348 7.26839 151.059 6.8807L149.907 10.7112ZM157.364 13.1684C158.6 13.6118 159.828 14.071 161.048 14.5456L162.498 10.8179C161.245 10.3304 159.984 9.85879 158.715 9.40344L157.364 13.1684ZM164.681 16.0156C165.892 16.5245 167.094 17.0489 168.286 17.5883L169.935 13.9443C168.71 13.3898 167.475 12.8509 166.231 12.3281L164.681 16.0156ZM171.833 19.2532C173.014 19.8274 174.184 20.4168 175.343 21.021L177.192 17.4744C176 16.8527 174.797 16.2465 173.582 15.656L171.833 19.2532ZM178.79 22.8822C179.936 23.5221 181.069 24.1768 182.189 24.8462L184.241 21.4128C183.087 20.7232 181.92 20.0489 180.741 19.39L178.79 22.8822ZM185.52 26.906C186.625 27.6122 187.715 28.333 188.79 29.068L191.048 25.7663C189.938 25.0077 188.814 24.2641 187.675 23.536L185.52 26.906ZM191.986 31.3292C193.043 32.1025 194.083 32.89 195.106 33.6917L197.573 30.5432C196.515 29.7141 195.44 28.9 194.348 28.1012L191.986 31.3292ZM198.144 36.1566C199.145 36.9978 200.128 37.8531 201.091 38.7221L203.771 35.7522C202.772 34.8512 201.754 33.9651 200.717 33.094L198.144 36.1566ZM203.945 41.3924C204.881 42.3021 205.797 43.2255 206.691 44.1625L209.585 41.4009C208.655 40.4267 207.704 39.4672 206.731 38.5227L203.945 41.3924ZM209.329 47.0377C210.191 48.0157 211.03 49.0072 211.844 50.0119L214.951 47.493C214.102 46.445 213.228 45.4115 212.33 44.3929L209.329 47.0377Z" fill="#00C57E"/>
</svg>
