<svg width="262" height="131" viewBox="0 0 262 131" fill="none" xmlns="http://www.w3.org/2000/svg">
<path d="M261.5 34.0133L258.95 11.0605L240.347 24.7455L261.5 34.0133ZM3.98071 130.29C4.07288 129.632 4.17036 128.975 4.2731 128.321L0.321582 127.7C0.215354 128.377 0.114574 129.055 0.0192941 129.736L3.98071 130.29ZM4.95225 124.427C5.19938 123.138 5.46713 121.859 5.75506 120.59L1.85418 119.705C1.55636 121.018 1.27944 122.341 1.02386 123.673L4.95225 124.427ZM6.69266 116.76C7.02795 115.484 7.38382 114.219 7.75983 112.963L3.928 111.815C3.53903 113.114 3.17089 114.423 2.82406 115.743L6.69266 116.76ZM8.94783 109.227C9.36893 107.976 9.81021 106.736 10.2712 105.506L6.52568 104.102C6.04889 105.374 5.59247 106.657 5.1569 107.951L8.94783 109.227ZM11.7153 101.841C12.2168 100.629 12.7377 99.4269 13.2775 98.2353L9.63392 96.5847C9.07599 97.8163 8.53751 99.059 8.019 100.313L11.7153 101.841ZM14.9653 94.6676C15.5467 93.489 16.1469 92.3212 16.7653 91.164L13.2375 89.2787C12.5988 90.4737 11.9788 91.6801 11.3781 92.8978L14.9653 94.6676ZM18.6776 87.7197C19.3343 86.5803 20.0088 85.4517 20.7007 84.3339L17.2997 82.2285C16.5858 83.3817 15.8897 84.5464 15.2119 85.7225L18.6776 87.7197ZM22.8283 81.0133C23.5543 79.9178 24.2972 78.8331 25.0565 77.7594L21.7907 75.4497C21.0083 76.5561 20.2425 77.6742 19.494 78.8037L22.8283 81.0133ZM27.3831 74.5715C28.1747 73.52 28.9822 72.4794 29.8052 71.4498L26.6807 68.9522C25.8338 70.0118 25.0025 71.083 24.1873 72.1659L27.3831 74.5715ZM32.3118 68.4041C33.1624 67.3998 34.0278 66.4066 34.9077 65.4244L31.9284 62.7554C31.0241 63.7649 30.1343 64.786 29.2595 65.8188L32.3118 68.4041ZM37.5859 62.5156C38.4895 61.5604 39.4069 60.6163 40.3375 59.6832L37.5054 56.8584C36.5501 57.8162 35.6082 58.7857 34.6801 59.7667L37.5859 62.5156ZM43.1691 56.917C44.1227 56.0092 45.089 55.1124 46.0675 54.2267L43.3833 51.261C42.3801 52.1691 41.3892 53.0887 40.411 54.02L43.1691 56.917ZM49.0321 51.6094C50.0322 50.748 51.044 49.8977 52.0671 49.0585L49.5304 45.9658C48.4827 46.8251 47.4463 47.696 46.4216 48.5786L49.0321 51.6094ZM55.154 46.5867C56.1928 45.7747 57.2422 44.9737 58.3018 44.1838L55.9112 40.9768C54.8273 41.7848 53.7536 42.6043 52.6905 43.4354L55.154 46.5867ZM61.5098 41.8483C62.5834 41.0848 63.6668 40.3324 64.7593 39.5911L62.5132 36.2812C61.3968 37.0388 60.2895 37.8078 59.1918 38.5884L61.5098 41.8483ZM68.0638 37.4003C69.1728 36.6821 70.2905 35.975 71.4165 35.279L69.3133 31.8765C68.1637 32.5871 67.0222 33.3093 65.8894 34.0429L68.0638 37.4003ZM74.8079 33.2308C75.9463 32.5592 77.0924 31.8987 78.2457 31.2494L76.2835 27.7638C75.1067 28.4262 73.9372 29.1002 72.7754 29.7857L74.8079 33.2308ZM81.7224 29.3377C82.8866 28.7125 84.0575 28.0985 85.2349 27.4957L83.4118 23.9352C82.2114 24.5499 81.0173 25.176 79.8299 25.8137L81.7224 29.3377ZM88.7853 25.7209C89.9741 25.1409 91.1688 24.5722 92.3689 24.0147L90.6838 20.387C89.4608 20.9551 88.2432 21.5348 87.0314 22.126L88.7853 25.7209ZM95.9841 22.3767C97.1942 21.842 98.4093 21.3186 99.629 20.8067L98.0807 17.1185C96.8384 17.64 95.6005 18.1731 94.3675 18.7179L95.9841 22.3767ZM103.306 19.303C104.536 18.8132 105.77 18.3348 107.007 17.8679L105.595 14.1254C104.335 14.6008 103.078 15.088 101.826 15.5869L103.306 19.303ZM110.732 16.5014C111.981 16.0558 113.234 15.6219 114.489 15.1996L113.213 11.4084C111.935 11.8383 110.66 12.2801 109.388 12.7338L110.732 16.5014ZM118.262 13.9681C119.524 13.5684 120.789 13.1805 122.056 12.8045L120.918 8.96988C119.628 9.35272 118.34 9.74761 117.055 10.1545L118.262 13.9681ZM125.879 11.707C127.154 11.3532 128.431 11.0113 129.709 10.6815L128.71 6.80842C127.409 7.14425 126.108 7.49231 124.81 7.85256L125.879 11.707ZM133.565 9.72322C134.857 9.41465 136.148 9.11839 137.44 8.83447L136.581 4.92774C135.266 5.21687 133.95 5.51855 132.636 5.83274L133.565 9.72322ZM141.314 8.01981C142.618 7.75797 143.922 7.50878 145.224 7.27228L144.509 3.33664C143.183 3.57756 141.855 3.83139 140.527 4.09807L141.314 8.01981ZM149.137 6.59936C150.442 6.38749 151.745 6.18847 153.046 6.00232L152.479 2.04264C151.153 2.23236 149.825 2.43519 148.496 2.65106L149.137 6.59936ZM156.998 5.4757C158.312 5.31345 159.624 5.16448 160.933 5.02886L160.52 1.05017C159.186 1.18849 157.848 1.3404 156.508 1.50583L156.998 5.4757ZM164.881 4.65931C166.207 4.54855 167.53 4.45168 168.848 4.36876L168.596 0.376657C167.251 0.461307 165.901 0.560169 164.548 0.673187L164.881 4.65931ZM172.787 4.16187C174.119 4.10586 175.446 4.06436 176.767 4.03741L176.686 0.038242C175.336 0.065786 173.98 0.108193 172.619 0.1654L172.787 4.16187ZM180.728 4.00028C182.051 4.00261 183.367 4.01986 184.676 4.05205L184.774 0.0532587C183.434 0.0203078 182.088 0.00267267 180.735 0.000286937L180.728 4.00028ZM188.653 4.19703C189.97 4.2609 191.28 4.34033 192.58 4.43536L192.872 0.445998C191.538 0.348555 190.196 0.267154 188.846 0.201723L188.653 4.19703ZM196.541 4.77575C197.859 4.90637 199.168 5.05354 200.466 5.2173L200.967 1.24876C199.633 1.08046 198.289 0.929312 196.935 0.795231L196.541 4.77575ZM204.369 5.76493C205.684 5.9685 206.988 6.18976 208.278 6.42874L209.006 2.49563C207.677 2.24933 206.334 2.02147 204.98 1.81197L204.369 5.76493ZM212.109 7.19896C213.415 7.48272 214.707 7.78544 215.983 8.10717L216.961 4.22859C215.641 3.89585 214.307 3.58306 212.958 3.29013L212.109 7.19896ZM219.762 9.12936C221.038 9.49839 222.296 9.88742 223.537 10.2965L224.79 6.49782C223.501 6.07293 222.196 5.66932 220.874 5.28688L219.762 9.12936ZM227.235 11.5962C228.471 12.0585 229.687 12.542 230.882 13.0467L232.438 9.36184C231.191 8.83493 229.923 8.33087 228.635 7.84952L227.235 11.5962ZM234.458 14.6506C235.643 15.215 236.805 15.8019 237.943 16.4113L239.832 12.8855C238.637 12.2454 237.418 11.6299 236.177 11.039L234.458 14.6506ZM241.342 18.3447C242.461 19.0198 243.553 19.7188 244.616 20.4416L246.865 17.1336C245.74 16.3692 244.588 15.6313 243.409 14.9198L241.342 18.3447ZM247.775 22.7242C248.806 23.5163 249.807 24.3337 250.775 25.1763L253.401 22.1589C252.37 21.2616 251.306 20.3926 250.212 19.5519L247.775 22.7242ZM253.619 27.8163C254.538 28.7266 255.422 29.6632 256.271 30.6263L259.272 27.9816C258.362 26.9497 257.416 25.9476 256.435 24.975L253.619 27.8163Z" fill="#FF748F"/>
</svg>
