<svg width="141" height="97" viewBox="0 0 141 97" fill="none" xmlns="http://www.w3.org/2000/svg">
<path d="M138 96.5L140.438 73.5351L119.331 82.906L138 96.5ZM0.928251 4.49871C1.55035 4.52104 2.18831 4.55062 2.84154 4.58772L3.06833 0.594154C2.38812 0.555525 1.72238 0.524643 1.07175 0.501287L0.928251 4.49871ZM6.73607 4.88336C7.99039 5.00134 9.28821 5.14437 10.6262 5.31388L11.1289 1.3456C9.74942 1.17083 8.40886 1.02304 7.11066 0.900934L6.73607 4.88336ZM14.5023 5.86318C15.7602 6.05986 17.0472 6.27861 18.361 6.52041L19.0851 2.58649C17.7363 2.33825 16.4139 2.11347 15.1202 1.91119L14.5023 5.86318ZM22.201 7.2782C23.4547 7.54209 24.729 7.82625 26.022 8.13146L26.9409 4.23845C25.6164 3.92578 24.3104 3.63454 23.0248 3.36396L22.201 7.2782ZM29.8237 9.07662C31.0701 9.40209 32.3313 9.74674 33.6057 10.1112L34.7055 6.26536C33.4013 5.8924 32.1104 5.53962 30.8344 5.2064L29.8237 9.07662ZM37.367 11.2334C38.6034 11.6177 39.8503 12.0204 41.1064 12.4421L42.3795 8.65005C41.0945 8.21869 39.819 7.80673 38.5541 7.41364L37.367 11.2334ZM44.8219 13.7361C46.0371 14.1747 47.2596 14.6311 48.488 15.1057L49.9297 11.3746C48.6732 10.8891 47.4228 10.4223 46.1798 9.97364L44.8219 13.7361ZM52.129 16.5595C53.3292 17.0545 54.534 17.5669 55.7424 18.0973L57.3501 14.4346C56.114 13.892 54.8815 13.3678 53.6538 12.8616L52.129 16.5595ZM59.3258 19.719C60.5004 20.2667 61.6772 20.8316 62.8554 21.4141L64.6281 17.8283C63.4223 17.2322 62.2181 16.6542 61.0163 16.0938L59.3258 19.719ZM66.3493 23.1915C67.502 23.7948 68.655 24.4151 69.8076 25.0529L71.7443 21.553C70.5643 20.9 69.3839 20.265 68.204 19.6475L66.3493 23.1915ZM73.219 26.9934C74.3393 27.6483 75.4583 28.32 76.5751 29.0089L78.6752 25.6046C77.5311 24.8988 76.385 24.2108 75.2376 23.5401L73.219 26.9934ZM79.8891 31.1086C80.9807 31.8188 82.0694 32.5459 83.1545 33.2901L85.417 29.9915C84.3048 29.2286 83.189 28.4835 82.0705 27.7557L79.8891 31.1086ZM86.3527 35.5419C87.4067 36.3037 88.4566 37.0821 89.5014 37.8776L91.9244 34.695C90.8528 33.8792 89.7763 33.0809 88.6956 32.2999L86.3527 35.5419ZM92.5946 40.2946C93.6064 41.1061 94.6129 41.9342 95.6133 42.7791L98.1942 39.7231C97.1677 38.8562 96.1351 38.0066 95.0971 37.1742L92.5946 40.2946ZM98.5753 45.3465C99.5472 46.2112 100.513 47.0924 101.471 47.9904L104.206 45.0718C103.222 44.1499 102.231 43.2454 101.234 42.358L98.5753 45.3465ZM104.288 50.7008C105.214 51.615 106.133 52.5456 107.043 53.493L109.927 50.7217C108.992 49.7488 108.049 48.7932 107.099 47.8545L104.288 50.7008ZM109.717 56.3506C110.591 57.3098 111.456 58.2852 112.313 59.2771L115.34 56.6623C114.46 55.6435 113.571 54.6416 112.673 53.6565L109.717 56.3506ZM114.841 62.2838C115.66 63.2853 116.471 64.3028 117.272 65.3365L120.434 62.8867C119.611 61.8248 118.779 60.7796 117.937 59.7508L114.841 62.2838ZM119.631 68.467C120.398 69.5138 121.156 70.5765 121.903 71.6552L125.191 69.3773C124.423 68.2693 123.645 67.1778 122.857 66.1024L119.631 68.467ZM124.087 74.8994C124.8 75.9888 125.503 77.0939 126.194 78.2149L129.598 76.1144C128.888 74.9633 128.167 73.8284 127.435 72.7094L124.087 74.8994ZM128.2 81.562C128.854 82.6874 129.498 83.8282 130.13 84.9844L133.639 83.0646C132.99 81.8778 132.329 80.7067 131.657 79.5512L128.2 81.562ZM131.96 88.434C132.554 89.5898 133.137 90.7604 133.709 91.9461L137.312 90.2087C136.726 88.9923 136.127 87.7912 135.518 86.6051L131.96 88.434Z" fill="#E87125"/>
</svg>
