<svg width="604" height="447" viewBox="0 0 604 447" fill="none" xmlns="http://www.w3.org/2000/svg">
<path d="M255.338 86.5088L272.306 193.394H117.25L99.9982 86.5088H255.338Z" fill="#FF9CAC"/>
<path d="M422.818 36.4922C422.818 36.4922 410.855 19.0981 394.561 29.2506L404.252 44.4437L422.818 36.4922Z" fill="#FFCC55"/>
<path d="M200.706 160.913H167.977L152.642 247.67L185.371 247.954L200.706 160.913Z" fill="#FF9CAC"/>
<path d="M468.752 87.2897L469.995 122.539C469.995 122.539 444.223 109.05 442.945 112.6L445.714 117.108L443.833 118.954C443.833 118.954 444.188 121.9 446.53 123.675C446.53 123.675 442.413 127.474 447.915 132.479C447.915 132.479 445.111 137.768 449.654 140.856C454.198 143.909 454.802 145.791 467.865 148.062L469.64 148.24L471.876 150.05L472.267 158.747L428 147.317L421.043 77.1372L468.752 87.2897Z" fill="#FF9CAC"/>
<path d="M466.906 95.4545C466.8 95.4545 462.54 94.6025 462.54 94.6025L461.262 95.703L461.369 102.093C461.369 102.093 463.002 103.761 463.108 103.726C463.215 103.69 466.303 104.4 466.267 104.294C466.232 104.187 467.581 103.087 467.581 103.087L466.906 95.4545Z" fill="#11162B"/>
<path d="M466.906 95.4545C466.8 95.4545 462.54 94.6025 462.54 94.6025L461.262 95.703L461.369 102.093C461.369 102.093 463.002 103.761 463.108 103.726C463.215 103.69 466.303 104.4 466.267 104.294C466.232 104.187 467.581 103.087 467.581 103.087L466.906 95.4545Z" fill="black" fill-opacity="0.2"/>
<path d="M445.501 81.3969C445.572 81.3969 445.608 81.3969 445.679 81.3614C446.069 81.2549 446.282 80.8999 446.211 80.5094L442.377 64.4288C442.271 64.0383 441.916 63.8253 441.525 63.8963C441.135 64.0028 440.922 64.3578 440.993 64.7483L444.827 80.8289C444.862 81.1839 445.146 81.3969 445.501 81.3969Z" fill="#FFCC55"/>
<path d="M441.632 81.3971C441.774 81.3971 441.951 81.3616 442.093 81.2196C442.413 80.9711 442.448 80.5096 442.2 80.2256L436.307 73.126C436.059 72.8065 435.597 72.771 435.313 73.0195C434.994 73.268 434.958 73.7295 435.207 74.0135L441.099 81.1131C441.241 81.2906 441.419 81.3971 441.632 81.3971Z" fill="#FFCC55"/>
<path d="M316.075 102.199C316.359 102.199 316.643 102.022 316.749 101.738C316.891 101.383 316.714 100.957 316.323 100.815L304.219 96.1999C303.864 96.0579 303.438 96.2354 303.296 96.6259C303.154 96.9809 303.331 97.4069 303.722 97.5489L315.826 102.164C315.933 102.199 316.004 102.199 316.075 102.199Z" fill="#FFCC55"/>
<path d="M308.833 105.216H315.436C315.827 105.216 316.146 104.897 316.146 104.506C316.146 104.116 315.827 103.796 315.436 103.796H308.833C308.443 103.796 308.123 104.116 308.123 104.506C308.123 104.897 308.443 105.216 308.833 105.216Z" fill="#FFCC55"/>
<path d="M204.718 159.031V189.134L199.251 189.098L204.718 159.031Z" fill="#11162B"/>
<path d="M204.718 159.031V189.134L199.251 189.098L204.718 159.031Z" fill="black" fill-opacity="0.2"/>
<path d="M349.408 338.261L342.308 333.362V321.79H349.408V338.261Z" fill="#11162B"/>
<path d="M349.408 338.261L342.308 333.362V321.79H349.408V338.261Z" fill="black" fill-opacity="0.2"/>
<path d="M548.233 287.392C517.433 287.392 492.465 262.424 492.465 231.625C492.465 200.825 517.433 175.857 548.233 175.857C579.032 175.857 604 200.825 604 231.625C604 262.424 579.032 287.392 548.233 287.392Z" fill="#AECBEE"/>
<path d="M31.9838 256.509L31.8063 368.754C44.5857 378.055 60.3113 383.557 77.3149 383.557C120.019 383.557 154.594 348.946 154.594 306.277C154.594 287.073 147.601 269.501 135.993 255.977L31.9838 256.509Z" fill="#FFCC55"/>
<path d="M77.3148 228.998C57.6843 228.998 39.7578 236.311 26.1265 248.38L128.255 248.167C114.659 236.204 96.8387 228.998 77.3148 228.998Z" fill="#FFCC55"/>
<path d="M0.000125885 306.278C0.000125885 328.144 9.08763 347.881 23.6418 361.939V256.154H18.4591C6.95775 269.644 0.000125885 287.144 0.000125885 306.278Z" fill="#FFCC55"/>
<path d="M424.486 445.288L349.408 421.079H342.308L299.071 437.621V445.288H424.486Z" fill="#11162B"/>
<path d="M424.486 445.288L349.408 421.079H342.308L299.071 437.621V445.288H424.486Z" fill="black" fill-opacity="0.2"/>
<path d="M279.086 302.231C279.086 302.231 280.115 321.542 268.685 321.79L279.086 302.231Z" fill="#11162B"/>
<path d="M279.086 302.231C279.086 302.231 280.115 321.542 268.685 321.79L279.086 302.231Z" fill="black" fill-opacity="0.2"/>
<path d="M427.61 230.738C427.61 230.738 416.499 247.67 397.153 247.67L423.421 246.996C423.421 246.996 431.515 245.931 427.61 230.738Z" fill="#11162B"/>
<path d="M427.61 230.738C427.61 230.738 416.499 247.67 397.153 247.67L423.421 246.996C423.421 246.996 431.515 245.931 427.61 230.738Z" fill="black" fill-opacity="0.2"/>
<path d="M279.299 246.606L194.743 242.239L193.216 247.67L279.902 248.38L279.299 246.606Z" fill="#11162B"/>
<path d="M279.299 246.606L194.743 242.239L193.216 247.67L279.902 248.38L279.299 246.606Z" fill="black" fill-opacity="0.2"/>
<path d="M290.055 243.162C290.055 243.162 279.192 243.73 277.986 242.559L279.902 248.38L291.439 247.954C291.439 247.954 285.405 246.144 290.055 242.559" fill="#11162B"/>
<path d="M290.055 243.162C290.055 243.162 279.192 243.73 277.986 242.559L279.902 248.38L291.439 247.954C291.439 247.954 285.405 246.144 290.055 242.559" fill="black" fill-opacity="0.2"/>
<path d="M299.071 418.558C299.071 418.558 295.45 413.624 280.719 413.624H299.071V418.558Z" fill="#11162B"/>
<path d="M299.071 418.558C299.071 418.558 295.45 413.624 280.719 413.624H299.071V418.558Z" fill="black" fill-opacity="0.2"/>
<path d="M215.935 413.624H201.132C201.132 413.624 209.652 414.157 215.935 417.742V413.624Z" fill="#11162B"/>
<path d="M215.935 413.624H201.132C201.132 413.624 209.652 414.157 215.935 417.742V413.624Z" fill="black" fill-opacity="0.2"/>
<path d="M485.614 236.524H464.741V243.872C464.706 243.872 473.864 237.482 485.614 236.524Z" fill="#11162B"/>
<path d="M485.614 236.524H464.741V243.872C464.706 243.872 473.864 237.482 485.614 236.524Z" fill="black" fill-opacity="0.2"/>
<path d="M540.281 388.704L539.962 397.685L543.937 402.371C543.973 402.371 539.216 393.177 540.281 388.704Z" fill="#11162B"/>
<path d="M540.281 388.704L539.962 397.685L543.937 402.371C543.973 402.371 539.216 393.177 540.281 388.704Z" fill="black" fill-opacity="0.2"/>
<path d="M535.844 420.191L522.177 420.014C522.177 420.014 531.513 420.724 535.844 425.338V420.191Z" fill="#11162B"/>
<path d="M535.844 420.191L522.177 420.014C522.177 420.014 531.513 420.724 535.844 425.338V420.191Z" fill="black" fill-opacity="0.2"/>
<path d="M579.861 391.615L576.276 387.639L564.633 398.182C564.597 398.182 573.898 392.183 579.861 391.615Z" fill="#11162B"/>
<path d="M579.861 391.615L576.276 387.639L564.633 398.182C564.597 398.182 573.898 392.183 579.861 391.615Z" fill="black" fill-opacity="0.2"/>
<path d="M485.827 36.8472C485.827 36.8472 472.196 54.0992 473.58 63.9322C473.58 63.9322 471.095 71.2448 488.631 76.2855L502.617 68.5115L494.63 68.618C494.63 68.618 490.087 68.4405 488.099 59.1755C486.111 49.8395 485.827 36.8472 485.827 36.8472Z" fill="#11162B"/>
<path d="M485.827 36.8472C485.827 36.8472 472.196 54.0992 473.58 63.9322C473.58 63.9322 471.095 71.2448 488.631 76.2855L502.617 68.5115L494.63 68.618C494.63 68.618 490.087 68.4405 488.099 59.1755C486.111 49.8395 485.827 36.8472 485.827 36.8472Z" fill="black" fill-opacity="0.2"/>
<path d="M367.973 102.944C367.973 102.944 374.54 74.8298 361.584 72.0965C348.627 69.3276 340.32 69.8246 336.451 71.209C332.546 72.5934 328.748 73.0904 326.937 77.5632C325.127 82.0359 324.062 81.7874 325.376 82.6749C326.689 83.5624 352.887 83.6334 352.887 83.6334C352.887 83.6334 350.082 86.1182 359.454 101.56C359.454 101.56 364.885 101.418 367.973 102.944Z" fill="#11162B"/>
<path d="M367.973 102.944C367.973 102.944 374.54 74.8298 361.584 72.0965C348.627 69.3276 340.32 69.8246 336.451 71.209C332.546 72.5934 328.748 73.0904 326.937 77.5632C325.127 82.0359 324.062 81.7874 325.376 82.6749C326.689 83.5624 352.887 83.6334 352.887 83.6334C352.887 83.6334 350.082 86.1182 359.454 101.56C359.454 101.56 364.885 101.418 367.973 102.944Z" fill="black" fill-opacity="0.2"/>
<path d="M545.712 38.2669C545.712 38.2669 551.782 0.709961 519.763 0.709961C487.744 0.709961 486.075 9.72648 485.33 12.6728C484.584 15.6192 486.075 32.5517 486.075 32.5517C486.075 32.5517 492.501 14.5897 500.346 12.9923C500.346 12.9923 515.113 35.6046 523.135 35.6046C523.135 35.6046 530.093 32.9067 530.59 39.0834C531.087 45.2601 523.348 44.3726 523.348 44.3726C523.348 44.3726 518.698 44.4791 518.805 52.0757C518.911 59.6723 517.03 67.7304 527.963 68.4048C527.963 68.4048 532.755 77.1019 544.541 77.1019C556.362 77.0664 571.803 61.3407 545.712 38.2669Z" fill="#11162B"/>
<path d="M545.712 38.2669C545.712 38.2669 551.782 0.709961 519.763 0.709961C487.744 0.709961 486.075 9.72648 485.33 12.6728C484.584 15.6192 486.075 32.5517 486.075 32.5517C486.075 32.5517 492.501 14.5897 500.346 12.9923C500.346 12.9923 515.113 35.6046 523.135 35.6046C523.135 35.6046 530.093 32.9067 530.59 39.0834C531.087 45.2601 523.348 44.3726 523.348 44.3726C523.348 44.3726 518.698 44.4791 518.805 52.0757C518.911 59.6723 517.03 67.7304 527.963 68.4048C527.963 68.4048 532.755 77.1019 544.541 77.1019C556.362 77.0664 571.803 61.3407 545.712 38.2669Z" fill="black" fill-opacity="0.2"/>
<path d="M544.576 77.7763C550.149 77.7763 557.143 74.2265 559.734 67.4464C561.615 62.5121 562.361 52.1467 546.493 37.983C546.884 35.1431 548.73 18.5655 539.89 8.16456C535.24 2.76885 528.46 0 519.728 0C487.708 0 485.472 8.98102 484.655 12.3533L484.62 12.4953C483.875 15.5127 485.294 31.9128 485.33 32.6227C485.365 32.9422 485.614 33.2262 485.933 33.2617C486.253 33.2972 486.572 33.1197 486.679 32.8002C486.75 32.6227 492.82 15.9031 499.991 13.7733C502.121 17.0036 515.326 36.279 523.1 36.279C523.171 36.279 523.277 36.279 523.348 36.2435C523.384 36.2435 526.543 35.0366 528.425 36.208C529.277 36.7405 529.738 37.699 529.845 39.0834C529.951 40.4678 529.632 41.4973 528.851 42.2427C527.04 43.9821 523.419 43.6272 523.384 43.6272C523.348 43.6272 523.313 43.6272 523.277 43.6272C523.206 43.6272 517.917 43.8401 518.024 52.0402C518.024 53.0341 518.024 54.0991 517.988 55.093C517.846 61.5892 517.704 68.2628 527.466 69.0438C528.602 70.7122 533.714 77.7763 544.576 77.7763ZM519.728 1.41992C528.034 1.41992 534.424 4.01128 538.755 9.12301C547.807 19.7724 545.002 37.983 544.967 38.1604C544.931 38.4089 545.002 38.6574 545.215 38.7994C560.728 52.5017 560.124 62.2991 558.35 66.9494C556.007 73.1261 549.617 76.3564 544.541 76.3564C533.359 76.3564 528.602 68.1208 528.567 68.0498C528.46 67.8368 528.247 67.6949 527.999 67.6949C519.231 67.1624 519.337 61.8732 519.479 55.164C519.515 54.1346 519.515 53.1051 519.515 52.0757C519.444 45.615 522.922 45.1536 523.348 45.1181C523.916 45.1536 527.715 45.4376 529.88 43.3432C530.98 42.2782 531.442 40.8583 531.3 39.0479C531.158 37.202 530.448 35.8531 529.206 35.0721C526.969 33.6522 523.739 34.6816 523.029 34.9301C516.746 34.7171 504.996 18.7785 500.949 12.6373C500.807 12.3888 500.488 12.2823 500.204 12.3178C493.956 13.5603 488.738 24.2452 486.501 29.4634C486.075 23.7837 485.507 14.7672 486.004 12.8503L486.04 12.6728C486.714 9.90397 488.809 1.41992 519.728 1.41992Z" fill="#11162B"/>
<path d="M544.576 77.7763C550.149 77.7763 557.143 74.2265 559.734 67.4464C561.615 62.5121 562.361 52.1467 546.493 37.983C546.884 35.1431 548.73 18.5655 539.89 8.16456C535.24 2.76885 528.46 0 519.728 0C487.708 0 485.472 8.98102 484.655 12.3533L484.62 12.4953C483.875 15.5127 485.294 31.9128 485.33 32.6227C485.365 32.9422 485.614 33.2262 485.933 33.2617C486.253 33.2972 486.572 33.1197 486.679 32.8002C486.75 32.6227 492.82 15.9031 499.991 13.7733C502.121 17.0036 515.326 36.279 523.1 36.279C523.171 36.279 523.277 36.279 523.348 36.2435C523.384 36.2435 526.543 35.0366 528.425 36.208C529.277 36.7405 529.738 37.699 529.845 39.0834C529.951 40.4678 529.632 41.4973 528.851 42.2427C527.04 43.9821 523.419 43.6272 523.384 43.6272C523.348 43.6272 523.313 43.6272 523.277 43.6272C523.206 43.6272 517.917 43.8401 518.024 52.0402C518.024 53.0341 518.024 54.0991 517.988 55.093C517.846 61.5892 517.704 68.2628 527.466 69.0438C528.602 70.7122 533.714 77.7763 544.576 77.7763ZM519.728 1.41992C528.034 1.41992 534.424 4.01128 538.755 9.12301C547.807 19.7724 545.002 37.983 544.967 38.1604C544.931 38.4089 545.002 38.6574 545.215 38.7994C560.728 52.5017 560.124 62.2991 558.35 66.9494C556.007 73.1261 549.617 76.3564 544.541 76.3564C533.359 76.3564 528.602 68.1208 528.567 68.0498C528.46 67.8368 528.247 67.6949 527.999 67.6949C519.231 67.1624 519.337 61.8732 519.479 55.164C519.515 54.1346 519.515 53.1051 519.515 52.0757C519.444 45.615 522.922 45.1536 523.348 45.1181C523.916 45.1536 527.715 45.4376 529.88 43.3432C530.98 42.2782 531.442 40.8583 531.3 39.0479C531.158 37.202 530.448 35.8531 529.206 35.0721C526.969 33.6522 523.739 34.6816 523.029 34.9301C516.746 34.7171 504.996 18.7785 500.949 12.6373C500.807 12.3888 500.488 12.2823 500.204 12.3178C493.956 13.5603 488.738 24.2452 486.501 29.4634C486.075 23.7837 485.507 14.7672 486.004 12.8503L486.04 12.6728C486.714 9.90397 488.809 1.41992 519.728 1.41992Z" fill="black" fill-opacity="0.2"/>
<path d="M508.794 82.9234C509.966 82.9234 511.244 82.7104 512.663 82.2489C520.26 79.7641 529.312 72.8419 529.703 72.558C530.022 72.3095 530.058 71.8835 529.845 71.564C529.596 71.2445 529.17 71.209 528.851 71.422C528.744 71.493 519.586 78.4861 512.237 80.9C509.753 81.7165 507.694 81.7165 506.167 80.9C504.712 80.1191 504.179 78.8766 504.037 78.5216V68.4402C504.037 68.2627 503.966 68.0852 503.824 67.9432C503.682 67.8012 503.505 67.7302 503.327 67.7302L494.63 67.8367C493.707 67.8367 492.891 67.4462 492.146 66.6298C485.933 60.2046 486.927 32.1256 486.963 31.8417C486.963 31.4512 486.679 31.1317 486.288 31.0962C485.862 31.0962 485.578 31.3802 485.543 31.7707C485.507 32.9421 484.513 60.7371 491.152 67.5882C492.181 68.6532 493.388 69.2211 494.666 69.2211L502.653 69.1146V78.5926C502.653 78.6636 502.653 78.7346 502.688 78.8056C502.724 78.8766 503.327 80.9355 505.528 82.107C506.451 82.6749 507.552 82.9234 508.794 82.9234Z" fill="#11162B"/>
<path d="M508.794 82.9234C509.966 82.9234 511.244 82.7104 512.663 82.2489C520.26 79.7641 529.312 72.8419 529.703 72.558C530.022 72.3095 530.058 71.8835 529.845 71.564C529.596 71.2445 529.17 71.209 528.851 71.422C528.744 71.493 519.586 78.4861 512.237 80.9C509.753 81.7165 507.694 81.7165 506.167 80.9C504.712 80.1191 504.179 78.8766 504.037 78.5216V68.4402C504.037 68.2627 503.966 68.0852 503.824 67.9432C503.682 67.8012 503.505 67.7302 503.327 67.7302L494.63 67.8367C493.707 67.8367 492.891 67.4462 492.146 66.6298C485.933 60.2046 486.927 32.1256 486.963 31.8417C486.963 31.4512 486.679 31.1317 486.288 31.0962C485.862 31.0962 485.578 31.3802 485.543 31.7707C485.507 32.9421 484.513 60.7371 491.152 67.5882C492.181 68.6532 493.388 69.2211 494.666 69.2211L502.653 69.1146V78.5926C502.653 78.6636 502.653 78.7346 502.688 78.8056C502.724 78.8766 503.327 80.9355 505.528 82.107C506.451 82.6749 507.552 82.9234 508.794 82.9234Z" fill="black" fill-opacity="0.2"/>
<path d="M467.9 91.8337C468.078 91.8337 468.255 91.7627 468.397 91.6207C478.692 80.9713 503.327 69.2569 503.576 69.1149C503.931 68.9374 504.073 68.5114 503.931 68.1565C503.753 67.8015 503.327 67.6595 502.972 67.8015C501.943 68.2985 477.84 79.7643 467.368 90.5913C467.084 90.8752 467.119 91.3367 467.368 91.5852C467.545 91.7627 467.723 91.8337 467.9 91.8337Z" fill="#11162B"/>
<path d="M467.9 91.8337C468.078 91.8337 468.255 91.7627 468.397 91.6207C478.692 80.9713 503.327 69.2569 503.576 69.1149C503.931 68.9374 504.073 68.5114 503.931 68.1565C503.753 67.8015 503.327 67.6595 502.972 67.8015C501.943 68.2985 477.84 79.7643 467.368 90.5913C467.084 90.8752 467.119 91.3367 467.368 91.5852C467.545 91.7627 467.723 91.8337 467.9 91.8337Z" fill="black" fill-opacity="0.2"/>
<path d="M487.957 76.6047C488.241 76.6047 488.489 76.4273 488.596 76.1788C488.738 75.8238 488.596 75.3978 488.241 75.2558L479.118 71.3155C476.455 70.1796 474.858 68.4047 474.219 65.8843C471.592 55.5899 486.182 37.0244 486.324 36.8114C486.572 36.4919 486.501 36.0659 486.217 35.8174C485.898 35.569 485.472 35.64 485.223 35.9239C484.62 36.7049 470.066 55.2349 472.87 66.2038C473.616 69.1501 475.532 71.28 478.585 72.5935L487.708 76.5338C487.779 76.6047 487.886 76.6047 487.957 76.6047Z" fill="#11162B"/>
<path d="M487.957 76.6047C488.241 76.6047 488.489 76.4273 488.596 76.1788C488.738 75.8238 488.596 75.3978 488.241 75.2558L479.118 71.3155C476.455 70.1796 474.858 68.4047 474.219 65.8843C471.592 55.5899 486.182 37.0244 486.324 36.8114C486.572 36.4919 486.501 36.0659 486.217 35.8174C485.898 35.569 485.472 35.64 485.223 35.9239C484.62 36.7049 470.066 55.2349 472.87 66.2038C473.616 69.1501 475.532 71.28 478.585 72.5935L487.708 76.5338C487.779 76.6047 487.886 76.6047 487.957 76.6047Z" fill="black" fill-opacity="0.2"/>
<path d="M496.015 46.5381C496.334 46.5381 496.618 46.3252 496.689 46.0057C496.796 45.6152 496.547 45.2247 496.192 45.1537C495.234 44.9052 493.956 44.2663 493.956 43.6628C493.956 42.9883 495.376 42.0654 496.299 41.6394C496.547 41.5329 496.725 41.2844 496.725 41.0004V37.5571C496.725 37.1667 496.405 36.8472 496.015 36.8472C495.624 36.8472 495.305 37.1667 495.305 37.5571V40.539C494.382 41.0004 492.536 42.1364 492.536 43.6273C492.536 45.5797 495.482 46.3962 495.837 46.5026C495.873 46.5381 495.944 46.5381 496.015 46.5381Z" fill="#11162B"/>
<path d="M496.015 46.5381C496.334 46.5381 496.618 46.3252 496.689 46.0057C496.796 45.6152 496.547 45.2247 496.192 45.1537C495.234 44.9052 493.956 44.2663 493.956 43.6628C493.956 42.9883 495.376 42.0654 496.299 41.6394C496.547 41.5329 496.725 41.2844 496.725 41.0004V37.5571C496.725 37.1667 496.405 36.8472 496.015 36.8472C495.624 36.8472 495.305 37.1667 495.305 37.5571V40.539C494.382 41.0004 492.536 42.1364 492.536 43.6273C492.536 45.5797 495.482 46.3962 495.837 46.5026C495.873 46.5381 495.944 46.5381 496.015 46.5381Z" fill="black" fill-opacity="0.2"/>
<path d="M504.321 55.0218C506.274 54.9863 507.729 54.4183 508.652 53.3534C509.859 51.969 509.682 50.2296 509.682 50.1586C509.646 49.7681 509.291 49.4841 508.901 49.5196C508.51 49.5551 508.226 49.9101 508.262 50.3006C508.262 50.3361 508.368 51.5075 507.552 52.4304C506.877 53.1759 505.812 53.5664 504.286 53.6019C503.895 53.6019 503.576 53.9214 503.576 54.3118C503.611 54.7023 503.931 55.0218 504.321 55.0218Z" fill="#11162B"/>
<path d="M504.321 55.0218C506.274 54.9863 507.729 54.4183 508.652 53.3534C509.859 51.969 509.682 50.2296 509.682 50.1586C509.646 49.7681 509.291 49.4841 508.901 49.5196C508.51 49.5551 508.226 49.9101 508.262 50.3006C508.262 50.3361 508.368 51.5075 507.552 52.4304C506.877 53.1759 505.812 53.5664 504.286 53.6019C503.895 53.6019 503.576 53.9214 503.576 54.3118C503.611 54.7023 503.931 55.0218 504.321 55.0218Z" fill="black" fill-opacity="0.2"/>
<path d="M503.611 68.4756H511.102C511.102 68.4756 509.149 75.0072 503.611 74.2618V68.4756Z" fill="#11162B"/>
<path d="M503.611 68.4756H511.102C511.102 68.4756 509.149 75.0072 503.611 74.2618V68.4756Z" fill="black" fill-opacity="0.2"/>
<path d="M504.463 75.0427C508.723 75.0427 511.101 70.996 511.811 68.6886C511.882 68.4756 511.847 68.2271 511.705 68.0496C511.563 67.8721 511.35 67.7656 511.137 67.7656H503.647C503.256 67.7656 502.937 68.0851 502.937 68.4756V74.2618C502.937 74.6168 503.185 74.9362 503.54 74.9717C503.86 75.0072 504.144 75.0427 504.463 75.0427ZM510.072 69.1855C509.398 70.712 507.694 73.6228 504.463 73.6228C504.428 73.6228 504.357 73.6228 504.321 73.6228V69.1855H510.072Z" fill="#11162B"/>
<path d="M504.463 75.0427C508.723 75.0427 511.101 70.996 511.811 68.6886C511.882 68.4756 511.847 68.2271 511.705 68.0496C511.563 67.8721 511.35 67.7656 511.137 67.7656H503.647C503.256 67.7656 502.937 68.0851 502.937 68.4756V74.2618C502.937 74.6168 503.185 74.9362 503.54 74.9717C503.86 75.0072 504.144 75.0427 504.463 75.0427ZM510.072 69.1855C509.398 70.712 507.694 73.6228 504.463 73.6228C504.428 73.6228 504.357 73.6228 504.321 73.6228V69.1855H510.072Z" fill="black" fill-opacity="0.2"/>
<path d="M506.664 35.64C507.268 35.64 507.729 35.1431 507.729 34.5751V33.3682C507.729 32.7647 507.232 32.3032 506.664 32.3032C506.061 32.3032 505.599 32.8002 505.599 33.3682V34.5396C505.564 35.1431 506.061 35.64 506.664 35.64Z" fill="#11162B"/>
<path d="M506.664 35.64C507.268 35.64 507.729 35.1431 507.729 34.5751V33.3682C507.729 32.7647 507.232 32.3032 506.664 32.3032C506.061 32.3032 505.599 32.8002 505.599 33.3682V34.5396C505.564 35.1431 506.061 35.64 506.664 35.64Z" fill="black" fill-opacity="0.2"/>
<path d="M491.365 35.64C491.968 35.64 492.429 35.1431 492.429 34.5751V33.3682C492.429 32.7647 491.932 32.3032 491.365 32.3032C490.761 32.3032 490.3 32.8002 490.3 33.3682V34.5396C490.264 35.1431 490.761 35.64 491.365 35.64Z" fill="#11162B"/>
<path d="M491.365 35.64C491.968 35.64 492.429 35.1431 492.429 34.5751V33.3682C492.429 32.7647 491.932 32.3032 491.365 32.3032C490.761 32.3032 490.3 32.8002 490.3 33.3682V34.5396C490.264 35.1431 490.761 35.64 491.365 35.64Z" fill="black" fill-opacity="0.2"/>
<path d="M327.647 98.5425C328.251 98.5425 328.712 98.0456 328.712 97.4776V96.3062C328.712 95.7027 328.215 95.2412 327.647 95.2412C327.044 95.2412 326.582 95.7382 326.582 96.3062V97.4776C326.547 98.0811 327.044 98.5425 327.647 98.5425Z" fill="#11162B"/>
<path d="M327.647 98.5425C328.251 98.5425 328.712 98.0456 328.712 97.4776V96.3062C328.712 95.7027 328.215 95.2412 327.647 95.2412C327.044 95.2412 326.582 95.7382 326.582 96.3062V97.4776C326.547 98.0811 327.044 98.5425 327.647 98.5425Z" fill="black" fill-opacity="0.2"/>
<path d="M343.621 98.7203C344.225 98.7203 344.686 98.2233 344.686 97.6553V96.4839C344.686 95.8804 344.189 95.4189 343.621 95.4189C343.018 95.4189 342.557 95.9159 342.557 96.4839V97.6553C342.521 98.2233 343.018 98.7203 343.621 98.7203Z" fill="#11162B"/>
<path d="M343.621 98.7203C344.225 98.7203 344.686 98.2233 344.686 97.6553V96.4839C344.686 95.8804 344.189 95.4189 343.621 95.4189C343.018 95.4189 342.557 95.9159 342.557 96.4839V97.6553C342.521 98.2233 343.018 98.7203 343.621 98.7203Z" fill="black" fill-opacity="0.2"/>
<path d="M511.172 31.487C511.35 31.487 511.563 31.416 511.705 31.2386C511.953 30.9546 511.953 30.4931 511.669 30.2446C511.563 30.1381 509.185 28.0437 506.984 28.3277C506.593 28.3632 506.309 28.7182 506.38 29.1087C506.416 29.4992 506.771 29.7831 507.161 29.7121C508.439 29.5346 510.179 30.8126 510.711 31.3096C510.817 31.416 510.995 31.487 511.172 31.487Z" fill="#11162B"/>
<path d="M511.172 31.487C511.35 31.487 511.563 31.416 511.705 31.2386C511.953 30.9546 511.953 30.4931 511.669 30.2446C511.563 30.1381 509.185 28.0437 506.984 28.3277C506.593 28.3632 506.309 28.7182 506.38 29.1087C506.416 29.4992 506.771 29.7831 507.161 29.7121C508.439 29.5346 510.179 30.8126 510.711 31.3096C510.817 31.416 510.995 31.487 511.172 31.487Z" fill="black" fill-opacity="0.2"/>
<path d="M489.483 30.5996C489.661 30.5996 489.838 30.5286 489.945 30.4221C491.507 29.0377 492.501 29.6766 492.607 29.7831C492.927 30.0316 493.352 29.9606 493.601 29.6766C493.849 29.3572 493.814 28.9312 493.494 28.6827C492.82 28.1147 491.01 27.5823 489.022 29.3927C488.738 29.6411 488.702 30.1026 488.986 30.3866C489.093 30.5286 489.27 30.5996 489.483 30.5996Z" fill="#11162B"/>
<path d="M489.483 30.5996C489.661 30.5996 489.838 30.5286 489.945 30.4221C491.507 29.0377 492.501 29.6766 492.607 29.7831C492.927 30.0316 493.352 29.9606 493.601 29.6766C493.849 29.3572 493.814 28.9312 493.494 28.6827C492.82 28.1147 491.01 27.5823 489.022 29.3927C488.738 29.6411 488.702 30.1026 488.986 30.3866C489.093 30.5286 489.27 30.5996 489.483 30.5996Z" fill="black" fill-opacity="0.2"/>
<path d="M551.108 194.103C552.67 194.103 554.196 194.032 555.758 193.855C569.105 192.506 580.074 185.051 588.381 171.811C599.243 153.139 602.048 135.319 596.758 118.883C591.718 103.299 580.216 91.869 571.413 85.0178C561.899 77.5987 553.486 73.8004 553.38 73.7649C553.025 73.5875 552.599 73.7649 552.457 74.1199C552.279 74.4749 552.457 74.9009 552.812 75.0429C552.883 75.0784 561.225 78.8412 570.561 86.1538C579.187 92.8984 590.475 104.08 595.374 119.309C600.557 135.354 597.788 152.748 587.138 171.065C579.116 183.916 568.502 191.122 555.581 192.471C554.09 192.613 552.599 192.684 551.072 192.684C532.613 192.684 512.912 181.644 499.174 171.988C483.236 160.735 471.734 148.879 471.344 148.453C471.131 148.204 469.782 146.962 465.557 146.607C461.972 146.323 451.678 143.448 448.589 138.407C447.56 136.739 447.453 134.999 448.234 133.153C448.376 132.798 448.199 132.372 447.844 132.23C447.489 132.088 447.063 132.266 446.921 132.621C445.963 134.893 446.105 137.129 447.382 139.188C450.968 145.116 462.505 147.814 465.451 148.062C469.249 148.382 470.279 149.411 470.279 149.447C470.421 149.589 482.1 161.694 498.322 173.16C512.273 182.957 532.258 194.103 551.108 194.103Z" fill="#11162B"/>
<path d="M551.108 194.103C552.67 194.103 554.196 194.032 555.758 193.855C569.105 192.506 580.074 185.051 588.381 171.811C599.243 153.139 602.048 135.319 596.758 118.883C591.718 103.299 580.216 91.869 571.413 85.0178C561.899 77.5987 553.486 73.8004 553.38 73.7649C553.025 73.5875 552.599 73.7649 552.457 74.1199C552.279 74.4749 552.457 74.9009 552.812 75.0429C552.883 75.0784 561.225 78.8412 570.561 86.1538C579.187 92.8984 590.475 104.08 595.374 119.309C600.557 135.354 597.788 152.748 587.138 171.065C579.116 183.916 568.502 191.122 555.581 192.471C554.09 192.613 552.599 192.684 551.072 192.684C532.613 192.684 512.912 181.644 499.174 171.988C483.236 160.735 471.734 148.879 471.344 148.453C471.131 148.204 469.782 146.962 465.557 146.607C461.972 146.323 451.678 143.448 448.589 138.407C447.56 136.739 447.453 134.999 448.234 133.153C448.376 132.798 448.199 132.372 447.844 132.23C447.489 132.088 447.063 132.266 446.921 132.621C445.963 134.893 446.105 137.129 447.382 139.188C450.968 145.116 462.505 147.814 465.451 148.062C469.249 148.382 470.279 149.411 470.279 149.447C470.421 149.589 482.1 161.694 498.322 173.16C512.273 182.957 532.258 194.103 551.108 194.103Z" fill="black" fill-opacity="0.2"/>
<path d="M460.694 139.827C460.978 139.827 461.262 139.65 461.369 139.33C461.475 138.975 461.298 138.549 460.907 138.443C456.612 137.023 445.501 132.195 445.572 127.19C445.572 126.764 445.678 125.628 446.211 125.131C446.353 124.989 446.601 124.847 447.169 124.918C447.56 124.989 447.915 124.705 447.986 124.314C448.057 123.924 447.773 123.569 447.382 123.498C446.353 123.356 445.678 123.711 445.288 124.03C444.152 125.024 444.152 126.941 444.152 127.154C444.081 134.183 459.807 139.508 460.481 139.721C460.552 139.827 460.623 139.827 460.694 139.827Z" fill="#11162B"/>
<path d="M460.694 139.827C460.978 139.827 461.262 139.65 461.369 139.33C461.475 138.975 461.298 138.549 460.907 138.443C456.612 137.023 445.501 132.195 445.572 127.19C445.572 126.764 445.678 125.628 446.211 125.131C446.353 124.989 446.601 124.847 447.169 124.918C447.56 124.989 447.915 124.705 447.986 124.314C448.057 123.924 447.773 123.569 447.382 123.498C446.353 123.356 445.678 123.711 445.288 124.03C444.152 125.024 444.152 126.941 444.152 127.154C444.081 134.183 459.807 139.508 460.481 139.721C460.552 139.827 460.623 139.827 460.694 139.827Z" fill="black" fill-opacity="0.2"/>
<path d="M462.15 133.153C462.54 133.153 462.86 132.834 462.86 132.443C462.86 132.088 462.611 131.805 462.292 131.734C460.73 131.272 444.898 123.924 444.507 119.629C444.472 119.345 444.401 118.528 446.069 117.712C446.424 117.534 446.566 117.108 446.389 116.753C446.211 116.398 445.785 116.256 445.43 116.434C443.087 117.57 442.91 119.132 443.158 120.197C443.691 122.54 446.992 125.415 452.956 128.752C456.825 130.953 461.653 133.153 462.15 133.153Z" fill="#11162B"/>
<path d="M462.15 133.153C462.54 133.153 462.86 132.834 462.86 132.443C462.86 132.088 462.611 131.805 462.292 131.734C460.73 131.272 444.898 123.924 444.507 119.629C444.472 119.345 444.401 118.528 446.069 117.712C446.424 117.534 446.566 117.108 446.389 116.753C446.211 116.398 445.785 116.256 445.43 116.434C443.087 117.57 442.91 119.132 443.158 120.197C443.691 122.54 446.992 125.415 452.956 128.752C456.825 130.953 461.653 133.153 462.15 133.153Z" fill="black" fill-opacity="0.2"/>
<path d="M482.632 159.457C482.703 159.457 482.809 159.457 482.88 159.422C492.394 155.943 495.802 149.66 496.973 145.045C498.251 140.04 497.293 135.887 497.257 135.709C497.151 135.319 496.796 135.106 496.405 135.177C496.015 135.283 495.802 135.638 495.873 136.029C495.873 136.064 496.796 140.075 495.589 144.726C493.991 150.973 489.554 155.446 482.384 158.073C482.029 158.215 481.816 158.605 481.958 158.996C482.064 159.28 482.348 159.457 482.632 159.457Z" fill="#11162B"/>
<path d="M482.632 159.457C482.703 159.457 482.809 159.457 482.88 159.422C492.394 155.943 495.802 149.66 496.973 145.045C498.251 140.04 497.293 135.887 497.257 135.709C497.151 135.319 496.796 135.106 496.405 135.177C496.015 135.283 495.802 135.638 495.873 136.029C495.873 136.064 496.796 140.075 495.589 144.726C493.991 150.973 489.554 155.446 482.384 158.073C482.029 158.215 481.816 158.605 481.958 158.996C482.064 159.28 482.348 159.457 482.632 159.457Z" fill="black" fill-opacity="0.2"/>
<path d="M460.552 237.234H574.004C574.395 237.234 574.714 236.914 574.714 236.524V185.833C574.714 185.442 574.395 185.123 574.004 185.123C573.614 185.123 573.294 185.442 573.294 185.833V235.814H461.298L464.706 158.783C464.706 158.393 464.422 158.073 464.031 158.038H463.996C463.605 158.038 463.321 158.322 463.286 158.712L459.842 236.488C459.842 236.666 459.913 236.879 460.055 237.021C460.162 237.163 460.339 237.234 460.552 237.234Z" fill="#11162B"/>
<path d="M460.552 237.234H574.004C574.395 237.234 574.714 236.914 574.714 236.524V185.833C574.714 185.442 574.395 185.123 574.004 185.123C573.614 185.123 573.294 185.442 573.294 185.833V235.814H461.298L464.706 158.783C464.706 158.393 464.422 158.073 464.031 158.038H463.996C463.605 158.038 463.321 158.322 463.286 158.712L459.842 236.488C459.842 236.666 459.913 236.879 460.055 237.021C460.162 237.163 460.339 237.234 460.552 237.234Z" fill="black" fill-opacity="0.2"/>
<path d="M474.255 162.333C474.432 162.333 474.574 162.262 474.716 162.155C474.893 162.013 474.964 161.8 474.964 161.552L474.29 151.896C474.255 151.506 473.935 151.222 473.545 151.222C473.154 151.257 472.87 151.577 472.87 151.967L473.474 160.664L431.905 150.618L424.202 83.0655L468.93 92.5435L470.953 119.735C470.989 120.125 471.308 120.409 471.699 120.374C472.089 120.338 472.373 120.019 472.338 119.629L470.243 91.9045C470.208 91.585 469.995 91.3366 469.675 91.2656L423.492 81.5036C423.279 81.4681 423.031 81.5036 422.853 81.6811C422.676 81.8231 422.605 82.0715 422.64 82.2845L430.521 151.293C430.556 151.577 430.769 151.825 431.053 151.896L474.042 162.297C474.148 162.333 474.219 162.333 474.255 162.333Z" fill="#11162B"/>
<path d="M474.255 162.333C474.432 162.333 474.574 162.262 474.716 162.155C474.893 162.013 474.964 161.8 474.964 161.552L474.29 151.896C474.255 151.506 473.935 151.222 473.545 151.222C473.154 151.257 472.87 151.577 472.87 151.967L473.474 160.664L431.905 150.618L424.202 83.0655L468.93 92.5435L470.953 119.735C470.989 120.125 471.308 120.409 471.699 120.374C472.089 120.338 472.373 120.019 472.338 119.629L470.243 91.9045C470.208 91.585 469.995 91.3366 469.675 91.2656L423.492 81.5036C423.279 81.4681 423.031 81.5036 422.853 81.6811C422.676 81.8231 422.605 82.0715 422.64 82.2845L430.521 151.293C430.556 151.577 430.769 151.825 431.053 151.896L474.042 162.297C474.148 162.333 474.219 162.333 474.255 162.333Z" fill="black" fill-opacity="0.2"/>
<path d="M544.505 153.849C551.676 153.849 556.965 151.896 560.266 148.027C566.869 140.324 563.177 127.971 563 127.438C562.893 127.048 562.503 126.87 562.112 126.977C561.722 127.083 561.544 127.474 561.651 127.864C561.686 127.971 565.272 140.004 559.201 147.104C555.19 151.79 547.878 153.387 537.441 151.861C519.905 149.305 506.451 141.957 498.287 136.206C490.122 130.526 485.436 125.273 484.655 124.385C484.194 122.539 480.467 108.376 470.953 109.299C470.563 109.334 470.279 109.689 470.314 110.044C470.634 113.913 471.06 119.841 471.166 122.291C469.001 121.119 464.173 118.706 459.771 116.718C451.181 112.777 445.75 110.967 443.584 111.357C442.768 111.499 442.448 111.925 442.271 112.245C441.667 113.523 442.981 114.907 443.442 115.369C445.253 117.25 449.015 119.841 454.66 123.001C456.896 124.243 458.919 125.308 460.197 125.983C462.824 127.332 462.824 127.332 463.179 127.19L462.931 126.515L463.215 125.876C461.085 124.953 444.933 116.576 443.655 113.168C443.62 113.097 443.584 112.919 443.62 112.813C443.655 112.777 444.969 111.57 457.748 117.321C464.457 120.338 470.918 123.711 471.45 124.03C471.663 124.172 471.947 124.208 472.196 124.101C472.764 123.853 472.764 123.817 472.267 116.647C472.089 114.233 471.912 111.854 471.841 110.683C480.041 110.683 483.307 124.74 483.342 124.882C483.378 124.989 483.413 125.095 483.484 125.166C483.697 125.415 488.418 131.023 497.435 137.307C505.741 143.128 519.408 150.618 537.228 153.21C539.855 153.671 542.269 153.849 544.505 153.849Z" fill="#11162B"/>
<path d="M544.505 153.849C551.676 153.849 556.965 151.896 560.266 148.027C566.869 140.324 563.177 127.971 563 127.438C562.893 127.048 562.503 126.87 562.112 126.977C561.722 127.083 561.544 127.474 561.651 127.864C561.686 127.971 565.272 140.004 559.201 147.104C555.19 151.79 547.878 153.387 537.441 151.861C519.905 149.305 506.451 141.957 498.287 136.206C490.122 130.526 485.436 125.273 484.655 124.385C484.194 122.539 480.467 108.376 470.953 109.299C470.563 109.334 470.279 109.689 470.314 110.044C470.634 113.913 471.06 119.841 471.166 122.291C469.001 121.119 464.173 118.706 459.771 116.718C451.181 112.777 445.75 110.967 443.584 111.357C442.768 111.499 442.448 111.925 442.271 112.245C441.667 113.523 442.981 114.907 443.442 115.369C445.253 117.25 449.015 119.841 454.66 123.001C456.896 124.243 458.919 125.308 460.197 125.983C462.824 127.332 462.824 127.332 463.179 127.19L462.931 126.515L463.215 125.876C461.085 124.953 444.933 116.576 443.655 113.168C443.62 113.097 443.584 112.919 443.62 112.813C443.655 112.777 444.969 111.57 457.748 117.321C464.457 120.338 470.918 123.711 471.45 124.03C471.663 124.172 471.947 124.208 472.196 124.101C472.764 123.853 472.764 123.817 472.267 116.647C472.089 114.233 471.912 111.854 471.841 110.683C480.041 110.683 483.307 124.74 483.342 124.882C483.378 124.989 483.413 125.095 483.484 125.166C483.697 125.415 488.418 131.023 497.435 137.307C505.741 143.128 519.408 150.618 537.228 153.21C539.855 153.671 542.269 153.849 544.505 153.849Z" fill="black" fill-opacity="0.2"/>
<path d="M539.074 420.724C539.465 420.724 539.749 420.44 539.784 420.049C539.82 419.481 542.375 362.4 542.02 337.09C541.665 311.922 569.673 237.553 569.922 236.808C570.064 236.453 569.886 236.027 569.496 235.885C569.141 235.743 568.715 235.92 568.573 236.311C567.402 239.364 540.21 311.673 540.565 337.126C540.92 360.909 538.648 412.772 538.364 419.339L500.452 419.126V243.943C500.452 243.553 500.133 243.233 499.742 243.233C499.352 243.233 499.032 243.553 499.032 243.943V419.765C499.032 420.156 499.352 420.475 499.742 420.475L539.074 420.724Z" fill="#11162B"/>
<path d="M539.074 420.724C539.465 420.724 539.749 420.44 539.784 420.049C539.82 419.481 542.375 362.4 542.02 337.09C541.665 311.922 569.673 237.553 569.922 236.808C570.064 236.453 569.886 236.027 569.496 235.885C569.141 235.743 568.715 235.92 568.573 236.311C567.402 239.364 540.21 311.673 540.565 337.126C540.92 360.909 538.648 412.772 538.364 419.339L500.452 419.126V243.943C500.452 243.553 500.133 243.233 499.742 243.233C499.352 243.233 499.032 243.553 499.032 243.943V419.765C499.032 420.156 499.352 420.475 499.742 420.475L539.074 420.724Z" fill="black" fill-opacity="0.2"/>
<path d="M499.778 369.145C500.168 369.145 500.488 368.825 500.488 368.435C500.488 367.476 498.5 365.666 488.347 356.827C484.904 353.81 480.999 350.437 476.562 346.497C465.557 336.735 465.593 271.916 465.593 247.528C465.593 236.843 465.557 236.453 465.238 236.063C464.989 235.743 464.528 235.708 464.244 235.956C463.996 236.169 463.925 236.489 464.031 236.772C464.173 237.482 464.173 241.92 464.173 247.493C464.173 274.4 464.138 337.339 475.603 347.527C480.041 351.467 483.945 354.839 487.389 357.856C493.636 363.288 498.571 367.583 499.032 368.506C499.103 368.896 499.423 369.145 499.778 369.145Z" fill="#11162B"/>
<path d="M499.778 369.145C500.168 369.145 500.488 368.825 500.488 368.435C500.488 367.476 498.5 365.666 488.347 356.827C484.904 353.81 480.999 350.437 476.562 346.497C465.557 336.735 465.593 271.916 465.593 247.528C465.593 236.843 465.557 236.453 465.238 236.063C464.989 235.743 464.528 235.708 464.244 235.956C463.996 236.169 463.925 236.489 464.031 236.772C464.173 237.482 464.173 241.92 464.173 247.493C464.173 274.4 464.138 337.339 475.603 347.527C480.041 351.467 483.945 354.839 487.389 357.856C493.636 363.288 498.571 367.583 499.032 368.506C499.103 368.896 499.423 369.145 499.778 369.145Z" fill="black" fill-opacity="0.2"/>
<path d="M551.392 410.713C551.569 410.713 551.711 410.642 551.853 410.535C551.924 410.465 558.775 404.359 565.556 398.324C569.531 394.774 572.691 391.935 574.927 389.876C579.613 385.616 579.613 385.616 579.258 385.012C579.187 384.87 579.045 384.764 578.903 384.728C576.986 383.024 555.794 355.158 541.843 336.664C541.594 336.344 541.168 336.273 540.849 336.522C540.529 336.77 540.458 337.196 540.707 337.516C540.813 337.622 549.936 349.798 559.095 361.761C564.455 368.79 568.75 374.363 571.91 378.374C575.211 382.599 576.773 384.551 577.625 385.438C574.963 388.03 561.118 400.454 551.427 409.045L540.529 397.863C540.245 397.579 539.819 397.579 539.535 397.863C539.251 398.147 539.251 398.573 539.535 398.857L550.895 410.535C551.001 410.642 551.179 410.713 551.392 410.713ZM578.512 384.657C578.477 384.657 578.441 384.657 578.406 384.693C578.441 384.657 578.477 384.657 578.512 384.657Z" fill="#11162B"/>
<path d="M551.392 410.713C551.569 410.713 551.711 410.642 551.853 410.535C551.924 410.465 558.775 404.359 565.556 398.324C569.531 394.774 572.691 391.935 574.927 389.876C579.613 385.616 579.613 385.616 579.258 385.012C579.187 384.87 579.045 384.764 578.903 384.728C576.986 383.024 555.794 355.158 541.843 336.664C541.594 336.344 541.168 336.273 540.849 336.522C540.529 336.77 540.458 337.196 540.707 337.516C540.813 337.622 549.936 349.798 559.095 361.761C564.455 368.79 568.75 374.363 571.91 378.374C575.211 382.599 576.773 384.551 577.625 385.438C574.963 388.03 561.118 400.454 551.427 409.045L540.529 397.863C540.245 397.579 539.819 397.579 539.535 397.863C539.251 398.147 539.251 398.573 539.535 398.857L550.895 410.535C551.001 410.642 551.179 410.713 551.392 410.713ZM578.512 384.657C578.477 384.657 578.441 384.657 578.406 384.693C578.441 384.657 578.477 384.657 578.512 384.657Z" fill="black" fill-opacity="0.2"/>
<path d="M465.309 446.992H535.844C536.234 446.992 536.554 446.673 536.554 446.282V420.191C536.554 419.8 536.234 419.481 535.844 419.481C535.453 419.481 535.134 419.8 535.134 420.191V445.572H465.877C465.77 444.72 465.77 442.981 466.977 440.993C469.072 437.585 473.97 435.1 481.141 433.787C499.813 430.343 508.084 420.759 508.439 420.333C508.688 420.049 508.652 419.588 508.368 419.339C508.084 419.091 507.623 419.126 507.374 419.41C507.303 419.517 499.032 429.03 480.928 432.367C473.225 433.787 468.149 436.449 465.806 440.283C463.818 443.513 464.634 446.353 464.67 446.495C464.705 446.779 464.989 446.992 465.309 446.992Z" fill="#11162B"/>
<path d="M465.309 446.992H535.844C536.234 446.992 536.554 446.673 536.554 446.282V420.191C536.554 419.8 536.234 419.481 535.844 419.481C535.453 419.481 535.134 419.8 535.134 420.191V445.572H465.877C465.77 444.72 465.77 442.981 466.977 440.993C469.072 437.585 473.97 435.1 481.141 433.787C499.813 430.343 508.084 420.759 508.439 420.333C508.688 420.049 508.652 419.588 508.368 419.339C508.084 419.091 507.623 419.126 507.374 419.41C507.303 419.517 499.032 429.03 480.928 432.367C473.225 433.787 468.149 436.449 465.806 440.283C463.818 443.513 464.634 446.353 464.67 446.495C464.705 446.779 464.989 446.992 465.309 446.992Z" fill="black" fill-opacity="0.2"/>
<path d="M228.537 445.998H299.071C299.462 445.998 299.781 445.679 299.781 445.288V413.624C299.781 413.234 299.462 412.914 299.071 412.914C298.681 412.914 298.361 413.234 298.361 413.624V444.578H229.105C228.998 443.726 228.998 441.987 230.205 439.999C232.3 436.591 237.198 434.106 244.369 432.793C263.005 429.35 276.637 414.405 276.743 414.263C276.992 413.979 276.992 413.518 276.672 413.269C276.388 413.021 275.927 413.021 275.678 413.34C275.536 413.482 262.26 428.072 244.085 431.444C236.382 432.864 231.306 435.526 228.963 439.36C226.975 442.59 227.791 445.43 227.827 445.572C227.933 445.785 228.217 445.998 228.537 445.998Z" fill="#11162B"/>
<path d="M228.537 445.998H299.071C299.462 445.998 299.781 445.679 299.781 445.288V413.624C299.781 413.234 299.462 412.914 299.071 412.914C298.681 412.914 298.361 413.234 298.361 413.624V444.578H229.105C228.998 443.726 228.998 441.987 230.205 439.999C232.3 436.591 237.198 434.106 244.369 432.793C263.005 429.35 276.637 414.405 276.743 414.263C276.992 413.979 276.992 413.518 276.672 413.269C276.388 413.021 275.927 413.021 275.678 413.34C275.536 413.482 262.26 428.072 244.085 431.444C236.382 432.864 231.306 435.526 228.963 439.36C226.975 442.59 227.791 445.43 227.827 445.572C227.933 445.785 228.217 445.998 228.537 445.998Z" fill="black" fill-opacity="0.2"/>
<path d="M145.4 445.998H215.935C216.325 445.998 216.645 445.679 216.645 445.288V413.624C216.645 413.234 216.325 412.914 215.935 412.914C215.544 412.914 215.225 413.234 215.225 413.624V444.578H145.968C145.862 443.726 145.862 441.987 147.069 439.999C149.163 436.591 154.062 434.106 161.232 432.793C179.869 429.35 193.5 414.405 193.607 414.263C193.855 413.979 193.855 413.518 193.535 413.269C193.251 413.021 192.79 413.021 192.542 413.34C192.4 413.482 179.123 428.072 160.948 431.444C153.245 432.864 148.169 435.526 145.826 439.36C143.838 442.59 144.655 445.43 144.69 445.572C144.832 445.785 145.116 445.998 145.4 445.998Z" fill="#11162B"/>
<path d="M145.4 445.998H215.935C216.325 445.998 216.645 445.679 216.645 445.288V413.624C216.645 413.234 216.325 412.914 215.935 412.914C215.544 412.914 215.225 413.234 215.225 413.624V444.578H145.968C145.862 443.726 145.862 441.987 147.069 439.999C149.163 436.591 154.062 434.106 161.232 432.793C179.869 429.35 193.5 414.405 193.607 414.263C193.855 413.979 193.855 413.518 193.535 413.269C193.251 413.021 192.79 413.021 192.542 413.34C192.4 413.482 179.123 428.072 160.948 431.444C153.245 432.864 148.169 435.526 145.826 439.36C143.838 442.59 144.655 445.43 144.69 445.572C144.832 445.785 145.116 445.998 145.4 445.998Z" fill="black" fill-opacity="0.2"/>
<path d="M540.032 446.992H554.303C569.709 446.992 595.977 411.92 597.078 410.429C597.291 410.145 597.255 409.79 597.042 409.542L576.773 387.178C576.524 386.894 576.063 386.858 575.779 387.142C575.495 387.391 575.46 387.852 575.743 388.136L595.587 410.039C592.392 414.263 568.076 445.572 554.303 445.572H540.707C540.813 443.407 542.091 436.591 553.167 433.751C553.38 433.716 553.522 433.574 553.628 433.361C554.019 432.544 563.177 413.517 559.982 402.691C559.876 402.3 559.485 402.087 559.095 402.194C558.704 402.3 558.491 402.691 558.598 403.081C561.438 412.665 553.628 429.989 552.457 432.438C538.612 436.094 539.251 446.211 539.251 446.318C539.322 446.708 539.642 446.992 540.032 446.992Z" fill="#11162B"/>
<path d="M540.032 446.992H554.303C569.709 446.992 595.977 411.92 597.078 410.429C597.291 410.145 597.255 409.79 597.042 409.542L576.773 387.178C576.524 386.894 576.063 386.858 575.779 387.142C575.495 387.391 575.46 387.852 575.743 388.136L595.587 410.039C592.392 414.263 568.076 445.572 554.303 445.572H540.707C540.813 443.407 542.091 436.591 553.167 433.751C553.38 433.716 553.522 433.574 553.628 433.361C554.019 432.544 563.177 413.517 559.982 402.691C559.876 402.3 559.485 402.087 559.095 402.194C558.704 402.3 558.491 402.691 558.598 403.081C561.438 412.665 553.628 429.989 552.457 432.438C538.612 436.094 539.251 446.211 539.251 446.318C539.322 446.708 539.642 446.992 540.032 446.992Z" fill="black" fill-opacity="0.2"/>
<path d="M297.261 214.089C297.616 214.089 297.9 213.841 297.971 213.486C297.971 213.415 298.965 207.025 303.047 171.421C304.716 156.795 311.531 146.643 323.317 141.283C332.12 137.271 340.604 137.555 340.675 137.555C340.853 137.555 341.066 137.484 341.208 137.342C341.35 137.2 341.421 137.023 341.421 136.845V127.58C341.421 127.19 341.101 126.87 340.711 126.87H332.049C330.487 126.87 329.209 126.232 328.073 124.954C320.69 116.47 325.091 84.2018 325.162 83.8468C325.162 83.8113 325.162 83.8113 325.162 83.7758C325.198 83.2433 325.943 70.8545 341.882 70.8545C341.953 70.8545 342.024 70.8545 342.095 70.8545C359.383 70.961 363.607 71.245 367.334 77.5991C371.203 84.1663 367.583 103.903 367.547 104.116C367.476 104.507 367.725 104.862 368.115 104.933C368.506 105.004 368.861 104.755 368.932 104.365C369.074 103.548 372.694 83.8823 368.541 76.8892C364.246 69.5766 359.099 69.5411 342.095 69.4346C342.024 69.4346 341.953 69.4346 341.882 69.4346C325.056 69.4346 323.814 82.8173 323.743 83.6693C323.494 85.3377 319.27 116.967 327.008 125.877C328.393 127.474 330.097 128.29 332.049 128.29H340.001V136.135C337.693 136.135 330.487 136.455 322.784 139.969C314.336 143.803 303.828 152.358 301.663 171.279C297.58 206.812 296.587 213.237 296.587 213.273C296.516 213.663 296.799 214.018 297.19 214.089C297.19 214.089 297.225 214.089 297.261 214.089Z" fill="#11162B"/>
<path d="M297.261 214.089C297.616 214.089 297.9 213.841 297.971 213.486C297.971 213.415 298.965 207.025 303.047 171.421C304.716 156.795 311.531 146.643 323.317 141.283C332.12 137.271 340.604 137.555 340.675 137.555C340.853 137.555 341.066 137.484 341.208 137.342C341.35 137.2 341.421 137.023 341.421 136.845V127.58C341.421 127.19 341.101 126.87 340.711 126.87H332.049C330.487 126.87 329.209 126.232 328.073 124.954C320.69 116.47 325.091 84.2018 325.162 83.8468C325.162 83.8113 325.162 83.8113 325.162 83.7758C325.198 83.2433 325.943 70.8545 341.882 70.8545C341.953 70.8545 342.024 70.8545 342.095 70.8545C359.383 70.961 363.607 71.245 367.334 77.5991C371.203 84.1663 367.583 103.903 367.547 104.116C367.476 104.507 367.725 104.862 368.115 104.933C368.506 105.004 368.861 104.755 368.932 104.365C369.074 103.548 372.694 83.8823 368.541 76.8892C364.246 69.5766 359.099 69.5411 342.095 69.4346C342.024 69.4346 341.953 69.4346 341.882 69.4346C325.056 69.4346 323.814 82.8173 323.743 83.6693C323.494 85.3377 319.27 116.967 327.008 125.877C328.393 127.474 330.097 128.29 332.049 128.29H340.001V136.135C337.693 136.135 330.487 136.455 322.784 139.969C314.336 143.803 303.828 152.358 301.663 171.279C297.58 206.812 296.587 213.237 296.587 213.273C296.516 213.663 296.799 214.018 297.19 214.089C297.19 214.089 297.225 214.089 297.261 214.089Z" fill="black" fill-opacity="0.2"/>
<path d="M391.402 214.906C391.437 214.906 391.508 214.906 391.544 214.906C391.934 214.835 392.183 214.444 392.076 214.054L382.243 169.503C382.172 169.113 381.782 168.865 381.392 168.971C381.001 169.042 380.753 169.432 380.859 169.823L390.692 214.373C390.799 214.693 391.083 214.906 391.402 214.906Z" fill="#11162B"/>
<path d="M391.402 214.906C391.437 214.906 391.508 214.906 391.544 214.906C391.934 214.835 392.183 214.444 392.076 214.054L382.243 169.503C382.172 169.113 381.782 168.865 381.392 168.971C381.001 169.042 380.753 169.432 380.859 169.823L390.692 214.373C390.799 214.693 391.083 214.906 391.402 214.906Z" fill="black" fill-opacity="0.2"/>
<path d="M314.797 234.429C314.939 234.429 315.117 234.394 315.259 234.287C327.115 224.738 338.155 231.66 338.261 231.731C338.439 231.838 338.652 231.873 338.829 231.838L386.077 219.094C386.326 219.023 386.503 218.845 386.574 218.597C387.675 214.657 391.189 212.03 391.224 211.994C391.544 211.746 391.615 211.32 391.366 211C391.118 210.681 390.692 210.61 390.373 210.858C390.231 210.965 386.645 213.663 385.332 217.816L338.723 230.382C336.841 229.317 325.908 223.851 314.336 233.187C314.016 233.435 313.981 233.897 314.229 234.181C314.407 234.358 314.584 234.429 314.797 234.429Z" fill="#11162B"/>
<path d="M314.797 234.429C314.939 234.429 315.117 234.394 315.259 234.287C327.115 224.738 338.155 231.66 338.261 231.731C338.439 231.838 338.652 231.873 338.829 231.838L386.077 219.094C386.326 219.023 386.503 218.845 386.574 218.597C387.675 214.657 391.189 212.03 391.224 211.994C391.544 211.746 391.615 211.32 391.366 211C391.118 210.681 390.692 210.61 390.373 210.858C390.231 210.965 386.645 213.663 385.332 217.816L338.723 230.382C336.841 229.317 325.908 223.851 314.336 233.187C314.016 233.435 313.981 233.897 314.229 234.181C314.407 234.358 314.584 234.429 314.797 234.429Z" fill="black" fill-opacity="0.2"/>
<path d="M370.032 248.167C370.423 248.167 370.742 247.848 370.742 247.457C370.92 233.577 363.11 224.667 362.755 224.312C362.507 224.028 362.045 223.993 361.761 224.241C361.477 224.49 361.442 224.951 361.69 225.235C361.761 225.306 369.464 234.11 369.287 247.422C369.322 247.848 369.642 248.167 370.032 248.167Z" fill="#11162B"/>
<path d="M370.032 248.167C370.423 248.167 370.742 247.848 370.742 247.457C370.92 233.577 363.11 224.667 362.755 224.312C362.507 224.028 362.045 223.993 361.761 224.241C361.477 224.49 361.442 224.951 361.69 225.235C361.761 225.306 369.464 234.11 369.287 247.422C369.322 247.848 369.642 248.167 370.032 248.167Z" fill="black" fill-opacity="0.2"/>
<path d="M256.687 242.026C257.077 242.026 257.397 241.706 257.397 241.316C257.539 234.394 254.734 227.614 254.628 227.33C254.486 226.975 254.06 226.797 253.705 226.939C253.35 227.081 253.172 227.507 253.314 227.862C253.35 227.933 256.119 234.678 255.977 241.28C255.977 241.671 256.296 241.99 256.687 242.026Z" fill="#11162B"/>
<path d="M256.687 242.026C257.077 242.026 257.397 241.706 257.397 241.316C257.539 234.394 254.734 227.614 254.628 227.33C254.486 226.975 254.06 226.797 253.705 226.939C253.35 227.081 253.172 227.507 253.314 227.862C253.35 227.933 256.119 234.678 255.977 241.28C255.977 241.671 256.296 241.99 256.687 242.026Z" fill="black" fill-opacity="0.2"/>
<path d="M311.389 231.448C311.744 231.448 312.064 231.199 312.099 230.844L320.193 166.877C320.228 166.486 319.98 166.131 319.589 166.096C319.199 166.06 318.844 166.309 318.808 166.699L310.715 230.667C310.679 231.057 310.928 231.412 311.318 231.448C311.354 231.448 311.354 231.448 311.389 231.448Z" fill="#11162B"/>
<path d="M311.389 231.448C311.744 231.448 312.064 231.199 312.099 230.844L320.193 166.877C320.228 166.486 319.98 166.131 319.589 166.096C319.199 166.06 318.844 166.309 318.808 166.699L310.715 230.667C310.679 231.057 310.928 231.412 311.318 231.448C311.354 231.448 311.354 231.448 311.389 231.448Z" fill="black" fill-opacity="0.2"/>
<path d="M307.094 248.38L309.934 248.345C310.324 248.345 310.644 248.025 310.644 247.635C310.644 247.244 310.324 246.925 309.934 246.925L307.129 246.96C305.781 246.96 304.929 246.712 304.787 246.215C304.077 244.156 310.679 237.873 315.578 234.075C315.897 233.826 315.933 233.4 315.684 233.081C315.436 232.761 315.01 232.726 314.691 232.974C312.596 234.607 302.16 242.985 303.438 246.712C303.757 247.812 305 248.38 307.094 248.38Z" fill="#11162B"/>
<path d="M307.094 248.38L309.934 248.345C310.324 248.345 310.644 248.025 310.644 247.635C310.644 247.244 310.324 246.925 309.934 246.925L307.129 246.96C305.781 246.96 304.929 246.712 304.787 246.215C304.077 244.156 310.679 237.873 315.578 234.075C315.897 233.826 315.933 233.4 315.684 233.081C315.436 232.761 315.01 232.726 314.691 232.974C312.596 234.607 302.16 242.985 303.438 246.712C303.757 247.812 305 248.38 307.094 248.38Z" fill="black" fill-opacity="0.2"/>
<path d="M312.099 248.664C312.49 248.664 312.809 248.345 312.809 247.954C312.809 247.564 312.49 247.244 312.099 247.244C310.644 247.244 309.721 246.96 309.579 246.428C308.94 243.872 318.879 235.92 320.264 235.139C320.548 235.033 320.725 234.784 320.725 234.465C320.725 234.074 320.406 233.755 320.015 233.755C319.27 233.755 314.513 237.873 313.874 238.441C310.076 241.848 308.159 244.475 308.159 246.215C308.123 247.351 308.833 248.664 312.099 248.664Z" fill="#11162B"/>
<path d="M312.099 248.664C312.49 248.664 312.809 248.345 312.809 247.954C312.809 247.564 312.49 247.244 312.099 247.244C310.644 247.244 309.721 246.96 309.579 246.428C308.94 243.872 318.879 235.92 320.264 235.139C320.548 235.033 320.725 234.784 320.725 234.465C320.725 234.074 320.406 233.755 320.015 233.755C319.27 233.755 314.513 237.873 313.874 238.441C310.076 241.848 308.159 244.475 308.159 246.215C308.123 247.351 308.833 248.664 312.099 248.664Z" fill="black" fill-opacity="0.2"/>
<path d="M314.584 249.197C315.578 249.197 319.057 248.7 325.056 242.736C325.34 242.452 325.34 242.026 325.056 241.742C324.772 241.458 324.346 241.458 324.062 241.742C317.779 247.99 314.549 247.777 314.513 247.777C314.087 247.741 313.981 247.67 313.981 247.67C313.981 247.67 313.661 246.534 319.092 241.565C321.968 238.938 324.985 236.595 325.021 236.595C325.34 236.346 325.375 235.92 325.163 235.601C324.914 235.281 324.488 235.246 324.169 235.459C324.133 235.494 321.116 237.837 318.205 240.464C312.738 245.434 312.383 247.138 312.667 248.061C312.809 248.522 313.235 249.09 314.407 249.161C314.407 249.197 314.478 249.197 314.584 249.197Z" fill="#11162B"/>
<path d="M314.584 249.197C315.578 249.197 319.057 248.7 325.056 242.736C325.34 242.452 325.34 242.026 325.056 241.742C324.772 241.458 324.346 241.458 324.062 241.742C317.779 247.99 314.549 247.777 314.513 247.777C314.087 247.741 313.981 247.67 313.981 247.67C313.981 247.67 313.661 246.534 319.092 241.565C321.968 238.938 324.985 236.595 325.021 236.595C325.34 236.346 325.375 235.92 325.163 235.601C324.914 235.281 324.488 235.246 324.169 235.459C324.133 235.494 321.116 237.837 318.205 240.464C312.738 245.434 312.383 247.138 312.667 248.061C312.809 248.522 313.235 249.09 314.407 249.161C314.407 249.197 314.478 249.197 314.584 249.197Z" fill="black" fill-opacity="0.2"/>
<path d="M397.792 248.664C408.654 248.664 417.919 248.522 421.327 248.132C424.273 247.812 426.474 246.605 427.858 244.582C430.556 240.712 429.278 235.246 429.207 234.997C429.101 234.536 419.481 186.436 412.133 160.806C409.009 149.979 400.738 142.347 388.136 138.762C379.617 136.348 371.984 136.526 370.281 136.597C363.855 129.887 362.613 115.156 362.4 111.499C363.713 111.606 366.163 111.535 367.796 110.151C368.896 109.228 369.429 107.879 369.393 106.139C369.358 104.719 368.825 103.548 367.796 102.696C365.346 100.637 360.767 100.992 359.241 101.17C358.034 99.0396 352.709 89.1357 353.312 83.2075C353.348 82.9945 353.277 82.817 353.135 82.675C352.993 82.533 352.815 82.4265 352.603 82.4265L324.559 81.894C324.169 81.894 323.849 82.2135 323.849 82.604C323.849 82.9945 324.169 83.314 324.559 83.314L351.857 83.8464C351.644 90.9816 357.963 101.844 358.247 102.305C358.389 102.554 358.673 102.696 358.957 102.66C359.028 102.66 364.459 101.808 366.873 103.832C367.583 104.435 367.938 105.216 367.973 106.246C368.009 107.524 367.654 108.482 366.873 109.121C365.133 110.612 361.832 110.08 361.797 110.08C361.584 110.044 361.371 110.115 361.193 110.257C361.016 110.399 360.945 110.612 360.945 110.825C360.98 111.606 361.584 129.994 369.5 137.91C369.642 138.052 369.855 138.123 370.032 138.123C370.103 138.123 378.552 137.591 387.746 140.217C399.992 143.696 407.731 150.796 410.713 161.268C418.061 186.862 427.681 234.891 427.752 235.388C427.787 235.459 428.959 240.499 426.616 243.872C425.445 245.54 423.599 246.499 421.078 246.818C411.245 247.954 348.84 246.818 348.201 246.818C348.13 246.818 348.094 246.818 348.023 246.818C347.952 246.818 345.716 247.244 335.173 247.031C325.091 246.818 323.672 243.517 323.672 243.481C323.565 243.126 323.139 242.913 322.784 243.055C322.429 243.162 322.216 243.588 322.323 243.978C322.465 244.404 324.062 248.238 335.137 248.487C344.935 248.7 347.739 248.345 348.236 248.274C350.579 248.203 377.061 248.664 397.792 248.664Z" fill="#11162B"/>
<path d="M397.792 248.664C408.654 248.664 417.919 248.522 421.327 248.132C424.273 247.812 426.474 246.605 427.858 244.582C430.556 240.712 429.278 235.246 429.207 234.997C429.101 234.536 419.481 186.436 412.133 160.806C409.009 149.979 400.738 142.347 388.136 138.762C379.617 136.348 371.984 136.526 370.281 136.597C363.855 129.887 362.613 115.156 362.4 111.499C363.713 111.606 366.163 111.535 367.796 110.151C368.896 109.228 369.429 107.879 369.393 106.139C369.358 104.719 368.825 103.548 367.796 102.696C365.346 100.637 360.767 100.992 359.241 101.17C358.034 99.0396 352.709 89.1357 353.312 83.2075C353.348 82.9945 353.277 82.817 353.135 82.675C352.993 82.533 352.815 82.4265 352.603 82.4265L324.559 81.894C324.169 81.894 323.849 82.2135 323.849 82.604C323.849 82.9945 324.169 83.314 324.559 83.314L351.857 83.8464C351.644 90.9816 357.963 101.844 358.247 102.305C358.389 102.554 358.673 102.696 358.957 102.66C359.028 102.66 364.459 101.808 366.873 103.832C367.583 104.435 367.938 105.216 367.973 106.246C368.009 107.524 367.654 108.482 366.873 109.121C365.133 110.612 361.832 110.08 361.797 110.08C361.584 110.044 361.371 110.115 361.193 110.257C361.016 110.399 360.945 110.612 360.945 110.825C360.98 111.606 361.584 129.994 369.5 137.91C369.642 138.052 369.855 138.123 370.032 138.123C370.103 138.123 378.552 137.591 387.746 140.217C399.992 143.696 407.731 150.796 410.713 161.268C418.061 186.862 427.681 234.891 427.752 235.388C427.787 235.459 428.959 240.499 426.616 243.872C425.445 245.54 423.599 246.499 421.078 246.818C411.245 247.954 348.84 246.818 348.201 246.818C348.13 246.818 348.094 246.818 348.023 246.818C347.952 246.818 345.716 247.244 335.173 247.031C325.091 246.818 323.672 243.517 323.672 243.481C323.565 243.126 323.139 242.913 322.784 243.055C322.429 243.162 322.216 243.588 322.323 243.978C322.465 244.404 324.062 248.238 335.137 248.487C344.935 248.7 347.739 248.345 348.236 248.274C350.579 248.203 377.061 248.664 397.792 248.664Z" fill="black" fill-opacity="0.2"/>
<path d="M300.988 241.884C301.947 241.884 303.012 241.458 304.112 240.606C307.307 238.157 312.809 236.169 312.845 236.169C313.2 236.027 313.413 235.636 313.271 235.246C313.129 234.891 312.738 234.678 312.348 234.82C312.099 234.891 306.597 236.879 303.225 239.47C302.231 240.251 301.308 240.571 300.598 240.429C300.243 240.358 299.994 240.18 299.817 240.038C309.508 228.111 320.335 230.773 320.477 230.809C320.867 230.915 321.258 230.667 321.329 230.312C321.435 229.921 321.187 229.531 320.832 229.46C320.725 229.424 308.691 226.442 298.361 239.612C298.184 239.825 298.148 240.145 298.29 240.393C298.326 240.429 298.965 241.529 300.314 241.813C300.562 241.884 300.775 241.884 300.988 241.884Z" fill="#11162B"/>
<path d="M300.988 241.884C301.947 241.884 303.012 241.458 304.112 240.606C307.307 238.157 312.809 236.169 312.845 236.169C313.2 236.027 313.413 235.636 313.271 235.246C313.129 234.891 312.738 234.678 312.348 234.82C312.099 234.891 306.597 236.879 303.225 239.47C302.231 240.251 301.308 240.571 300.598 240.429C300.243 240.358 299.994 240.18 299.817 240.038C309.508 228.111 320.335 230.773 320.477 230.809C320.867 230.915 321.258 230.667 321.329 230.312C321.435 229.921 321.187 229.531 320.832 229.46C320.725 229.424 308.691 226.442 298.361 239.612C298.184 239.825 298.148 240.145 298.29 240.393C298.326 240.429 298.965 241.529 300.314 241.813C300.562 241.884 300.775 241.884 300.988 241.884Z" fill="black" fill-opacity="0.2"/>
<path d="M295.415 248.38L305.284 248.167C305.674 248.167 305.994 247.848 305.994 247.457C305.994 247.067 305.674 246.747 305.284 246.747L295.451 246.96C289.913 246.96 289.38 245.86 289.345 245.647C288.919 243.765 297.013 238.76 304.716 235.246C305.071 235.068 305.213 234.678 305.071 234.287C304.893 233.932 304.503 233.79 304.112 233.932C304.077 233.968 299.888 235.885 295.877 238.228C288.244 242.665 287.677 244.759 287.961 245.966C288.244 247.635 290.658 248.38 295.415 248.38Z" fill="#11162B"/>
<path d="M295.415 248.38L305.284 248.167C305.674 248.167 305.994 247.848 305.994 247.457C305.994 247.067 305.674 246.747 305.284 246.747L295.451 246.96C289.913 246.96 289.38 245.86 289.345 245.647C288.919 243.765 297.013 238.76 304.716 235.246C305.071 235.068 305.213 234.678 305.071 234.287C304.893 233.932 304.503 233.79 304.112 233.932C304.077 233.968 299.888 235.885 295.877 238.228C288.244 242.665 287.677 244.759 287.961 245.966C288.244 247.635 290.658 248.38 295.415 248.38Z" fill="black" fill-opacity="0.2"/>
<path d="M296.906 244.688C296.906 244.688 296.942 244.688 296.906 244.688C297.297 244.688 297.545 244.404 297.616 244.085C297.936 243.659 299.781 242.629 301.734 241.777C302.089 241.635 302.266 241.209 302.089 240.854C301.947 240.499 301.521 240.322 301.166 240.499C296.125 242.665 296.161 243.659 296.196 244.014C296.232 244.404 296.516 244.688 296.906 244.688Z" fill="#11162B"/>
<path d="M296.906 244.688C296.906 244.688 296.942 244.688 296.906 244.688C297.297 244.688 297.545 244.404 297.616 244.085C297.936 243.659 299.781 242.629 301.734 241.777C302.089 241.635 302.266 241.209 302.089 240.854C301.947 240.499 301.521 240.322 301.166 240.499C296.125 242.665 296.161 243.659 296.196 244.014C296.232 244.404 296.516 244.688 296.906 244.688Z" fill="black" fill-opacity="0.2"/>
<path d="M207.699 241.813H212.633C213.024 241.813 213.343 241.493 213.343 241.103C213.343 240.712 213.024 240.393 212.633 240.393H208.942C210.539 237.731 214.728 230.844 217.568 227.507C220.372 224.241 223.176 224.809 224.099 224.987C224.419 225.058 224.774 225.129 225.058 224.809C225.342 224.525 225.306 224.064 225.058 223.815C224.916 223.673 224.703 223.602 224.49 223.602C224.454 223.602 224.419 223.602 224.383 223.567C221.366 222.963 218.739 223.993 216.503 226.549C212.846 230.773 207.309 240.286 207.096 240.712C206.954 240.925 206.954 241.209 207.096 241.422C207.238 241.671 207.451 241.813 207.699 241.813Z" fill="#11162B"/>
<path d="M207.699 241.813H212.633C213.024 241.813 213.343 241.493 213.343 241.103C213.343 240.712 213.024 240.393 212.633 240.393H208.942C210.539 237.731 214.728 230.844 217.568 227.507C220.372 224.241 223.176 224.809 224.099 224.987C224.419 225.058 224.774 225.129 225.058 224.809C225.342 224.525 225.306 224.064 225.058 223.815C224.916 223.673 224.703 223.602 224.49 223.602C224.454 223.602 224.419 223.602 224.383 223.567C221.366 222.963 218.739 223.993 216.503 226.549C212.846 230.773 207.309 240.286 207.096 240.712C206.954 240.925 206.954 241.209 207.096 241.422C207.238 241.671 207.451 241.813 207.699 241.813Z" fill="black" fill-opacity="0.2"/>
<path d="M208.125 241.813C208.516 241.813 208.835 241.493 208.835 241.103C208.835 240.712 208.516 240.393 208.125 240.393H205.25C206.563 237.802 210.184 230.844 213.024 227.507C215.828 224.241 218.633 224.809 219.556 224.987C219.875 225.058 220.23 225.129 220.514 224.809C220.798 224.525 220.763 224.064 220.514 223.815C220.372 223.673 220.159 223.602 219.982 223.602C219.946 223.602 219.911 223.602 219.875 223.567C216.858 222.963 214.231 223.993 211.995 226.549C208.338 230.808 203.724 240.357 203.511 240.748C203.404 240.961 203.404 241.209 203.546 241.422C203.688 241.635 203.901 241.742 204.149 241.742L208.125 241.813Z" fill="#11162B"/>
<path d="M208.125 241.813C208.516 241.813 208.835 241.493 208.835 241.103C208.835 240.712 208.516 240.393 208.125 240.393H205.25C206.563 237.802 210.184 230.844 213.024 227.507C215.828 224.241 218.633 224.809 219.556 224.987C219.875 225.058 220.23 225.129 220.514 224.809C220.798 224.525 220.763 224.064 220.514 223.815C220.372 223.673 220.159 223.602 219.982 223.602C219.946 223.602 219.911 223.602 219.875 223.567C216.858 222.963 214.231 223.993 211.995 226.549C208.338 230.808 203.724 240.357 203.511 240.748C203.404 240.961 203.404 241.209 203.546 241.422C203.688 241.635 203.901 241.742 204.149 241.742L208.125 241.813Z" fill="black" fill-opacity="0.2"/>
<path d="M215.864 241.919L222.147 241.777C222.537 241.777 222.857 241.458 222.857 241.067C222.857 240.677 222.537 240.357 222.147 240.357L215.864 240.499C215.473 240.499 215.154 240.819 215.154 241.209C215.154 241.635 215.473 241.919 215.864 241.919Z" fill="#11162B"/>
<path d="M215.864 241.919L222.147 241.777C222.537 241.777 222.857 241.458 222.857 241.067C222.857 240.677 222.537 240.357 222.147 240.357L215.864 240.499C215.473 240.499 215.154 240.819 215.154 241.209C215.154 241.635 215.473 241.919 215.864 241.919Z" fill="black" fill-opacity="0.2"/>
<path d="M279.902 249.09C280.115 249.09 280.328 248.984 280.47 248.806C280.612 248.629 280.648 248.38 280.577 248.167L278.305 241.21C278.199 240.926 277.95 240.713 277.631 240.713L223.318 240.429C226.407 235.778 237.695 236.204 237.837 236.204C238.157 236.204 238.476 235.991 238.547 235.672C238.831 234.642 238.654 233.719 237.979 232.974C235.388 229.992 225.768 230.88 225.661 230.915C225.484 230.951 225.306 231.022 225.2 231.199C225.129 231.27 219.591 238.405 217 240.003C215.26 241.103 213.45 240.677 212.953 240.322C213.095 240.109 213.344 239.79 213.699 239.293C216.183 235.849 223.673 225.413 227.294 222.857C230.205 220.798 241.636 226.229 248.167 230.099C248.345 230.205 248.558 230.241 248.771 230.17L288.209 216.538C288.422 216.467 288.599 216.29 288.67 216.041C290.161 210.291 297.971 209.084 298.042 209.048C298.432 208.977 298.681 208.622 298.645 208.232C298.574 207.841 298.219 207.593 297.829 207.628C297.474 207.664 289.309 208.942 287.393 215.296L248.558 228.714C245.753 227.081 230.844 218.562 226.407 221.686C222.999 224.099 216.822 232.406 212.492 238.441C212.066 239.044 211.711 239.506 211.64 239.612C211.285 240.074 211.32 240.677 211.711 241.139C212.598 242.132 215.331 242.629 217.674 241.174C220.23 239.577 225.022 233.577 226.052 232.264C228.04 232.087 235.139 231.909 236.843 233.897C237.056 234.145 237.163 234.429 237.163 234.713C234.358 234.678 223.602 234.962 221.402 240.819C221.331 241.032 221.366 241.281 221.473 241.458C221.579 241.636 221.828 241.778 222.041 241.778L277.098 242.097L278.909 247.635L194.139 247.599L195.594 241.778H204.114C204.505 241.778 204.824 241.458 204.824 241.068C204.824 240.677 204.505 240.358 204.114 240.358H195.027C194.707 240.358 194.423 240.571 194.352 240.89L192.542 248.132C192.506 248.345 192.542 248.558 192.684 248.735C192.826 248.913 193.039 249.019 193.252 249.019L279.902 249.09Z" fill="#11162B"/>
<path d="M279.902 249.09C280.115 249.09 280.328 248.984 280.47 248.806C280.612 248.629 280.648 248.38 280.577 248.167L278.305 241.21C278.199 240.926 277.95 240.713 277.631 240.713L223.318 240.429C226.407 235.778 237.695 236.204 237.837 236.204C238.157 236.204 238.476 235.991 238.547 235.672C238.831 234.642 238.654 233.719 237.979 232.974C235.388 229.992 225.768 230.88 225.661 230.915C225.484 230.951 225.306 231.022 225.2 231.199C225.129 231.27 219.591 238.405 217 240.003C215.26 241.103 213.45 240.677 212.953 240.322C213.095 240.109 213.344 239.79 213.699 239.293C216.183 235.849 223.673 225.413 227.294 222.857C230.205 220.798 241.636 226.229 248.167 230.099C248.345 230.205 248.558 230.241 248.771 230.17L288.209 216.538C288.422 216.467 288.599 216.29 288.67 216.041C290.161 210.291 297.971 209.084 298.042 209.048C298.432 208.977 298.681 208.622 298.645 208.232C298.574 207.841 298.219 207.593 297.829 207.628C297.474 207.664 289.309 208.942 287.393 215.296L248.558 228.714C245.753 227.081 230.844 218.562 226.407 221.686C222.999 224.099 216.822 232.406 212.492 238.441C212.066 239.044 211.711 239.506 211.64 239.612C211.285 240.074 211.32 240.677 211.711 241.139C212.598 242.132 215.331 242.629 217.674 241.174C220.23 239.577 225.022 233.577 226.052 232.264C228.04 232.087 235.139 231.909 236.843 233.897C237.056 234.145 237.163 234.429 237.163 234.713C234.358 234.678 223.602 234.962 221.402 240.819C221.331 241.032 221.366 241.281 221.473 241.458C221.579 241.636 221.828 241.778 222.041 241.778L277.098 242.097L278.909 247.635L194.139 247.599L195.594 241.778H204.114C204.505 241.778 204.824 241.458 204.824 241.068C204.824 240.677 204.505 240.358 204.114 240.358H195.027C194.707 240.358 194.423 240.571 194.352 240.89L192.542 248.132C192.506 248.345 192.542 248.558 192.684 248.735C192.826 248.913 193.039 249.019 193.252 249.019L279.902 249.09Z" fill="black" fill-opacity="0.2"/>
<path d="M340.711 128.29H348.556C348.946 128.29 349.266 127.971 349.266 127.58C349.266 127.19 348.946 126.87 348.556 126.87H340.711C340.32 126.87 340.001 127.19 340.001 127.58C340.001 127.971 340.285 128.29 340.711 128.29Z" fill="#11162B"/>
<path d="M340.711 128.29H348.556C348.946 128.29 349.266 127.971 349.266 127.58C349.266 127.19 348.946 126.87 348.556 126.87H340.711C340.32 126.87 340.001 127.19 340.001 127.58C340.001 127.971 340.285 128.29 340.711 128.29Z" fill="black" fill-opacity="0.2"/>
<path d="M348.982 128.113L340.959 127.935L341.279 133.757C341.279 133.757 348.094 130.704 348.982 128.113Z" fill="#11162B"/>
<path d="M348.982 128.113L340.959 127.935L341.279 133.757C341.279 133.757 348.094 130.704 348.982 128.113Z" fill="black" fill-opacity="0.2"/>
<path d="M346.284 94.5312C346.461 94.5312 346.674 94.4602 346.816 94.3182C347.1 94.0342 347.065 93.5728 346.781 93.3243C346.71 93.2533 344.722 91.4074 342.592 92.2593C342.237 92.4013 342.06 92.8273 342.202 93.1823C342.344 93.5373 342.77 93.7148 343.125 93.5728C344.402 93.0758 345.822 94.3537 345.822 94.3537C345.929 94.4602 346.106 94.5312 346.284 94.5312Z" fill="#11162B"/>
<path d="M346.284 94.5312C346.461 94.5312 346.674 94.4602 346.816 94.3182C347.1 94.0342 347.065 93.5728 346.781 93.3243C346.71 93.2533 344.722 91.4074 342.592 92.2593C342.237 92.4013 342.06 92.8273 342.202 93.1823C342.344 93.5373 342.77 93.7148 343.125 93.5728C344.402 93.0758 345.822 94.3537 345.822 94.3537C345.929 94.4602 346.106 94.5312 346.284 94.5312Z" fill="black" fill-opacity="0.2"/>
<path d="M329.742 93.9991C329.848 93.9991 329.955 93.9636 330.026 93.9281C330.381 93.7861 330.558 93.3247 330.381 92.9697C330.31 92.7922 329.6 91.3723 326.937 91.3013C326.547 91.3013 326.228 91.5853 326.228 91.9757C326.228 92.3662 326.512 92.6857 326.902 92.6857C328.641 92.7212 329.067 93.5021 329.103 93.5021C329.209 93.8571 329.458 93.9991 329.742 93.9991Z" fill="#11162B"/>
<path d="M329.742 93.9991C329.848 93.9991 329.955 93.9636 330.026 93.9281C330.381 93.7861 330.558 93.3247 330.381 92.9697C330.31 92.7922 329.6 91.3723 326.937 91.3013C326.547 91.3013 326.228 91.5853 326.228 91.9757C326.228 92.3662 326.512 92.6857 326.902 92.6857C328.641 92.7212 329.067 93.5021 329.103 93.5021C329.209 93.8571 329.458 93.9991 329.742 93.9991Z" fill="black" fill-opacity="0.2"/>
<path d="M333.256 109.476C333.611 109.476 333.895 109.441 333.966 109.405C334.356 109.334 334.605 108.979 334.534 108.589C334.463 108.198 334.108 107.95 333.717 108.021C333.469 108.056 332.653 108.127 332.227 107.808C332.049 107.701 331.978 107.524 331.943 107.311C331.907 107.133 331.943 107.027 332.014 106.991C332.333 106.636 333.327 106.53 333.824 106.565C334.037 106.565 334.214 106.494 334.356 106.352C334.498 106.21 334.569 106.033 334.569 105.855V100.247C334.569 99.8561 334.25 99.5366 333.859 99.5366C333.469 99.5366 333.15 99.8561 333.15 100.247V105.181C332.475 105.252 331.517 105.429 330.984 106.068C330.629 106.459 330.487 106.991 330.558 107.559C330.665 108.163 330.949 108.66 331.41 108.979C332.014 109.405 332.724 109.476 333.256 109.476Z" fill="#11162B"/>
<path d="M333.256 109.476C333.611 109.476 333.895 109.441 333.966 109.405C334.356 109.334 334.605 108.979 334.534 108.589C334.463 108.198 334.108 107.95 333.717 108.021C333.469 108.056 332.653 108.127 332.227 107.808C332.049 107.701 331.978 107.524 331.943 107.311C331.907 107.133 331.943 107.027 332.014 106.991C332.333 106.636 333.327 106.53 333.824 106.565C334.037 106.565 334.214 106.494 334.356 106.352C334.498 106.21 334.569 106.033 334.569 105.855V100.247C334.569 99.8561 334.25 99.5366 333.859 99.5366C333.469 99.5366 333.15 99.8561 333.15 100.247V105.181C332.475 105.252 331.517 105.429 330.984 106.068C330.629 106.459 330.487 106.991 330.558 107.559C330.665 108.163 330.949 108.66 331.41 108.979C332.014 109.405 332.724 109.476 333.256 109.476Z" fill="black" fill-opacity="0.2"/>
<path d="M341.847 115.866C344.722 115.866 346.213 113.346 346.603 111.961C346.71 111.571 346.497 111.18 346.106 111.074C345.716 110.967 345.325 111.18 345.219 111.571C345.183 111.677 344.367 114.446 341.847 114.446C341.811 114.446 341.776 114.446 341.74 114.446C341.35 114.446 341.03 114.73 340.995 115.12C340.959 115.511 341.279 115.83 341.669 115.866C341.74 115.866 341.811 115.866 341.847 115.866Z" fill="#11162B"/>
<path d="M341.847 115.866C344.722 115.866 346.213 113.346 346.603 111.961C346.71 111.571 346.497 111.18 346.106 111.074C345.716 110.967 345.325 111.18 345.219 111.571C345.183 111.677 344.367 114.446 341.847 114.446C341.811 114.446 341.776 114.446 341.74 114.446C341.35 114.446 341.03 114.73 340.995 115.12C340.959 115.511 341.279 115.83 341.669 115.866C341.74 115.866 341.811 115.866 341.847 115.866Z" fill="black" fill-opacity="0.2"/>
<path d="M355.904 145.897C361.974 145.897 368.08 143.377 373.937 138.336C374.114 138.194 374.292 138.052 374.363 137.981C374.611 137.875 374.753 137.626 374.753 137.378C374.753 136.987 374.469 136.668 374.079 136.632C373.759 136.632 373.617 136.739 373.014 137.271C361.583 147.104 349.124 146.785 337.977 136.419C337.693 136.135 337.232 136.171 336.983 136.455C336.699 136.739 336.735 137.2 337.019 137.449C343.089 143.093 349.479 145.897 355.904 145.897Z" fill="#11162B"/>
<path d="M355.904 145.897C361.974 145.897 368.08 143.377 373.937 138.336C374.114 138.194 374.292 138.052 374.363 137.981C374.611 137.875 374.753 137.626 374.753 137.378C374.753 136.987 374.469 136.668 374.079 136.632C373.759 136.632 373.617 136.739 373.014 137.271C361.583 147.104 349.124 146.785 337.977 136.419C337.693 136.135 337.232 136.171 336.983 136.455C336.699 136.739 336.735 137.2 337.019 137.449C343.089 143.093 349.479 145.897 355.904 145.897Z" fill="black" fill-opacity="0.2"/>
<path d="M316.075 249.197L382.705 248.664C383.095 248.664 383.415 248.345 383.415 247.954C383.415 247.564 383.095 247.244 382.705 247.244L316.11 247.777C315.72 247.777 315.4 248.096 315.4 248.487C315.365 248.877 315.684 249.197 316.075 249.197Z" fill="#11162B"/>
<path d="M316.075 249.197L382.705 248.664C383.095 248.664 383.415 248.345 383.415 247.954C383.415 247.564 383.095 247.244 382.705 247.244L316.11 247.777C315.72 247.777 315.4 248.096 315.4 248.487C315.365 248.877 315.684 249.197 316.075 249.197Z" fill="black" fill-opacity="0.2"/>
<path d="M17.0036 256.651H458.245C458.635 256.651 458.955 256.367 458.955 255.977L459.274 247.706C459.274 247.528 459.203 247.315 459.061 247.173C458.919 247.031 458.742 246.96 458.564 246.96H417.848C417.458 246.96 417.138 247.28 417.138 247.67C417.138 248.061 417.458 248.38 417.848 248.38H457.819L457.57 255.231H17.7136V248.664L314.442 249.197C314.833 249.197 315.152 248.877 315.152 248.487C315.152 248.096 314.833 247.777 314.442 247.777L17.0036 247.28C16.8261 247.28 16.6486 247.351 16.5066 247.493C16.3646 247.635 16.2936 247.812 16.2936 247.99V255.941C16.2936 256.332 16.6131 256.651 17.0036 256.651Z" fill="#11162B"/>
<path d="M17.0036 256.651H458.245C458.635 256.651 458.955 256.367 458.955 255.977L459.274 247.706C459.274 247.528 459.203 247.315 459.061 247.173C458.919 247.031 458.742 246.96 458.564 246.96H417.848C417.458 246.96 417.138 247.28 417.138 247.67C417.138 248.061 417.458 248.38 417.848 248.38H457.819L457.57 255.231H17.7136V248.664L314.442 249.197C314.833 249.197 315.152 248.877 315.152 248.487C315.152 248.096 314.833 247.777 314.442 247.777L17.0036 247.28C16.8261 247.28 16.6486 247.351 16.5066 247.493C16.3646 247.635 16.2936 247.812 16.2936 247.99V255.941C16.2936 256.332 16.6131 256.651 17.0036 256.651Z" fill="black" fill-opacity="0.2"/>
<path d="M120.267 189.844H166.415C166.77 189.844 167.054 189.595 167.125 189.276L172.521 159.741H203.297L198.221 189.027C198.186 189.24 198.257 189.453 198.363 189.595C198.505 189.773 198.683 189.844 198.896 189.844H275.004C275.217 189.844 275.394 189.737 275.536 189.595C275.678 189.453 275.714 189.24 275.714 189.027L258.781 84.0239C258.71 83.6689 258.426 83.4204 258.071 83.4204H102.873C102.66 83.4204 102.483 83.5269 102.341 83.6689C102.199 83.8109 102.163 84.0239 102.199 84.2369L119.593 189.24C119.629 189.595 119.913 189.844 120.267 189.844ZM165.812 188.424H120.871L103.725 84.8403H257.468L274.187 188.424H199.748L204.824 159.138C204.859 158.925 204.788 158.712 204.682 158.57C204.54 158.392 204.362 158.321 204.149 158.321H171.953C171.598 158.321 171.314 158.57 171.243 158.889L165.812 188.424Z" fill="#11162B"/>
<path d="M120.267 189.844H166.415C166.77 189.844 167.054 189.595 167.125 189.276L172.521 159.741H203.297L198.221 189.027C198.186 189.24 198.257 189.453 198.363 189.595C198.505 189.773 198.683 189.844 198.896 189.844H275.004C275.217 189.844 275.394 189.737 275.536 189.595C275.678 189.453 275.714 189.24 275.714 189.027L258.781 84.0239C258.71 83.6689 258.426 83.4204 258.071 83.4204H102.873C102.66 83.4204 102.483 83.5269 102.341 83.6689C102.199 83.8109 102.163 84.0239 102.199 84.2369L119.593 189.24C119.629 189.595 119.913 189.844 120.267 189.844ZM165.812 188.424H120.871L103.725 84.8403H257.468L274.187 188.424H199.748L204.824 159.138C204.859 158.925 204.788 158.712 204.682 158.57C204.54 158.392 204.362 158.321 204.149 158.321H171.953C171.598 158.321 171.314 158.57 171.243 158.889L165.812 188.424Z" fill="black" fill-opacity="0.2"/>
<path d="M155.624 248.948H188.672C189.027 248.948 189.311 248.699 189.382 248.344L204.824 159.138C204.859 158.925 204.788 158.712 204.682 158.57C204.54 158.392 204.362 158.321 204.149 158.321H171.953C171.598 158.321 171.314 158.57 171.243 158.889L154.949 248.096C154.914 248.309 154.985 248.522 155.091 248.664C155.198 248.841 155.411 248.948 155.624 248.948ZM188.069 247.528H156.476L172.485 159.741H203.262L188.069 247.528Z" fill="#11162B"/>
<path d="M155.624 248.948H188.672C189.027 248.948 189.311 248.699 189.382 248.344L204.824 159.138C204.859 158.925 204.788 158.712 204.682 158.57C204.54 158.392 204.362 158.321 204.149 158.321H171.953C171.598 158.321 171.314 158.57 171.243 158.889L154.949 248.096C154.914 248.309 154.985 248.522 155.091 248.664C155.198 248.841 155.411 248.948 155.624 248.948ZM188.069 247.528H156.476L172.485 159.741H203.262L188.069 247.528Z" fill="black" fill-opacity="0.2"/>
<path d="M317.992 322.5L392.289 321.932C392.573 321.932 392.857 321.755 392.964 321.471C393.035 321.258 400.738 299.782 412.452 256.119C412.523 255.906 412.452 255.693 412.346 255.515C412.204 255.338 411.991 255.231 411.778 255.231H384.444C384.054 255.231 383.77 255.515 383.734 255.906C383.734 255.977 383.308 262.793 378.481 269.537C372.091 278.412 360.838 283.133 345.929 283.133C336.273 283.133 328.251 289.842 322.749 302.55C318.631 312.028 317.317 321.648 317.317 321.719C317.282 321.932 317.353 322.145 317.495 322.287C317.601 322.429 317.814 322.5 317.992 322.5ZM391.792 320.512L318.808 321.08C319.199 318.596 320.69 310.786 324.027 303.047C329.387 290.765 336.735 284.517 345.893 284.517C365.382 284.517 375.002 276.779 379.652 270.283C383.876 264.39 384.835 258.604 385.048 256.651H410.819C400.241 296.161 392.964 317.211 391.792 320.512Z" fill="#11162B"/>
<path d="M317.992 322.5L392.289 321.932C392.573 321.932 392.857 321.755 392.964 321.471C393.035 321.258 400.738 299.782 412.452 256.119C412.523 255.906 412.452 255.693 412.346 255.515C412.204 255.338 411.991 255.231 411.778 255.231H384.444C384.054 255.231 383.77 255.515 383.734 255.906C383.734 255.977 383.308 262.793 378.481 269.537C372.091 278.412 360.838 283.133 345.929 283.133C336.273 283.133 328.251 289.842 322.749 302.55C318.631 312.028 317.317 321.648 317.317 321.719C317.282 321.932 317.353 322.145 317.495 322.287C317.601 322.429 317.814 322.5 317.992 322.5ZM391.792 320.512L318.808 321.08C319.199 318.596 320.69 310.786 324.027 303.047C329.387 290.765 336.735 284.517 345.893 284.517C365.382 284.517 375.002 276.779 379.652 270.283C383.876 264.39 384.835 258.604 385.048 256.651H410.819C400.241 296.161 392.964 317.211 391.792 320.512Z" fill="black" fill-opacity="0.2"/>
<path d="M275.004 414.334H298.929C299.249 414.334 299.568 414.085 299.639 413.766L318.631 321.471C318.702 321.08 318.453 320.726 318.063 320.619C317.672 320.548 317.317 320.797 317.211 321.187L298.362 412.914H275.749L280.08 295.593C280.08 295.522 280.293 288.99 285.263 281.997C289.842 275.536 299.497 267.372 319.589 265.065C319.98 265.029 320.264 264.674 320.228 264.284C320.193 263.893 319.838 263.609 319.447 263.645C298.787 266.023 288.813 274.507 284.056 281.216C278.909 288.529 278.696 295.238 278.66 295.522L274.294 413.553C274.294 413.731 274.365 413.944 274.507 414.086C274.613 414.263 274.826 414.334 275.004 414.334Z" fill="#11162B"/>
<path d="M275.004 414.334H298.929C299.249 414.334 299.568 414.085 299.639 413.766L318.631 321.471C318.702 321.08 318.453 320.726 318.063 320.619C317.672 320.548 317.317 320.797 317.211 321.187L298.362 412.914H275.749L280.08 295.593C280.08 295.522 280.293 288.99 285.263 281.997C289.842 275.536 299.497 267.372 319.589 265.065C319.98 265.029 320.264 264.674 320.228 264.284C320.193 263.893 319.838 263.609 319.447 263.645C298.787 266.023 288.813 274.507 284.056 281.216C278.909 288.529 278.696 295.238 278.66 295.522L274.294 413.553C274.294 413.731 274.365 413.944 274.507 414.086C274.613 414.263 274.826 414.334 275.004 414.334Z" fill="black" fill-opacity="0.2"/>
<path d="M193.216 414.334H217.461C217.71 414.334 217.958 414.192 218.1 413.979L279.299 302.799C279.476 302.444 279.37 302.018 279.015 301.84C278.66 301.663 278.234 301.769 278.057 302.124L217.071 412.914H194.175C197.298 402.194 226.939 300.527 233.684 280.4C237.305 269.573 245.682 263.716 252.107 260.698C259.101 257.397 265.277 256.651 265.348 256.651C265.739 256.616 266.023 256.261 265.987 255.87C265.952 255.48 265.597 255.196 265.206 255.232C264.958 255.267 258.746 255.977 251.575 259.385C244.901 262.544 236.169 268.65 232.371 279.938C225.235 301.131 192.897 412.311 192.577 413.411C192.506 413.624 192.542 413.872 192.684 414.05C192.79 414.227 193.003 414.334 193.216 414.334Z" fill="#11162B"/>
<path d="M193.216 414.334H217.461C217.71 414.334 217.958 414.192 218.1 413.979L279.299 302.799C279.476 302.444 279.37 302.018 279.015 301.84C278.66 301.663 278.234 301.769 278.057 302.124L217.071 412.914H194.175C197.298 402.194 226.939 300.527 233.684 280.4C237.305 269.573 245.682 263.716 252.107 260.698C259.101 257.397 265.277 256.651 265.348 256.651C265.739 256.616 266.023 256.261 265.987 255.87C265.952 255.48 265.597 255.196 265.206 255.232C264.958 255.267 258.746 255.977 251.575 259.385C244.901 262.544 236.169 268.65 232.371 279.938C225.235 301.131 192.897 412.311 192.577 413.411C192.506 413.624 192.542 413.872 192.684 414.05C192.79 414.227 193.003 414.334 193.216 414.334Z" fill="black" fill-opacity="0.2"/>
<path d="M342.308 421.788H349.372C349.763 421.788 350.082 421.469 350.082 421.078V321.79C350.082 321.4 349.763 321.08 349.372 321.08H342.308C341.918 321.08 341.598 321.4 341.598 321.79V421.078C341.598 421.469 341.918 421.788 342.308 421.788ZM348.698 420.368H343.054V322.5H348.698V420.368Z" fill="#11162B"/>
<path d="M342.308 421.788H349.372C349.763 421.788 350.082 421.469 350.082 421.078V321.79C350.082 321.4 349.763 321.08 349.372 321.08H342.308C341.918 321.08 341.598 321.4 341.598 321.79V421.078C341.598 421.469 341.918 421.788 342.308 421.788ZM348.698 420.368H343.054V322.5H348.698V420.368Z" fill="black" fill-opacity="0.2"/>
<path d="M422.889 209.049C423.244 209.049 423.563 208.8 423.599 208.445L429.633 161.162C429.704 160.771 430.308 157.186 428.071 154.523C426.474 152.642 423.883 151.755 420.368 151.861C410.287 152.181 407.625 151.861 407.625 151.861C407.234 151.826 406.879 152.074 406.808 152.465C406.737 152.855 407.021 153.21 407.412 153.281C407.518 153.281 410.109 153.636 420.404 153.281C423.492 153.175 425.693 153.92 426.971 155.446C428.852 157.647 428.213 160.878 428.213 160.913V160.949L422.143 208.268C422.108 208.658 422.356 209.013 422.747 209.049C422.818 209.049 422.853 209.049 422.889 209.049Z" fill="#11162B"/>
<path d="M422.889 209.049C423.244 209.049 423.563 208.8 423.599 208.445L429.633 161.162C429.704 160.771 430.308 157.186 428.071 154.523C426.474 152.642 423.883 151.755 420.368 151.861C410.287 152.181 407.625 151.861 407.625 151.861C407.234 151.826 406.879 152.074 406.808 152.465C406.737 152.855 407.021 153.21 407.412 153.281C407.518 153.281 410.109 153.636 420.404 153.281C423.492 153.175 425.693 153.92 426.971 155.446C428.852 157.647 428.213 160.878 428.213 160.913V160.949L422.143 208.268C422.108 208.658 422.356 209.013 422.747 209.049C422.818 209.049 422.853 209.049 422.889 209.049Z" fill="black" fill-opacity="0.2"/>
<path d="M299.071 445.998H427.078C427.433 445.998 427.717 445.75 427.788 445.395C427.823 445.04 427.646 444.72 427.291 444.614L349.585 420.404C349.195 420.298 348.804 420.511 348.698 420.866C348.591 421.256 348.804 421.647 349.159 421.753L349.869 421.966L422.392 444.578H299.781V438.082L342.592 421.718C342.947 421.576 343.125 421.15 343.018 420.795C342.876 420.44 342.45 420.262 342.095 420.369L298.858 436.911C298.574 437.017 298.397 437.266 298.397 437.585V445.253C298.361 445.679 298.681 445.998 299.071 445.998Z" fill="#11162B"/>
<path d="M299.071 445.998H427.078C427.433 445.998 427.717 445.75 427.788 445.395C427.823 445.04 427.646 444.72 427.291 444.614L349.585 420.404C349.195 420.298 348.804 420.511 348.698 420.866C348.591 421.256 348.804 421.647 349.159 421.753L349.869 421.966L422.392 444.578H299.781V438.082L342.592 421.718C342.947 421.576 343.125 421.15 343.018 420.795C342.876 420.44 342.45 420.262 342.095 420.369L298.858 436.911C298.574 437.017 298.397 437.266 298.397 437.585V445.253C298.361 445.679 298.681 445.998 299.071 445.998Z" fill="black" fill-opacity="0.2"/>
<path d="M268.046 322.5H278.412C278.802 322.5 279.122 322.181 279.122 321.79C279.122 321.4 278.802 321.08 278.412 321.08H268.046C267.656 321.08 267.336 321.4 267.336 321.79C267.336 322.181 267.656 322.5 268.046 322.5Z" fill="#11162B"/>
<path d="M268.046 322.5H278.412C278.802 322.5 279.122 322.181 279.122 321.79C279.122 321.4 278.802 321.08 278.412 321.08H268.046C267.656 321.08 267.336 321.4 267.336 321.79C267.336 322.181 267.656 322.5 268.046 322.5Z" fill="black" fill-opacity="0.2"/>
<path d="M444.862 445.998H452.956C453.346 445.998 453.666 445.679 453.666 445.288V255.941C453.666 255.551 453.346 255.231 452.956 255.231H444.862C444.472 255.231 444.152 255.551 444.152 255.941V445.288C444.152 445.679 444.472 445.998 444.862 445.998ZM452.246 444.578H445.572V256.651H452.246V444.578Z" fill="#11162B"/>
<path d="M444.862 445.998H452.956C453.346 445.998 453.666 445.679 453.666 445.288V255.941C453.666 255.551 453.346 255.231 452.956 255.231H444.862C444.472 255.231 444.152 255.551 444.152 255.941V445.288C444.152 445.679 444.472 445.998 444.862 445.998ZM452.246 444.578H445.572V256.651H452.246V444.578Z" fill="black" fill-opacity="0.2"/>
<path d="M23.6772 445.998H31.7708C32.1612 445.998 32.4807 445.679 32.4807 445.288V255.941C32.4807 255.551 32.1612 255.231 31.7708 255.231H23.6772C23.2867 255.231 22.9672 255.551 22.9672 255.941V445.288C22.9672 445.679 23.2867 445.998 23.6772 445.998ZM31.0608 444.578H24.3871V256.651H31.0608V444.578Z" fill="#11162B"/>
<path d="M23.6772 445.998H31.7708C32.1612 445.998 32.4807 445.679 32.4807 445.288V255.941C32.4807 255.551 32.1612 255.231 31.7708 255.231H23.6772C23.2867 255.231 22.9672 255.551 22.9672 255.941V445.288C22.9672 445.679 23.2867 445.998 23.6772 445.998ZM31.0608 444.578H24.3871V256.651H31.0608V444.578Z" fill="black" fill-opacity="0.2"/>
<path d="M465.344 105.003C466.09 105.003 466.835 104.755 467.439 104.222C468.255 103.548 468.681 102.554 468.61 101.489L468.326 97.0872C468.22 95.6318 467.155 94.4248 465.735 94.1053L464.209 93.7859C463.179 93.5729 462.15 93.8568 461.369 94.5313C460.588 95.2058 460.197 96.1997 460.268 97.2292L460.588 101.56C460.694 102.98 461.688 104.151 463.073 104.471L464.563 104.826C464.812 104.968 465.096 105.003 465.344 105.003ZM463.499 95.1703C463.641 95.1703 463.747 95.1703 463.889 95.2058L465.415 95.5253C466.232 95.7028 466.835 96.3772 466.871 97.2292L467.155 101.631C467.19 102.234 466.942 102.802 466.48 103.193C466.019 103.583 465.415 103.725 464.847 103.583L463.357 103.228C462.576 103.051 462.008 102.376 461.972 101.56L461.653 97.2292C461.617 96.6257 461.83 96.0932 462.292 95.7028C462.647 95.3123 463.073 95.1703 463.499 95.1703Z" fill="#11162B"/>
<path d="M465.344 105.003C466.09 105.003 466.835 104.755 467.439 104.222C468.255 103.548 468.681 102.554 468.61 101.489L468.326 97.0872C468.22 95.6318 467.155 94.4248 465.735 94.1053L464.209 93.7859C463.179 93.5729 462.15 93.8568 461.369 94.5313C460.588 95.2058 460.197 96.1997 460.268 97.2292L460.588 101.56C460.694 102.98 461.688 104.151 463.073 104.471L464.563 104.826C464.812 104.968 465.096 105.003 465.344 105.003ZM463.499 95.1703C463.641 95.1703 463.747 95.1703 463.889 95.2058L465.415 95.5253C466.232 95.7028 466.835 96.3772 466.871 97.2292L467.155 101.631C467.19 102.234 466.942 102.802 466.48 103.193C466.019 103.583 465.415 103.725 464.847 103.583L463.357 103.228C462.576 103.051 462.008 102.376 461.972 101.56L461.653 97.2292C461.617 96.6257 461.83 96.0932 462.292 95.7028C462.647 95.3123 463.073 95.1703 463.499 95.1703Z" fill="black" fill-opacity="0.2"/>
</svg>
