<svg width="664" height="580" viewBox="0 0 664 580" fill="none" xmlns="http://www.w3.org/2000/svg">
<path d="M258.536 521.602L59.202 409.66L173.166 206.722C282.491 270.664 320.772 410.713 258.536 521.602Z" fill="#FF9CAC"/>
<path d="M291.033 71.8128L289.456 25.9094C289.456 25.9094 288.458 3.1187 312.021 1.1551C335.584 -0.808512 364.137 1.83109 364.137 1.83109C364.137 1.83109 393.849 2.98994 389.406 32.2831L316.109 30.8989C316.109 30.8989 320.616 60.1599 307.482 68.9479C307.482 68.9157 295.99 64.1837 291.033 71.8128Z" fill="#11162B"/>
<path d="M291.033 71.8128L289.456 25.9094C289.456 25.9094 288.458 3.1187 312.021 1.1551C335.584 -0.808512 364.137 1.83109 364.137 1.83109C364.137 1.83109 393.849 2.98994 389.406 32.2831L316.109 30.8989C316.109 30.8989 320.616 60.1599 307.482 68.9479C307.482 68.9157 295.99 64.1837 291.033 71.8128Z" fill="black" fill-opacity="0.2"/>
<path d="M395.716 123.896L416.768 102.104L424.977 123.896H395.716Z" fill="#AECBEE"/>
<path d="M460.579 371.601C460.451 371.601 460.354 371.569 460.225 371.536C459.646 371.343 459.324 370.699 459.517 370.12L465.859 351.257C466.052 350.677 466.696 350.355 467.275 350.548C467.854 350.741 468.176 351.385 467.983 351.965L461.642 370.828C461.481 371.311 461.062 371.601 460.579 371.601Z" fill="#11162B"/>
<path d="M460.579 371.601C460.451 371.601 460.354 371.569 460.225 371.536C459.646 371.343 459.324 370.699 459.517 370.12L465.859 351.257C466.052 350.677 466.696 350.355 467.275 350.548C467.854 350.741 468.176 351.385 467.983 351.965L461.642 370.828C461.481 371.311 461.062 371.601 460.579 371.601Z" fill="black" fill-opacity="0.2"/>
<path d="M480.859 362.17C480.409 362.17 479.958 361.88 479.797 361.429L477.061 353.768C476.836 353.189 477.157 352.545 477.737 352.319C478.316 352.094 478.96 352.416 479.185 352.995L481.922 360.657C482.147 361.236 481.825 361.88 481.246 362.105C481.117 362.17 480.988 362.17 480.859 362.17Z" fill="#11162B"/>
<path d="M480.859 362.17C480.409 362.17 479.958 361.88 479.797 361.429L477.061 353.768C476.836 353.189 477.157 352.545 477.737 352.319C478.316 352.094 478.96 352.416 479.185 352.995L481.922 360.657C482.147 361.236 481.825 361.88 481.246 362.105C481.117 362.17 480.988 362.17 480.859 362.17Z" fill="black" fill-opacity="0.2"/>
<path d="M399.192 22.9802C398.935 22.9802 398.677 22.8836 398.484 22.6905C398.098 22.3042 398.13 21.6926 398.516 21.3385L420.084 0.446972C420.47 0.0606879 421.082 0.0928782 421.436 0.479162C421.822 0.865445 421.79 1.47706 421.404 1.83115L399.836 22.7227C399.675 22.8836 399.418 22.9802 399.192 22.9802Z" fill="#AECBEE"/>
<path d="M401.575 30.3194C401.156 30.3194 400.738 30.0297 400.641 29.579C400.512 29.064 400.834 28.5489 401.349 28.4202L418.314 24.2354C418.829 24.1067 419.344 24.4286 419.472 24.9436C419.601 25.4587 419.279 25.9737 418.764 26.1025L401.8 30.2872C401.736 30.3194 401.639 30.3194 401.575 30.3194Z" fill="#AECBEE"/>
<path d="M412.551 41.5222H399.192C398.645 41.5222 398.227 41.1038 398.227 40.5565C398.227 40.0093 398.645 39.5908 399.192 39.5908H412.551C413.099 39.5908 413.517 40.0093 413.517 40.5565C413.517 41.1038 413.066 41.5222 412.551 41.5222Z" fill="#AECBEE"/>
<path d="M227.167 142.277C226.91 142.277 226.62 142.181 226.427 141.988L207.242 124.734C206.791 124.315 206.727 123.607 207.145 123.156C207.564 122.706 208.272 122.641 208.722 123.06L227.908 140.314C228.358 140.732 228.423 141.44 228.004 141.891C227.779 142.149 227.489 142.277 227.167 142.277Z" fill="#11162B"/>
<path d="M227.167 142.277C226.91 142.277 226.62 142.181 226.427 141.988L207.242 124.734C206.791 124.315 206.727 123.607 207.145 123.156C207.564 122.706 208.272 122.641 208.722 123.06L227.908 140.314C228.358 140.732 228.423 141.44 228.004 141.891C227.779 142.149 227.489 142.277 227.167 142.277Z" fill="black" fill-opacity="0.2"/>
<path d="M233.445 134.745C233.026 134.745 232.608 134.519 232.414 134.101L227.876 124.379C227.618 123.8 227.843 123.156 228.423 122.866C229.002 122.609 229.646 122.834 229.936 123.414L234.475 133.135C234.732 133.714 234.507 134.358 233.927 134.648C233.766 134.712 233.605 134.745 233.445 134.745Z" fill="#11162B"/>
<path d="M233.445 134.745C233.026 134.745 232.608 134.519 232.414 134.101L227.876 124.379C227.618 123.8 227.843 123.156 228.423 122.866C229.002 122.609 229.646 122.834 229.936 123.414L234.475 133.135C234.732 133.714 234.507 134.358 233.927 134.648C233.766 134.712 233.605 134.745 233.445 134.745Z" fill="black" fill-opacity="0.2"/>
<path d="M217.575 144.95C217.51 144.95 217.414 144.95 217.349 144.918L213.358 143.92C212.843 143.791 212.521 143.276 212.65 142.761C212.778 142.246 213.293 141.924 213.808 142.053L217.8 143.051C218.315 143.179 218.637 143.695 218.508 144.21C218.412 144.66 218.025 144.95 217.575 144.95Z" fill="#AECBEE"/>
<path d="M638.946 116.332C638.817 116.332 638.688 116.299 638.559 116.267C637.98 116.042 637.658 115.398 637.884 114.819L646.671 90.5794C646.897 90 647.541 89.6781 648.12 89.9034C648.699 90.1287 649.021 90.7725 648.796 91.352L640.008 115.591C639.847 116.042 639.396 116.332 638.946 116.332Z" fill="#11162B"/>
<path d="M638.946 116.332C638.817 116.332 638.688 116.299 638.559 116.267C637.98 116.042 637.658 115.398 637.884 114.819L646.671 90.5794C646.897 90 647.541 89.6781 648.12 89.9034C648.699 90.1287 649.021 90.7725 648.796 91.352L640.008 115.591C639.847 116.042 639.396 116.332 638.946 116.332Z" fill="black" fill-opacity="0.2"/>
<path d="M648.281 119.293C647.991 119.293 647.734 119.197 647.508 119.004C647.058 118.585 647.025 117.877 647.444 117.426L654.719 109.572C655.137 109.121 655.846 109.089 656.296 109.508C656.747 109.926 656.779 110.634 656.361 111.085L649.086 118.939C648.892 119.197 648.603 119.293 648.281 119.293Z" fill="#11162B"/>
<path d="M648.281 119.293C647.991 119.293 647.734 119.197 647.508 119.004C647.058 118.585 647.025 117.877 647.444 117.426L654.719 109.572C655.137 109.121 655.846 109.089 656.296 109.508C656.747 109.926 656.779 110.634 656.361 111.085L649.086 118.939C648.892 119.197 648.603 119.293 648.281 119.293Z" fill="black" fill-opacity="0.2"/>
<path d="M632.701 108.349C632.218 108.349 631.799 107.995 631.735 107.512L631.156 103.424C631.091 102.909 631.445 102.394 631.993 102.33C632.508 102.265 633.023 102.62 633.087 103.167L633.666 107.255C633.731 107.77 633.377 108.285 632.83 108.349C632.797 108.349 632.733 108.349 632.701 108.349Z" fill="#AECBEE"/>
<path d="M427.359 156.924L419.601 264.375L465.408 253.624C465.408 253.624 472.2 252.658 472.619 254.139C473.005 255.62 473.391 260.899 470.977 261.285C468.563 261.671 442.231 270.363 439.141 273.807C439.141 273.807 455.912 273.131 460.097 271.715C464.281 270.33 479.572 266.049 481.213 268.109C482.855 270.202 481.986 271.457 481.986 271.457L471.073 280.149C471.073 280.149 483.306 278.7 484.046 280.149C484.787 281.597 484.947 283.368 484.046 283.947C483.145 284.526 469.561 293.057 469.561 293.057C469.561 293.057 480.183 289.773 480.151 293.733C480.119 297.692 463.863 304.774 463.863 304.774C463.863 304.774 442.038 313.659 434.666 315.558C427.295 317.457 414.451 317.779 414.451 317.779L410.363 346.686L531.205 321.449L553.448 138.061L427.359 156.924Z" fill="#FFCC55"/>
<path d="M430.675 191.753L433.089 173.373C433.089 173.373 433.636 170.476 436.952 170.122C440.299 169.735 445.289 168.834 445.289 168.834C445.289 168.834 448.926 169.124 448.765 173.695C448.604 178.266 446.705 192.365 446.705 192.365C446.705 192.365 445.933 194.554 441.458 195.166C436.984 195.777 433.861 196.035 433.861 196.035C433.861 196.035 430.449 195.713 430.675 191.753Z" fill="#11162B"/>
<path d="M430.675 191.753L433.089 173.373C433.089 173.373 433.636 170.476 436.952 170.122C440.299 169.735 445.289 168.834 445.289 168.834C445.289 168.834 448.926 169.124 448.765 173.695C448.604 178.266 446.705 192.365 446.705 192.365C446.705 192.365 445.933 194.554 441.458 195.166C436.984 195.777 433.861 196.035 433.861 196.035C433.861 196.035 430.449 195.713 430.675 191.753Z" fill="black" fill-opacity="0.2"/>
<path d="M228.907 274.162C228.873 274.162 228.873 274.162 228.907 274.162C228.873 274.128 228.873 274.128 228.907 274.162Z" fill="#FFCC55"/>
<path d="M248.767 359.916C248.767 359.916 268.21 362.556 278.189 360.592C278.189 360.592 268.274 367.481 248.284 369.155L248.767 359.916Z" fill="#11162B"/>
<path d="M248.767 359.916C248.767 359.916 268.21 362.556 278.189 360.592C278.189 360.592 268.274 367.481 248.284 369.155L248.767 359.916Z" fill="black" fill-opacity="0.2"/>
<path d="M491.795 431.146L503.029 427.541L502.933 446.63L491.795 431.146Z" fill="#FFCC55"/>
<path d="M475.764 454.195L478.983 439.838L495.143 451.974L475.764 454.195Z" fill="#AECBEE"/>
<path d="M265.86 361.719C254.916 361.719 248.896 360.206 248.606 360.109C241.009 357.985 235.086 351.45 231.481 341.149C228.777 333.52 228.294 326.599 228.262 326.309C228.262 326.277 228.262 326.277 228.262 326.245C228.262 325.247 227.135 227.195 228.262 200.51C228.745 189.436 232.157 174.178 245.934 164.296C246.063 164.199 246.224 164.07 246.321 164.006C246.61 163.652 247.319 163.233 249.025 162.171C250.473 161.302 252.566 160.014 255.302 158.405C259.905 155.669 266.279 151.902 274.326 147.203C286.462 140.088 298.727 132.974 301.431 131.397L301.881 88.9703C300.207 89.2278 297.439 89.26 294.96 87.5861C292.16 85.6869 290.55 82.146 290.228 77.0921C290.196 76.738 290.196 76.3839 290.196 76.062C290.132 75.9332 290.1 75.8045 290.1 75.6757C290.067 75.3216 288.297 38.6569 288.297 27.5834C288.297 14.1922 294.381 7.40008 299.467 4.08448C305.004 0.511352 310.476 0.0928778 310.701 0.0928778C310.734 0.0928778 310.734 0.0928778 310.766 0.0928778C321.775 -0.00369315 350.521 -0.0680737 355.446 0.125068C369.996 0.157258 380.265 3.89133 386.059 11.2629C393.334 20.5337 390.63 32.0257 390.501 32.5085C390.372 33.0236 389.889 33.3776 389.374 33.3776L317.3 32.0257C318.009 46.286 316.753 56.9409 313.566 63.6687C310.991 69.0767 308.094 69.9458 307.74 70.0102C307.514 70.0746 307.289 70.0424 307.096 69.978C306.999 69.9458 298.791 67.1453 294.735 70.2355C293.029 71.5231 292.256 73.8087 292.449 76.9955C292.739 81.309 293.995 84.2705 296.184 85.7513C299.016 87.6827 302.622 86.556 302.654 86.556C303.008 86.4594 303.362 86.4916 303.684 86.717C303.974 86.9423 304.134 87.2642 304.134 87.6505L303.652 132.105C303.652 132.492 303.426 132.878 303.104 133.071C282.052 145.303 250.377 163.813 248.059 165.487C247.866 165.712 247.576 165.905 247.19 166.195C234.185 175.53 230.902 190.112 230.451 200.671C229.324 227.099 230.419 323.927 230.451 326.245C230.515 327.275 232.736 353.414 249.121 357.985C249.186 357.985 257.233 360.013 271.461 359.369C284.595 358.757 305.776 355.699 332.237 344.497C361.787 331.975 380.908 323.992 384.739 322.543C385.447 320.676 388.087 313.24 388.377 304.742C388.795 291.995 383.999 282.885 374.116 277.638L296.505 303.744C295.926 303.937 295.282 303.615 295.089 303.036C294.896 302.456 295.218 301.813 295.797 301.619L373.859 275.384C374.148 275.288 374.47 275.32 374.728 275.449C385.608 281.018 391.113 291.222 390.63 304.935C390.276 315.139 386.767 323.573 386.638 323.927C386.509 324.249 386.22 324.475 385.898 324.571C385.512 324.7 381.102 326.277 333.106 346.621C306.291 357.985 284.756 361.075 271.429 361.686C269.498 361.686 267.631 361.719 265.86 361.719ZM310.83 2.3462C310.412 2.37839 305.486 2.86124 300.658 6.04808C293.962 10.4582 290.582 17.701 290.582 27.6156C290.582 35.9529 291.612 58.8724 292.095 69.7527C292.482 69.2698 292.932 68.8514 293.415 68.4651C297.922 65.0529 305.615 67.1453 307.482 67.7569C308.963 67.0165 316.753 61.5763 315.015 30.9634C314.983 30.6415 315.111 30.3518 315.337 30.1264C315.562 29.9011 315.852 29.7723 316.174 29.7723L388.505 31.1243C388.956 28.3881 389.793 19.6646 384.288 12.6471C378.945 5.85494 369.255 2.41058 355.446 2.41058H355.414C350.714 2.18525 321.936 2.24963 310.83 2.3462Z" fill="#11162B"/>
<path d="M265.86 361.719C254.916 361.719 248.896 360.206 248.606 360.109C241.009 357.985 235.086 351.45 231.481 341.149C228.777 333.52 228.294 326.599 228.262 326.309C228.262 326.277 228.262 326.277 228.262 326.245C228.262 325.247 227.135 227.195 228.262 200.51C228.745 189.436 232.157 174.178 245.934 164.296C246.063 164.199 246.224 164.07 246.321 164.006C246.61 163.652 247.319 163.233 249.025 162.171C250.473 161.302 252.566 160.014 255.302 158.405C259.905 155.669 266.279 151.902 274.326 147.203C286.462 140.088 298.727 132.974 301.431 131.397L301.881 88.9703C300.207 89.2278 297.439 89.26 294.96 87.5861C292.16 85.6869 290.55 82.146 290.228 77.0921C290.196 76.738 290.196 76.3839 290.196 76.062C290.132 75.9332 290.1 75.8045 290.1 75.6757C290.067 75.3216 288.297 38.6569 288.297 27.5834C288.297 14.1922 294.381 7.40008 299.467 4.08448C305.004 0.511352 310.476 0.0928778 310.701 0.0928778C310.734 0.0928778 310.734 0.0928778 310.766 0.0928778C321.775 -0.00369315 350.521 -0.0680737 355.446 0.125068C369.996 0.157258 380.265 3.89133 386.059 11.2629C393.334 20.5337 390.63 32.0257 390.501 32.5085C390.372 33.0236 389.889 33.3776 389.374 33.3776L317.3 32.0257C318.009 46.286 316.753 56.9409 313.566 63.6687C310.991 69.0767 308.094 69.9458 307.74 70.0102C307.514 70.0746 307.289 70.0424 307.096 69.978C306.999 69.9458 298.791 67.1453 294.735 70.2355C293.029 71.5231 292.256 73.8087 292.449 76.9955C292.739 81.309 293.995 84.2705 296.184 85.7513C299.016 87.6827 302.622 86.556 302.654 86.556C303.008 86.4594 303.362 86.4916 303.684 86.717C303.974 86.9423 304.134 87.2642 304.134 87.6505L303.652 132.105C303.652 132.492 303.426 132.878 303.104 133.071C282.052 145.303 250.377 163.813 248.059 165.487C247.866 165.712 247.576 165.905 247.19 166.195C234.185 175.53 230.902 190.112 230.451 200.671C229.324 227.099 230.419 323.927 230.451 326.245C230.515 327.275 232.736 353.414 249.121 357.985C249.186 357.985 257.233 360.013 271.461 359.369C284.595 358.757 305.776 355.699 332.237 344.497C361.787 331.975 380.908 323.992 384.739 322.543C385.447 320.676 388.087 313.24 388.377 304.742C388.795 291.995 383.999 282.885 374.116 277.638L296.505 303.744C295.926 303.937 295.282 303.615 295.089 303.036C294.896 302.456 295.218 301.813 295.797 301.619L373.859 275.384C374.148 275.288 374.47 275.32 374.728 275.449C385.608 281.018 391.113 291.222 390.63 304.935C390.276 315.139 386.767 323.573 386.638 323.927C386.509 324.249 386.22 324.475 385.898 324.571C385.512 324.7 381.102 326.277 333.106 346.621C306.291 357.985 284.756 361.075 271.429 361.686C269.498 361.686 267.631 361.719 265.86 361.719ZM310.83 2.3462C310.412 2.37839 305.486 2.86124 300.658 6.04808C293.962 10.4582 290.582 17.701 290.582 27.6156C290.582 35.9529 291.612 58.8724 292.095 69.7527C292.482 69.2698 292.932 68.8514 293.415 68.4651C297.922 65.0529 305.615 67.1453 307.482 67.7569C308.963 67.0165 316.753 61.5763 315.015 30.9634C314.983 30.6415 315.111 30.3518 315.337 30.1264C315.562 29.9011 315.852 29.7723 316.174 29.7723L388.505 31.1243C388.956 28.3881 389.793 19.6646 384.288 12.6471C378.945 5.85494 369.255 2.41058 355.446 2.41058H355.414C350.714 2.18525 321.936 2.24963 310.83 2.3462Z" fill="black" fill-opacity="0.2"/>
<path d="M367.646 122.544H354.673L336.743 122.223C336.132 122.223 335.617 121.707 335.649 121.064C335.649 120.452 336.164 119.969 336.775 119.969C336.775 119.969 336.775 119.969 336.808 119.969L354.705 120.291H367.614C375.533 119.776 381.23 116.654 384.546 110.956C386.96 106.836 387.153 102.812 387.185 102.554V32.2185C387.185 31.6068 387.7 31.0918 388.312 31.0918C388.924 31.0918 389.439 31.6068 389.439 32.2185V102.586V102.619C389.439 102.812 389.278 107.351 386.509 112.083C383.966 116.46 378.623 121.836 367.743 122.544C367.71 122.544 367.678 122.544 367.646 122.544Z" fill="#11162B"/>
<path d="M367.646 122.544H354.673L336.743 122.223C336.132 122.223 335.617 121.707 335.649 121.064C335.649 120.452 336.164 119.969 336.775 119.969C336.775 119.969 336.775 119.969 336.808 119.969L354.705 120.291H367.614C375.533 119.776 381.23 116.654 384.546 110.956C386.96 106.836 387.153 102.812 387.185 102.554V32.2185C387.185 31.6068 387.7 31.0918 388.312 31.0918C388.924 31.0918 389.439 31.6068 389.439 32.2185V102.586V102.619C389.439 102.812 389.278 107.351 386.509 112.083C383.966 116.46 378.623 121.836 367.743 122.544C367.71 122.544 367.678 122.544 367.646 122.544Z" fill="black" fill-opacity="0.2"/>
<path d="M423.689 166.71C423.303 166.71 422.884 166.485 422.691 166.131C415.03 151.935 363.59 138.769 363.075 138.641C362.56 138.512 362.238 138.061 362.238 137.546V121.451C362.238 120.839 362.753 120.324 363.365 120.324C363.976 120.324 364.491 120.839 364.491 121.451V136.677C371.541 138.512 417.058 150.873 424.687 165.069C424.977 165.616 424.784 166.292 424.236 166.582C424.043 166.678 423.85 166.71 423.689 166.71Z" fill="#11162B"/>
<path d="M423.689 166.71C423.303 166.71 422.884 166.485 422.691 166.131C415.03 151.935 363.59 138.769 363.075 138.641C362.56 138.512 362.238 138.061 362.238 137.546V121.451C362.238 120.839 362.753 120.324 363.365 120.324C363.976 120.324 364.491 120.839 364.491 121.451V136.677C371.541 138.512 417.058 150.873 424.687 165.069C424.977 165.616 424.784 166.292 424.236 166.582C424.043 166.678 423.85 166.71 423.689 166.71Z" fill="black" fill-opacity="0.2"/>
<path d="M285.11 210.166C284.498 210.166 283.983 209.651 283.983 209.04C283.983 198.9 280.378 190.53 273.264 184.189C267.952 179.457 262.609 177.686 262.577 177.686C261.997 177.493 261.675 176.849 261.836 176.27C262.029 175.691 262.673 175.369 263.253 175.53C263.478 175.594 269.079 177.461 274.744 182.515C279.991 187.183 286.204 195.584 286.204 209.04C286.236 209.651 285.754 210.166 285.11 210.166Z" fill="#11162B"/>
<path d="M285.11 210.166C284.498 210.166 283.983 209.651 283.983 209.04C283.983 198.9 280.378 190.53 273.264 184.189C267.952 179.457 262.609 177.686 262.577 177.686C261.997 177.493 261.675 176.849 261.836 176.27C262.029 175.691 262.673 175.369 263.253 175.53C263.478 175.594 269.079 177.461 274.744 182.515C279.991 187.183 286.204 195.584 286.204 209.04C286.236 209.651 285.754 210.166 285.11 210.166Z" fill="black" fill-opacity="0.2"/>
<path d="M297.31 307.027C296.859 307.027 296.441 306.77 296.248 306.319C292.127 295.857 282.792 297.274 282.696 297.274C282.374 297.338 282.02 297.242 281.762 297.016C281.505 296.791 281.376 296.469 281.376 296.147L283.951 213.74C283.983 213.128 284.466 212.646 285.11 212.646C285.722 212.678 286.204 213.193 286.204 213.804L283.661 294.988C283.694 294.988 283.758 294.988 283.79 294.988C287.009 294.988 294.606 296.051 298.308 305.515C298.533 306.094 298.244 306.738 297.664 306.963C297.6 307.027 297.439 307.027 297.31 307.027Z" fill="#11162B"/>
<path d="M297.31 307.027C296.859 307.027 296.441 306.77 296.248 306.319C292.127 295.857 282.792 297.274 282.696 297.274C282.374 297.338 282.02 297.242 281.762 297.016C281.505 296.791 281.376 296.469 281.376 296.147L283.951 213.74C283.983 213.128 284.466 212.646 285.11 212.646C285.722 212.678 286.204 213.193 286.204 213.804L283.661 294.988C283.694 294.988 283.758 294.988 283.79 294.988C287.009 294.988 294.606 296.051 298.308 305.515C298.533 306.094 298.244 306.738 297.664 306.963C297.6 307.027 297.439 307.027 297.31 307.027Z" fill="black" fill-opacity="0.2"/>
<path d="M440.138 427.645H244.711C244.389 427.645 244.099 427.516 243.906 427.291C243.713 427.066 243.584 426.776 243.617 426.454L247.769 358.951C247.801 358.339 248.349 357.857 248.96 357.889C249.572 357.921 250.055 358.468 250.023 359.08L245.934 425.392H438.98L435.278 343.017C435.245 342.405 435.728 341.858 436.34 341.826C436.952 341.794 437.499 342.276 437.531 342.888L441.297 426.422C441.297 426.744 441.201 427.033 440.975 427.259C440.75 427.516 440.46 427.645 440.138 427.645Z" fill="#11162B"/>
<path d="M440.138 427.645H244.711C244.389 427.645 244.099 427.516 243.906 427.291C243.713 427.066 243.584 426.776 243.617 426.454L247.769 358.951C247.801 358.339 248.349 357.857 248.96 357.889C249.572 357.921 250.055 358.468 250.023 359.08L245.934 425.392H438.98L435.278 343.017C435.245 342.405 435.728 341.858 436.34 341.826C436.952 341.794 437.499 342.276 437.531 342.888L441.297 426.422C441.297 426.744 441.201 427.033 440.975 427.259C440.75 427.516 440.46 427.645 440.138 427.645Z" fill="black" fill-opacity="0.2"/>
<path d="M443.068 290.16C442.521 290.16 442.038 289.773 441.941 289.194C441.845 288.582 442.263 288.003 442.875 287.906C466.02 284.365 480.73 271.94 481.728 270.008C481.728 269.912 481.696 269.751 481.439 269.558C481.02 269.204 478.445 267.658 468.627 270.781C456.845 274.515 438.497 275.609 437.724 275.642C437.306 275.674 436.887 275.449 436.662 275.062C436.437 274.676 436.469 274.225 436.726 273.871C437.209 273.195 438.465 271.393 454.721 265.566C461.674 263.087 468.434 260.899 470.043 260.383C472.683 256.875 472.232 255.652 472.007 255.362C470.816 253.656 464.217 254.782 461.899 255.491C461.642 255.587 448.508 259.128 435.31 262.218C408.109 268.528 406.789 266.725 406.049 265.727C404.665 263.86 405.663 261.317 409.01 258.162C410.556 256.714 412.23 255.491 413.066 254.911C413.71 254.46 414.193 254.139 414.612 253.881C414.612 253.527 414.644 253.108 414.708 252.626C414.773 251.628 414.901 250.244 415.094 248.537C415.288 246.735 415.449 244.9 415.577 243.773C411.908 243.805 407.53 247.057 402.959 250.501C399.933 252.787 396.778 255.136 393.495 256.81C385.093 261.156 376.691 277.444 376.595 277.605C376.305 278.153 375.629 278.378 375.082 278.088C374.535 277.798 374.309 277.122 374.599 276.575C374.953 275.867 383.419 259.482 392.465 254.815C395.587 253.205 398.645 250.92 401.607 248.698C407.047 244.61 412.197 240.78 417.026 241.649C417.605 241.745 418.024 242.293 417.959 242.872C417.444 247.668 416.897 253.076 416.897 254.267C416.994 254.589 416.962 254.943 416.768 255.233C416.607 255.491 416.35 255.652 416.06 255.716C414.676 256.456 408.528 260.802 407.819 263.57C407.723 263.989 407.787 264.214 407.884 264.375C408.592 264.729 412.68 265.244 435.503 259.933C448.347 256.939 460.772 253.559 461.288 253.398C461.352 253.366 471.299 250.437 473.906 254.106C475.162 255.877 474.453 258.516 471.685 262.09C471.556 262.283 471.363 262.411 471.138 262.476C461.448 265.534 448.283 270.137 442.102 273.099C448.347 272.551 459.968 271.232 468.048 268.689C475.548 266.306 480.73 266.017 482.984 267.884C483.789 268.56 484.175 269.461 484.078 270.427C483.853 272.358 478.026 276.833 472.554 279.987C466.406 283.56 456.33 288.228 443.325 290.224C443.164 290.16 443.1 290.16 443.068 290.16Z" fill="#11162B"/>
<path d="M443.068 290.16C442.521 290.16 442.038 289.773 441.941 289.194C441.845 288.582 442.263 288.003 442.875 287.906C466.02 284.365 480.73 271.94 481.728 270.008C481.728 269.912 481.696 269.751 481.439 269.558C481.02 269.204 478.445 267.658 468.627 270.781C456.845 274.515 438.497 275.609 437.724 275.642C437.306 275.674 436.887 275.449 436.662 275.062C436.437 274.676 436.469 274.225 436.726 273.871C437.209 273.195 438.465 271.393 454.721 265.566C461.674 263.087 468.434 260.899 470.043 260.383C472.683 256.875 472.232 255.652 472.007 255.362C470.816 253.656 464.217 254.782 461.899 255.491C461.642 255.587 448.508 259.128 435.31 262.218C408.109 268.528 406.789 266.725 406.049 265.727C404.665 263.86 405.663 261.317 409.01 258.162C410.556 256.714 412.23 255.491 413.066 254.911C413.71 254.46 414.193 254.139 414.612 253.881C414.612 253.527 414.644 253.108 414.708 252.626C414.773 251.628 414.901 250.244 415.094 248.537C415.288 246.735 415.449 244.9 415.577 243.773C411.908 243.805 407.53 247.057 402.959 250.501C399.933 252.787 396.778 255.136 393.495 256.81C385.093 261.156 376.691 277.444 376.595 277.605C376.305 278.153 375.629 278.378 375.082 278.088C374.535 277.798 374.309 277.122 374.599 276.575C374.953 275.867 383.419 259.482 392.465 254.815C395.587 253.205 398.645 250.92 401.607 248.698C407.047 244.61 412.197 240.78 417.026 241.649C417.605 241.745 418.024 242.293 417.959 242.872C417.444 247.668 416.897 253.076 416.897 254.267C416.994 254.589 416.962 254.943 416.768 255.233C416.607 255.491 416.35 255.652 416.06 255.716C414.676 256.456 408.528 260.802 407.819 263.57C407.723 263.989 407.787 264.214 407.884 264.375C408.592 264.729 412.68 265.244 435.503 259.933C448.347 256.939 460.772 253.559 461.288 253.398C461.352 253.366 471.299 250.437 473.906 254.106C475.162 255.877 474.453 258.516 471.685 262.09C471.556 262.283 471.363 262.411 471.138 262.476C461.448 265.534 448.283 270.137 442.102 273.099C448.347 272.551 459.968 271.232 468.048 268.689C475.548 266.306 480.73 266.017 482.984 267.884C483.789 268.56 484.175 269.461 484.078 270.427C483.853 272.358 478.026 276.833 472.554 279.987C466.406 283.56 456.33 288.228 443.325 290.224C443.164 290.16 443.1 290.16 443.068 290.16Z" fill="black" fill-opacity="0.2"/>
<path d="M448.991 300.847C448.508 300.847 448.089 300.557 447.928 300.074C447.735 299.495 448.057 298.851 448.637 298.658C448.733 298.626 458.1 295.503 467.114 291.737C484.303 284.558 483.756 282.015 483.756 281.983C483.692 281.79 483.531 281.468 483.016 281.211C479.346 279.376 467.532 282.981 463.283 284.526C462.704 284.752 462.06 284.43 461.835 283.85C461.609 283.271 461.931 282.627 462.511 282.402C464.152 281.79 478.831 276.607 484.014 279.215C484.979 279.698 485.623 280.438 485.913 281.372C486.589 283.561 484.979 286.78 467.983 293.861C458.873 297.66 449.441 300.815 449.345 300.847C449.216 300.815 449.119 300.847 448.991 300.847Z" fill="#11162B"/>
<path d="M448.991 300.847C448.508 300.847 448.089 300.557 447.928 300.074C447.735 299.495 448.057 298.851 448.637 298.658C448.733 298.626 458.1 295.503 467.114 291.737C484.303 284.558 483.756 282.015 483.756 281.983C483.692 281.79 483.531 281.468 483.016 281.211C479.346 279.376 467.532 282.981 463.283 284.526C462.704 284.752 462.06 284.43 461.835 283.85C461.609 283.271 461.931 282.627 462.511 282.402C464.152 281.79 478.831 276.607 484.014 279.215C484.979 279.698 485.623 280.438 485.913 281.372C486.589 283.561 484.979 286.78 467.983 293.861C458.873 297.66 449.441 300.815 449.345 300.847C449.216 300.815 449.119 300.847 448.991 300.847Z" fill="black" fill-opacity="0.2"/>
<path d="M386.96 320.869C386.381 320.869 385.898 320.419 385.833 319.839C385.769 319.228 386.22 318.68 386.863 318.616C387.153 318.584 414.418 316.17 427.005 315.719C432.606 315.526 444.967 311.727 457.843 306.223C463.83 303.68 469.238 301.008 473.037 298.755C478.992 295.246 479.089 293.862 479.089 293.862C479.057 293.765 479.024 293.636 478.767 293.508C475.934 291.898 463.637 295.536 456.555 298.175C455.976 298.4 455.332 298.111 455.107 297.531C454.882 296.952 455.171 296.308 455.751 296.083C458.97 294.86 475.29 288.969 479.861 291.544C480.634 291.995 481.117 292.638 481.278 293.475C481.406 294.248 481.149 295.053 480.409 295.954C474.936 302.746 439.044 317.554 427.037 317.94C414.515 318.358 387.282 320.805 387.024 320.805C387.024 320.869 386.992 320.869 386.96 320.869Z" fill="#11162B"/>
<path d="M386.96 320.869C386.381 320.869 385.898 320.419 385.833 319.839C385.769 319.228 386.22 318.68 386.863 318.616C387.153 318.584 414.418 316.17 427.005 315.719C432.606 315.526 444.967 311.727 457.843 306.223C463.83 303.68 469.238 301.008 473.037 298.755C478.992 295.246 479.089 293.862 479.089 293.862C479.057 293.765 479.024 293.636 478.767 293.508C475.934 291.898 463.637 295.536 456.555 298.175C455.976 298.4 455.332 298.111 455.107 297.531C454.882 296.952 455.171 296.308 455.751 296.083C458.97 294.86 475.29 288.969 479.861 291.544C480.634 291.995 481.117 292.638 481.278 293.475C481.406 294.248 481.149 295.053 480.409 295.954C474.936 302.746 439.044 317.554 427.037 317.94C414.515 318.358 387.282 320.805 387.024 320.805C387.024 320.869 386.992 320.869 386.96 320.869Z" fill="black" fill-opacity="0.2"/>
<path d="M338.063 145.077C331.335 145.077 325.316 143.854 320.487 142.341C309.188 138.8 302.01 133.199 301.72 132.974C301.237 132.587 301.141 131.879 301.527 131.396C301.913 130.913 302.622 130.817 303.104 131.203C303.169 131.268 310.315 136.804 321.228 140.216C331.239 143.339 346.561 145.238 362.785 136.547C363.332 136.257 364.008 136.45 364.298 136.997C364.588 137.545 364.395 138.221 363.847 138.51C354.77 143.403 345.917 145.077 338.063 145.077Z" fill="#11162B"/>
<path d="M338.063 145.077C331.335 145.077 325.316 143.854 320.487 142.341C309.188 138.8 302.01 133.199 301.72 132.974C301.237 132.587 301.141 131.879 301.527 131.396C301.913 130.913 302.622 130.817 303.104 131.203C303.169 131.268 310.315 136.804 321.228 140.216C331.239 143.339 346.561 145.238 362.785 136.547C363.332 136.257 364.008 136.45 364.298 136.997C364.588 137.545 364.395 138.221 363.847 138.51C354.77 143.403 345.917 145.077 338.063 145.077Z" fill="black" fill-opacity="0.2"/>
<path d="M408.27 349.969C407.98 349.969 407.723 349.873 407.53 349.68C407.272 349.422 407.111 349.068 407.176 348.714L410.556 317.65C410.62 317.039 411.167 316.588 411.811 316.653C412.423 316.717 412.873 317.264 412.809 317.908L409.59 347.426L530.271 320.515L552.225 142.503L425.17 161.914L416.028 265.245C415.964 265.856 415.416 266.339 414.805 266.275C414.193 266.21 413.742 265.663 413.775 265.052L422.949 160.819C422.981 160.304 423.399 159.886 423.915 159.789L553.32 140.024C553.674 139.96 554.028 140.089 554.285 140.314C554.543 140.572 554.672 140.926 554.607 141.248L532.396 321.545C532.331 322.028 531.977 322.415 531.527 322.511L408.528 349.937C408.431 349.969 408.334 349.969 408.27 349.969Z" fill="#11162B"/>
<path d="M408.27 349.969C407.98 349.969 407.723 349.873 407.53 349.68C407.272 349.422 407.111 349.068 407.176 348.714L410.556 317.65C410.62 317.039 411.167 316.588 411.811 316.653C412.423 316.717 412.873 317.264 412.809 317.908L409.59 347.426L530.271 320.515L552.225 142.503L425.17 161.914L416.028 265.245C415.964 265.856 415.416 266.339 414.805 266.275C414.193 266.21 413.742 265.663 413.775 265.052L422.949 160.819C422.981 160.304 423.399 159.886 423.915 159.789L553.32 140.024C553.674 139.96 554.028 140.089 554.285 140.314C554.543 140.572 554.672 140.926 554.607 141.248L532.396 321.545C532.331 322.028 531.977 322.415 531.527 322.511L408.528 349.937C408.431 349.969 408.334 349.969 408.27 349.969Z" fill="black" fill-opacity="0.2"/>
<path d="M551.356 242.325C545.175 242.325 541.151 240.747 540.926 240.651C540.347 240.425 540.057 239.749 540.315 239.17C540.54 238.591 541.216 238.301 541.763 238.558C541.86 238.591 549.424 241.52 559.629 239.073C573.116 235.822 585.091 224.588 594.33 206.626C594.394 204.565 594.877 190.337 596.036 176.302C596.776 167.418 597.613 160.304 598.547 155.185C599.899 147.75 601.347 144.724 603.536 144.724C606.884 144.724 609.009 149.681 610.264 160.368C610.94 166.195 611.133 172.053 611.198 174.242C612.582 174.628 615.318 175.659 618.118 178.105C621.659 181.227 625.973 187.408 626.488 199.061C626.52 199.672 626.037 200.22 625.426 200.22C624.814 200.252 624.267 199.769 624.267 199.157C623.398 178.523 610.103 176.27 609.974 176.238C609.427 176.141 609.009 175.691 609.009 175.143C609.009 175.079 608.912 167.772 608.075 160.593C606.594 147.878 604.18 146.977 603.633 146.977C603.472 147.074 602.12 148.039 600.639 156.602C599.77 161.72 598.965 168.705 598.257 177.365C597.066 192.14 596.615 206.787 596.615 206.947C596.615 207.108 596.583 207.269 596.487 207.43C591.175 217.86 584.962 226.101 578.042 231.959C572.473 236.659 566.421 239.814 560.047 241.327C556.828 242.035 553.899 242.325 551.356 242.325Z" fill="#11162B"/>
<path d="M551.356 242.325C545.175 242.325 541.151 240.747 540.926 240.651C540.347 240.425 540.057 239.749 540.315 239.17C540.54 238.591 541.216 238.301 541.763 238.558C541.86 238.591 549.424 241.52 559.629 239.073C573.116 235.822 585.091 224.588 594.33 206.626C594.394 204.565 594.877 190.337 596.036 176.302C596.776 167.418 597.613 160.304 598.547 155.185C599.899 147.75 601.347 144.724 603.536 144.724C606.884 144.724 609.009 149.681 610.264 160.368C610.94 166.195 611.133 172.053 611.198 174.242C612.582 174.628 615.318 175.659 618.118 178.105C621.659 181.227 625.973 187.408 626.488 199.061C626.52 199.672 626.037 200.22 625.426 200.22C624.814 200.252 624.267 199.769 624.267 199.157C623.398 178.523 610.103 176.27 609.974 176.238C609.427 176.141 609.009 175.691 609.009 175.143C609.009 175.079 608.912 167.772 608.075 160.593C606.594 147.878 604.18 146.977 603.633 146.977C603.472 147.074 602.12 148.039 600.639 156.602C599.77 161.72 598.965 168.705 598.257 177.365C597.066 192.14 596.615 206.787 596.615 206.947C596.615 207.108 596.583 207.269 596.487 207.43C591.175 217.86 584.962 226.101 578.042 231.959C572.473 236.659 566.421 239.814 560.047 241.327C556.828 242.035 553.899 242.325 551.356 242.325Z" fill="black" fill-opacity="0.2"/>
<path d="M612.743 177.107C612.55 177.107 612.389 177.075 612.196 176.979C611.648 176.689 611.455 176.013 611.745 175.466L637.626 127.889C637.658 127.856 637.658 127.824 637.69 127.792C638.012 127.309 640.877 123.221 644.321 122.835C645.641 122.674 646.897 123.124 647.927 124.09C649.279 125.378 650.051 128.693 643.742 143.308C640.362 151.13 636.467 158.63 636.435 158.695C636.145 159.242 635.469 159.467 634.922 159.177C634.375 158.888 634.149 158.212 634.439 157.665C634.471 157.6 638.334 150.164 641.682 142.406C648.088 127.567 646.478 125.796 646.382 125.732C645.802 125.217 645.223 124.991 644.547 125.056C642.519 125.281 640.298 127.953 639.557 129.015L613.708 176.528C613.515 176.914 613.129 177.107 612.743 177.107Z" fill="#11162B"/>
<path d="M612.743 177.107C612.55 177.107 612.389 177.075 612.196 176.979C611.648 176.689 611.455 176.013 611.745 175.466L637.626 127.889C637.658 127.856 637.658 127.824 637.69 127.792C638.012 127.309 640.877 123.221 644.321 122.835C645.641 122.674 646.897 123.124 647.927 124.09C649.279 125.378 650.051 128.693 643.742 143.308C640.362 151.13 636.467 158.63 636.435 158.695C636.145 159.242 635.469 159.467 634.922 159.177C634.375 158.888 634.149 158.212 634.439 157.665C634.471 157.6 638.334 150.164 641.682 142.406C648.088 127.567 646.478 125.796 646.382 125.732C645.802 125.217 645.223 124.991 644.547 125.056C642.519 125.281 640.298 127.953 639.557 129.015L613.708 176.528C613.515 176.914 613.129 177.107 612.743 177.107Z" fill="black" fill-opacity="0.2"/>
<path d="M634.793 185.027C634.182 185.027 633.602 184.898 633.023 184.673C624.814 181.454 628.677 168.256 629.16 166.743C629.224 166.485 629.353 166.067 629.643 165.326C629.9 164.682 630.351 163.652 630.93 162.494C632.443 159.564 634.085 157.504 635.823 156.345C638.173 154.768 640.587 154.929 642.841 156.764C647.927 160.948 645.673 172.988 641.907 179.426C639.75 183.128 637.272 185.027 634.793 185.027ZM631.381 167.161C631.381 167.225 631.349 167.29 631.349 167.354C631.317 167.483 627.293 180.037 633.86 182.612C636.531 183.643 639.01 180.005 639.976 178.363C643.71 171.99 645.126 161.624 641.424 158.566C640.298 157.665 639.235 157.375 638.141 157.729C634.536 158.92 631.671 166.163 631.381 167.161Z" fill="#11162B"/>
<path d="M634.793 185.027C634.182 185.027 633.602 184.898 633.023 184.673C624.814 181.454 628.677 168.256 629.16 166.743C629.224 166.485 629.353 166.067 629.643 165.326C629.9 164.682 630.351 163.652 630.93 162.494C632.443 159.564 634.085 157.504 635.823 156.345C638.173 154.768 640.587 154.929 642.841 156.764C647.927 160.948 645.673 172.988 641.907 179.426C639.75 183.128 637.272 185.027 634.793 185.027ZM631.381 167.161C631.381 167.225 631.349 167.29 631.349 167.354C631.317 167.483 627.293 180.037 633.86 182.612C636.531 183.643 639.01 180.005 639.976 178.363C643.71 171.99 645.126 161.624 641.424 158.566C640.298 157.665 639.235 157.375 638.141 157.729C634.536 158.92 631.671 166.163 631.381 167.161Z" fill="black" fill-opacity="0.2"/>
<path d="M641.457 191.078C640.426 191.078 639.59 190.627 639.074 189.823C636.467 185.767 636.95 182.451 636.982 182.322C637.079 181.711 637.658 181.292 638.27 181.389C638.881 181.485 639.3 182.065 639.203 182.676C639.203 182.773 638.849 185.316 640.974 188.599C641.038 188.696 641.167 188.921 641.875 188.76C645.352 187.988 653.174 179.425 654.365 170.895C654.719 168.448 654.3 166.71 653.142 165.777C651.017 164.038 646.607 165.004 645.062 165.519C644.482 165.712 643.839 165.39 643.646 164.811C643.452 164.231 643.742 163.588 644.354 163.394C644.611 163.298 651.081 161.141 654.59 164.038C656.393 165.519 657.069 167.933 656.586 171.217C655.298 180.52 646.929 189.984 642.358 190.982C642.036 191.046 641.746 191.078 641.457 191.078Z" fill="#11162B"/>
<path d="M641.457 191.078C640.426 191.078 639.59 190.627 639.074 189.823C636.467 185.767 636.95 182.451 636.982 182.322C637.079 181.711 637.658 181.292 638.27 181.389C638.881 181.485 639.3 182.065 639.203 182.676C639.203 182.773 638.849 185.316 640.974 188.599C641.038 188.696 641.167 188.921 641.875 188.76C645.352 187.988 653.174 179.425 654.365 170.895C654.719 168.448 654.3 166.71 653.142 165.777C651.017 164.038 646.607 165.004 645.062 165.519C644.482 165.712 643.839 165.39 643.646 164.811C643.452 164.231 643.742 163.588 644.354 163.394C644.611 163.298 651.081 161.141 654.59 164.038C656.393 165.519 657.069 167.933 656.586 171.217C655.298 180.52 646.929 189.984 642.358 190.982C642.036 191.046 641.746 191.078 641.457 191.078Z" fill="black" fill-opacity="0.2"/>
<path d="M649.021 194.812C648.571 194.812 648.12 194.716 647.734 194.49C644.837 192.881 644.837 188.117 644.837 187.602C644.837 186.99 645.352 186.475 645.995 186.507C646.607 186.507 647.122 187.022 647.09 187.666C647.058 188.664 647.347 191.754 648.828 192.559C649.955 193.171 654.783 189.758 660.578 181.968C661.479 180.777 661.736 179.715 661.382 178.781C660.545 176.464 656.264 175.047 654.687 174.661C654.075 174.532 653.689 173.921 653.85 173.309C653.979 172.697 654.59 172.311 655.202 172.472C655.91 172.633 662.091 174.146 663.507 178.009C664.119 179.683 663.732 181.485 662.38 183.288C660.835 185.348 653.528 194.812 649.021 194.812Z" fill="#11162B"/>
<path d="M649.021 194.812C648.571 194.812 648.12 194.716 647.734 194.49C644.837 192.881 644.837 188.117 644.837 187.602C644.837 186.99 645.352 186.475 645.995 186.507C646.607 186.507 647.122 187.022 647.09 187.666C647.058 188.664 647.347 191.754 648.828 192.559C649.955 193.171 654.783 189.758 660.578 181.968C661.479 180.777 661.736 179.715 661.382 178.781C660.545 176.464 656.264 175.047 654.687 174.661C654.075 174.532 653.689 173.921 653.85 173.309C653.979 172.697 654.59 172.311 655.202 172.472C655.91 172.633 662.091 174.146 663.507 178.009C664.119 179.683 663.732 181.485 662.38 183.288C660.835 185.348 653.528 194.812 649.021 194.812Z" fill="black" fill-opacity="0.2"/>
<path d="M534.295 304.162C534.037 304.162 533.78 304.162 533.522 304.162C532.911 304.162 532.396 303.647 532.396 303.036C532.396 302.424 532.911 301.909 533.522 301.909C577.655 302.167 610.779 278.99 631.928 232.99C633.505 229.545 633.763 228.998 634.6 228.869C641.489 227.775 645.255 218.246 647.219 210.424C649.375 201.701 649.794 193.17 649.826 193.106C649.858 192.494 650.405 192.011 651.017 192.044C651.629 192.076 652.111 192.591 652.079 193.235C652.015 194.683 650.277 228.097 635.405 231.058C635.115 231.573 634.568 232.732 634.021 233.955C630.576 241.423 622.529 258.935 606.788 274.676C587.184 294.216 562.783 304.162 534.295 304.162Z" fill="#11162B"/>
<path d="M534.295 304.162C534.037 304.162 533.78 304.162 533.522 304.162C532.911 304.162 532.396 303.647 532.396 303.036C532.396 302.424 532.911 301.909 533.522 301.909C577.655 302.167 610.779 278.99 631.928 232.99C633.505 229.545 633.763 228.998 634.6 228.869C641.489 227.775 645.255 218.246 647.219 210.424C649.375 201.701 649.794 193.17 649.826 193.106C649.858 192.494 650.405 192.011 651.017 192.044C651.629 192.076 652.111 192.591 652.079 193.235C652.015 194.683 650.277 228.097 635.405 231.058C635.115 231.573 634.568 232.732 634.021 233.955C630.576 241.423 622.529 258.935 606.788 274.676C587.184 294.216 562.783 304.162 534.295 304.162Z" fill="black" fill-opacity="0.2"/>
<path d="M634.793 231.091C634.407 231.091 634.053 230.898 633.828 230.544C627.164 219.47 617.121 213.966 609.846 211.262C601.895 208.333 595.457 208.043 595.392 208.011C594.781 207.978 594.298 207.463 594.298 206.852C594.33 206.24 594.845 205.725 595.457 205.757C595.746 205.757 602.249 206.047 610.522 209.105C618.151 211.906 628.741 217.7 635.727 229.353C636.049 229.9 635.888 230.576 635.34 230.898C635.18 231.059 634.986 231.091 634.793 231.091Z" fill="#11162B"/>
<path d="M634.793 231.091C634.407 231.091 634.053 230.898 633.828 230.544C627.164 219.47 617.121 213.966 609.846 211.262C601.895 208.333 595.457 208.043 595.392 208.011C594.781 207.978 594.298 207.463 594.298 206.852C594.33 206.24 594.845 205.725 595.457 205.757C595.746 205.757 602.249 206.047 610.522 209.105C618.151 211.906 628.741 217.7 635.727 229.353C636.049 229.9 635.888 230.576 635.34 230.898C635.18 231.059 634.986 231.091 634.793 231.091Z" fill="black" fill-opacity="0.2"/>
<path d="M323.513 50.438C323.32 50.438 323.159 50.4058 322.966 50.3093C322.419 50.0196 322.225 49.3114 322.515 48.7641C323.674 46.6074 327.247 43.0343 332.333 44.7725C332.913 44.9657 333.235 45.6095 333.041 46.1889C332.848 46.7683 332.204 47.0902 331.625 46.8971C327.054 45.3198 324.608 49.6333 324.511 49.8264C324.318 50.2449 323.932 50.438 323.513 50.438Z" fill="#11162B"/>
<path d="M323.513 50.438C323.32 50.438 323.159 50.4058 322.966 50.3093C322.419 50.0196 322.225 49.3114 322.515 48.7641C323.674 46.6074 327.247 43.0343 332.333 44.7725C332.913 44.9657 333.235 45.6095 333.041 46.1889C332.848 46.7683 332.204 47.0902 331.625 46.8971C327.054 45.3198 324.608 49.6333 324.511 49.8264C324.318 50.2449 323.932 50.438 323.513 50.438Z" fill="black" fill-opacity="0.2"/>
<path d="M377.56 49.4403C377.142 49.4403 376.756 49.2149 376.563 48.8286C375.243 46.2856 370.511 45.5774 368.805 45.4809C368.193 45.4487 367.71 44.9336 367.71 44.322C367.71 43.7104 368.257 43.2275 368.869 43.2275C369.159 43.2275 376.369 43.5816 378.558 47.7664C378.848 48.3136 378.623 48.9896 378.075 49.2793C377.915 49.4081 377.754 49.4403 377.56 49.4403Z" fill="#11162B"/>
<path d="M377.56 49.4403C377.142 49.4403 376.756 49.2149 376.563 48.8286C375.243 46.2856 370.511 45.5774 368.805 45.4809C368.193 45.4487 367.71 44.9336 367.71 44.322C367.71 43.7104 368.257 43.2275 368.869 43.2275C369.159 43.2275 376.369 43.5816 378.558 47.7664C378.848 48.3136 378.623 48.9896 378.075 49.2793C377.915 49.4081 377.754 49.4403 377.56 49.4403Z" fill="black" fill-opacity="0.2"/>
<path d="M359.759 79.6993C358.246 79.6993 356.959 79.1521 356.765 79.0555C356.186 78.798 355.961 78.122 356.218 77.5747C356.476 76.9953 357.152 76.77 357.699 77.0275C358.246 77.285 359.952 77.8001 361.047 77.1885C361.691 76.8344 362.077 76.094 362.238 74.9673C362.367 73.9694 362.206 73.1969 361.691 72.6818C360.596 71.5551 358.182 71.523 357.345 71.5873C357.023 71.6195 356.701 71.523 356.476 71.2976C356.25 71.0723 356.089 70.7826 356.089 70.4607V56.6188C356.089 56.0072 356.605 55.4922 357.216 55.4922C357.828 55.4922 358.343 56.0072 358.343 56.6188V69.3018C359.727 69.334 361.916 69.6559 363.3 71.1045C364.008 71.8127 364.749 73.1325 364.459 75.2892C364.201 77.1563 363.397 78.4761 362.109 79.1842C361.369 79.5383 360.532 79.6993 359.759 79.6993Z" fill="#11162B"/>
<path d="M359.759 79.6993C358.246 79.6993 356.959 79.1521 356.765 79.0555C356.186 78.798 355.961 78.122 356.218 77.5747C356.476 76.9953 357.152 76.77 357.699 77.0275C358.246 77.285 359.952 77.8001 361.047 77.1885C361.691 76.8344 362.077 76.094 362.238 74.9673C362.367 73.9694 362.206 73.1969 361.691 72.6818C360.596 71.5551 358.182 71.523 357.345 71.5873C357.023 71.6195 356.701 71.523 356.476 71.2976C356.25 71.0723 356.089 70.7826 356.089 70.4607V56.6188C356.089 56.0072 356.605 55.4922 357.216 55.4922C357.828 55.4922 358.343 56.0072 358.343 56.6188V69.3018C359.727 69.334 361.916 69.6559 363.3 71.1045C364.008 71.8127 364.749 73.1325 364.459 75.2892C364.201 77.1563 363.397 78.4761 362.109 79.1842C361.369 79.5383 360.532 79.6993 359.759 79.6993Z" fill="black" fill-opacity="0.2"/>
<path d="M344.437 100.656C338.546 100.656 336.389 95.8917 336.067 93.1877C336.003 92.5761 336.421 91.9967 337.065 91.9323C337.677 91.8679 338.256 92.2864 338.321 92.9302C338.417 93.574 339.286 99.0464 345.531 98.3382C346.143 98.2738 346.722 98.7245 346.787 99.3361C346.851 99.9477 346.4 100.527 345.789 100.591C345.306 100.624 344.855 100.656 344.437 100.656Z" fill="#11162B"/>
<path d="M344.437 100.656C338.546 100.656 336.389 95.8917 336.067 93.1877C336.003 92.5761 336.421 91.9967 337.065 91.9323C337.677 91.8679 338.256 92.2864 338.321 92.9302C338.417 93.574 339.286 99.0464 345.531 98.3382C346.143 98.2738 346.722 98.7245 346.787 99.3361C346.851 99.9477 346.4 100.527 345.789 100.591C345.306 100.624 344.855 100.656 344.437 100.656Z" fill="black" fill-opacity="0.2"/>
<path d="M333.009 64.892C331.689 64.892 330.595 63.8297 330.595 62.4778V59.0012C330.595 57.6814 331.657 56.5869 333.009 56.5869C334.329 56.5869 335.423 57.6492 335.423 59.0012V62.4778C335.423 63.7976 334.329 64.892 333.009 64.892Z" fill="#11162B"/>
<path d="M333.009 64.892C331.689 64.892 330.595 63.8297 330.595 62.4778V59.0012C330.595 57.6814 331.657 56.5869 333.009 56.5869C334.329 56.5869 335.423 57.6492 335.423 59.0012V62.4778C335.423 63.7976 334.329 64.892 333.009 64.892Z" fill="black" fill-opacity="0.2"/>
<path d="M371.477 64.892C370.157 64.892 369.062 63.8297 369.062 62.4778V59.0012C369.062 57.6814 370.125 56.5869 371.477 56.5869C372.796 56.5869 373.891 57.6492 373.891 59.0012V62.4778C373.891 63.7976 372.829 64.892 371.477 64.892Z" fill="#11162B"/>
<path d="M371.477 64.892C370.157 64.892 369.062 63.8297 369.062 62.4778V59.0012C369.062 57.6814 370.125 56.5869 371.477 56.5869C372.796 56.5869 373.891 57.6492 373.891 59.0012V62.4778C373.891 63.7976 372.829 64.892 371.477 64.892Z" fill="black" fill-opacity="0.2"/>
<path d="M335.906 121.772C335.906 121.772 342.634 133.619 362.302 133.619V122.288L335.906 121.772Z" fill="#11162B"/>
<path d="M335.906 121.772C335.906 121.772 342.634 133.619 362.302 133.619V122.288L335.906 121.772Z" fill="black" fill-opacity="0.2"/>
<path d="M434.634 197.162C433.282 197.162 431.962 196.646 430.996 195.649C429.838 194.49 429.29 192.912 429.484 191.271L431.769 173.502C432.059 171.248 433.829 169.381 436.083 169.027L444.034 167.74C445.643 167.482 447.285 167.965 448.476 169.092C449.667 170.218 450.246 171.828 450.053 173.437L448.057 191.335C447.8 193.685 445.965 195.584 443.615 195.906L435.374 197.097C435.117 197.162 434.859 197.162 434.634 197.162ZM436.437 171.281C435.149 171.506 434.151 172.504 433.99 173.824L431.705 191.593C431.576 192.526 431.898 193.427 432.574 194.071C433.25 194.715 434.151 195.037 435.085 194.908L443.325 193.717C444.677 193.524 445.707 192.462 445.836 191.11L447.832 173.212C447.929 172.278 447.607 171.377 446.931 170.733C446.255 170.089 445.321 169.8 444.42 169.961L436.437 171.281Z" fill="#11162B"/>
<path d="M434.634 197.162C433.282 197.162 431.962 196.646 430.996 195.649C429.838 194.49 429.29 192.912 429.484 191.271L431.769 173.502C432.059 171.248 433.829 169.381 436.083 169.027L444.034 167.74C445.643 167.482 447.285 167.965 448.476 169.092C449.667 170.218 450.246 171.828 450.053 173.437L448.057 191.335C447.8 193.685 445.965 195.584 443.615 195.906L435.374 197.097C435.117 197.162 434.859 197.162 434.634 197.162ZM436.437 171.281C435.149 171.506 434.151 172.504 433.99 173.824L431.705 191.593C431.576 192.526 431.898 193.427 432.574 194.071C433.25 194.715 434.151 195.037 435.085 194.908L443.325 193.717C444.677 193.524 445.707 192.462 445.836 191.11L447.832 173.212C447.929 172.278 447.607 171.377 446.931 170.733C446.255 170.089 445.321 169.8 444.42 169.961L436.437 171.281Z" fill="black" fill-opacity="0.2"/>
</svg>
