<svg xmlns="http://www.w3.org/2000/svg" viewBox="0 0 421.26 64.44"><defs><style>.cls-1{fill:#231f20;}</style></defs><g id="Layer_2" data-name="Layer 2"><g id="Layer_1-2" data-name="Layer 1"><path class="cls-1" d="M201.38,19.68V62.74H181.17V19.68H166.39V2.61h49.77V19.68Z"/><path class="cls-1" d="M217.09,32.33q0-14.17,9.43-22.8T250.47.91q14.52,0,24,8.62t9.47,22.8q0,14.27-9.51,23.19t-24,8.92q-14.44,0-23.91-8.92T217.09,32.33Zm21.49,0A14,14,0,0,0,241.93,42a11.48,11.48,0,0,0,17,0,13.89,13.89,0,0,0,3.4-9.64A13.07,13.07,0,0,0,259,23a12,12,0,0,0-17.07,0A13.11,13.11,0,0,0,238.58,32.33Z"/><path class="cls-1" d="M323,64.27q-14.44,0-23.87-8.67t-9.42-22.93q0-14.18,9.38-23T322.32.91A39,39,0,0,1,335.65,3.2,27.61,27.61,0,0,1,346,9.49l-11.8,14.18a13.15,13.15,0,0,0-10.7-4.84,12.31,12.31,0,0,0-9.05,3.91,13.54,13.54,0,0,0-3.86,9.93q0,6.63,3.4,10.41t10.36,3.78a10.91,10.91,0,0,0,4.75-.85V41.42h-9.68V25.54H347V58.41a41.78,41.78,0,0,1-10.91,4.2A53.8,53.8,0,0,1,323,64.27Z"/><path class="cls-1" d="M354.42,32.33q0-14.17,9.43-22.8T387.8.91q14.52,0,24,8.62t9.47,22.8q0,14.27-9.51,23.19T387.8,64.44q-14.44,0-23.91-8.92T354.42,32.33Zm21.49,0A14,14,0,0,0,379.26,42a11.48,11.48,0,0,0,17,0,13.89,13.89,0,0,0,3.4-9.64A13.07,13.07,0,0,0,396.33,23a12,12,0,0,0-17.07,0A13.11,13.11,0,0,0,375.91,32.33Z"/><path class="cls-1" d="M68.49,55.68C73.9,52,79.39,48.2,86.61,45a91.85,91.85,0,0,0,14.88-8.21c6.61-4.67,15.38-11.52,20.61-17.72,4.11,2.79,16.43,5.36,23.44,0L129.39,9.76,116.62,2.29c-2.62,3.16-5.19,6-9.55,10.42A97.33,97.33,0,0,1,92.68,25c-4.55,3.27-9.56,5.5-14.45,7.86C61.19,41.09,50.38,51.12,46,56.43l12.77,7.38A70.42,70.42,0,0,1,68.49,55.68Z"/><path class="cls-1" d="M55.26,32.3c3.27-1.78,24.38-13.22,33.21-23.46L74.2.64a45,45,0,0,1-3.31,3.24c-5.72,5.57-23.19,14.52-28.37,18A70.3,70.3,0,0,0,22.3,42.34l12.39,7.15A70,70,0,0,1,55.26,32.3Z"/><path class="cls-1" d="M16.13,30.61C21,24.44,32.57,14.11,44.55,7.48L31.44,0a41.29,41.29,0,0,0-7.26,3.92C14.21,10.6,2.84,22.1,0,29.09l12.32,7.07C13.56,34.21,14.82,32.36,16.13,30.61Z"/></g></g></svg>