<svg width="34" height="34" viewBox="0 0 34 34" fill="none" xmlns="http://www.w3.org/2000/svg">
<path d="M0.80059 33.3526C0.892778 33.4448 1.04028 33.4816 1.16934 33.4632L30.7062 26.4938C30.8537 26.457 30.9643 26.3463 31.0012 26.1988L33.3428 15.9291C33.3612 15.8001 33.3243 15.6526 33.2321 15.5604L18.6112 0.939454C18.519 0.847266 18.3715 0.810391 18.2425 0.828828L7.97278 3.17039C7.82528 3.20727 7.71465 3.31789 7.67778 3.46539L0.708405 33.0023C0.67153 33.1129 0.708403 33.2604 0.80059 33.3526ZM30.2822 25.7748L1.61184 32.5413L8.3784 3.87102L18.2056 1.64008L32.5131 15.9476L30.2822 25.7748Z" fill="white"/>
<path d="M0.80059 33.3526C0.929653 33.4816 1.13246 33.4999 1.2984 33.4077L23.2021 18.8052C23.2759 18.7684 23.2943 18.7131 23.3312 18.6393L27.3875 10.0843C27.4796 9.8815 27.4059 9.66024 27.2031 9.56806C27.0003 9.47587 26.779 9.54962 26.6868 9.75243L22.6859 18.2152L0.874336 32.7624C0.689961 32.8731 0.653086 33.1312 0.763711 33.3156C0.763711 33.3156 0.782153 33.3341 0.80059 33.3526Z" fill="white"/>
<path d="M19.0538 15.0994L30.3375 26.3832C30.485 26.5307 30.7432 26.5307 30.8907 26.3832C31.0382 26.2357 31.0382 25.9775 30.8907 25.83L19.6069 14.5463C19.4594 14.3988 19.2013 14.3988 19.0538 14.5463C18.9063 14.6938 18.9063 14.9519 19.0538 15.0994Z" fill="white"/>
<path d="M0.80059 33.3526C0.819028 33.371 0.837549 33.3893 0.855986 33.4077C1.04036 33.5184 1.28005 33.463 1.40911 33.2971L15.9563 11.4855L24.4007 7.46617C24.6035 7.37398 24.6772 7.15273 24.585 6.94992C24.4929 6.74711 24.2716 6.67336 24.0688 6.76554L15.5138 10.8218C15.44 10.8587 15.4032 10.8955 15.3479 10.9509L0.745363 32.8546C0.653175 33.0205 0.671528 33.2235 0.80059 33.3526Z" fill="white"/>
<path d="M7.77004 3.81565L19.0538 15.0994C19.2013 15.2469 19.4594 15.2469 19.6069 15.0994C19.7544 14.9519 19.7544 14.6938 19.6069 14.5463L8.32316 3.26253C8.17566 3.11503 7.91754 3.11503 7.77004 3.26253C7.62254 3.41003 7.62254 3.66815 7.77004 3.81565Z" fill="white"/>
</svg>
