<svg width="28" height="40" viewBox="0 0 28 40" fill="none" xmlns="http://www.w3.org/2000/svg">
<path d="M18.9225 32.8699H9.10498C8.91248 32.8699 8.74748 32.7599 8.71998 32.5674V32.5124C8.27998 30.7799 7.61998 29.0749 6.79498 27.4524C5.94248 25.8299 4.92498 24.3174 3.71498 22.9149C1.56998 20.4399 0.387482 17.2499 0.387482 13.9774C0.387482 10.2374 1.87248 6.71736 4.56748 4.13236C7.26248 1.51986 10.81 0.172364 14.5775 0.309864C18.125 0.447364 21.425 1.93236 23.9 4.51736C26.375 7.10236 27.7225 10.4574 27.7225 14.0049C27.7225 17.2774 26.54 20.4399 24.395 22.9149C22.0025 25.6649 20.27 28.9924 19.39 32.4849V32.5399C19.28 32.7049 19.115 32.8699 18.9225 32.8699ZM19.0875 32.4299H19.1425L18.95 32.4024L19.0875 32.4299ZM9.40748 32.0449H18.62C19.555 28.5249 21.315 25.1699 23.735 22.3649C25.7425 20.0274 26.8425 17.0574 26.87 13.9774C26.87 7.15736 21.3425 1.38236 14.5225 1.13486C11.0025 0.997364 7.64748 2.26236 5.11748 4.70986C2.58748 7.15736 1.18498 10.4299 1.18498 13.9774C1.18498 17.0574 2.28498 20.0549 4.31998 22.3649C5.55748 23.7949 6.62998 25.3899 7.50998 27.0399C8.30748 28.6349 8.96748 30.3124 9.40748 32.0449Z" fill="white"/>
<path d="M15.8425 39.7173H12.1575C10.2325 39.7173 8.63748 38.1498 8.63748 36.1973V32.3748C8.63748 32.1823 8.77498 31.9898 8.99498 31.9623C9.10498 31.9623 9.18748 31.9623 9.26998 32.0173H18.73C18.8125 31.9623 18.895 31.9348 19.005 31.9623C19.1975 31.9898 19.3625 32.1548 19.3625 32.3748V36.1973C19.3625 38.1223 17.795 39.7173 15.8425 39.7173ZM9.48998 32.8698V36.2248C9.48998 37.7098 10.7 38.9198 12.185 38.9198H15.87C17.355 38.9198 18.565 37.7098 18.565 36.2248V32.8698H9.48998Z" fill="white"/>
<path d="M19.665 34.4922H8.38998C8.16998 34.4922 7.97748 34.2997 7.97748 34.0798C7.97748 33.8597 8.16998 33.6672 8.38998 33.6672H19.665C19.885 33.6672 20.0775 33.8597 20.0775 34.0798C20.0775 34.2997 19.885 34.4922 19.665 34.4922Z" fill="white"/>
<path d="M19.665 36.2522H8.38998C8.16998 36.2522 7.97748 36.0597 7.97748 35.8397C7.97748 35.6197 8.16998 35.4272 8.38998 35.4272H19.665C19.885 35.4272 20.0775 35.6197 20.0775 35.8397C20.0775 36.0597 19.885 36.2522 19.665 36.2522Z" fill="white"/>
<path d="M19.665 38.0122H8.38998C8.16998 38.0122 7.97748 37.8197 7.97748 37.5997C7.97748 37.3797 8.16998 37.1872 8.38998 37.1872H19.665C19.885 37.1872 20.0775 37.3797 20.0775 37.5997C20.0775 37.8197 19.885 38.0122 19.665 38.0122Z" fill="white"/>
<path d="M16.2275 32.7874C16.0075 32.7874 15.815 32.5949 15.815 32.3749V18.4599H12.185V32.3749C12.185 32.5949 11.9925 32.7874 11.7725 32.7874C11.5525 32.7874 11.36 32.5949 11.36 32.3749V18.4599H10.37C9.57246 18.4599 8.91246 18.0199 8.66496 17.3599C8.44496 16.7549 8.60996 16.0949 9.13246 15.6549C9.68246 15.1599 10.5075 15.0499 11.2225 15.3799C11.855 15.6549 12.2125 16.2049 12.2125 16.8374V17.6624H15.8425V16.8374C15.8425 16.2049 16.2275 15.6549 16.8325 15.3799C17.5475 15.0499 18.345 15.1874 18.9225 15.6824C19.445 16.1224 19.61 16.7824 19.39 17.3874C19.1425 18.0749 18.455 18.4874 17.685 18.4874H16.695V32.3749C16.64 32.5949 16.475 32.7874 16.2275 32.7874ZM16.64 17.6349H17.63C18.1525 17.6349 18.4825 17.3324 18.565 17.0574C18.675 16.7824 18.5925 16.4799 18.345 16.2599C17.96 15.9299 17.465 15.9574 17.1625 16.0949C16.9975 16.1774 16.64 16.3699 16.64 16.8099V17.6349ZM10.37 16.0124C10.1225 16.0124 9.87496 16.0949 9.65496 16.2599C9.40746 16.4799 9.32496 16.7824 9.43496 17.0574C9.54496 17.3324 9.84746 17.6349 10.37 17.6349H11.36V16.8099C11.36 16.3699 11.0025 16.1499 10.8375 16.0949C10.7275 16.0399 10.535 16.0124 10.37 16.0124Z" fill="white"/>
</svg>
