<svg width="42" height="42" viewBox="0 0 42 42" fill="none" xmlns="http://www.w3.org/2000/svg">
<path fill-rule="evenodd" clip-rule="evenodd" d="M38.4562 25.2787H28.4025C28.2188 25.2787 28.0613 25.1212 28.0613 24.9374V7.53365C28.0613 7.3499 28.2188 7.1924 28.4025 7.1924H38.4562C38.64 7.1924 38.7975 7.3499 38.7975 7.53365V24.9374C38.7975 25.1212 38.64 25.2787 38.4562 25.2787ZM28.7438 24.5962H38.115V7.84865H28.7438V24.5962Z" fill="white"/>
<path fill-rule="evenodd" clip-rule="evenodd" d="M32.6813 27.4312C32.8912 27.6412 33.1537 27.7462 33.4425 27.7462C33.7312 27.7462 33.9937 27.6412 34.2037 27.4312C34.6237 27.0112 34.6237 26.3287 34.2037 25.9087C33.9937 25.6987 33.7312 25.5937 33.4425 25.5937C33.1537 25.5937 32.8912 25.6987 32.6813 25.9087C32.2613 26.3287 32.2613 27.0112 32.6813 27.4312ZM32.9962 26.1974C33.1012 26.0924 33.285 26.0137 33.4425 26.0137C33.6 26.0137 33.7575 26.0924 33.8887 26.1974C33.9937 26.3024 34.0725 26.4862 34.0725 26.6437C34.0725 26.8012 34.02 26.9587 33.8887 27.0899C33.6525 27.3262 33.2325 27.3262 32.9962 27.0899C32.76 26.8537 32.76 26.4337 32.9962 26.1974Z" fill="white"/>
<path fill-rule="evenodd" clip-rule="evenodd" d="M5.06625 13.9387C4.2525 13.9387 3.59625 13.2824 3.59625 12.4687C3.59625 11.6549 4.2525 10.9987 5.06625 10.9987C5.88 10.9987 6.53625 11.6549 6.53625 12.4687C6.53625 13.2824 5.88 13.9387 5.06625 13.9387ZM5.06625 11.6812C4.62 11.6812 4.27875 12.0487 4.27875 12.4687C4.27875 12.9149 4.64625 13.2562 5.06625 13.2562C5.5125 13.2562 5.85375 12.8887 5.85375 12.4687C5.88 12.0224 5.5125 11.6812 5.06625 11.6812Z" fill="white"/>
<path fill-rule="evenodd" clip-rule="evenodd" d="M7.42875 12.4687C7.42875 13.2824 8.085 13.9387 8.89875 13.9387C9.7125 13.9387 10.3688 13.2824 10.3688 12.4687C10.3688 11.6549 9.7125 10.9987 8.89875 10.9987C8.085 10.9987 7.42875 11.6549 7.42875 12.4687ZM8.11125 12.4687C8.11125 12.0487 8.4525 11.6812 8.89875 11.6812C9.345 11.6812 9.7125 12.0224 9.68625 12.4687C9.68625 12.8887 9.345 13.2562 8.89875 13.2562C8.47875 13.2562 8.11125 12.9149 8.11125 12.4687Z" fill="white"/>
<path fill-rule="evenodd" clip-rule="evenodd" d="M12.7312 13.9387C11.9175 13.9387 11.2613 13.2824 11.2613 12.4687C11.2613 11.6549 11.9175 10.9987 12.7312 10.9987C13.545 10.9987 14.2013 11.6549 14.2013 12.4687C14.2013 13.2824 13.545 13.9387 12.7312 13.9387ZM12.7312 11.6812C12.285 11.6812 11.9438 12.0487 11.9438 12.4687C11.9438 12.9149 12.3113 13.2562 12.7312 13.2562C13.1512 13.2562 13.5188 12.8887 13.5188 12.4687C13.545 12.0224 13.1775 11.6812 12.7312 11.6812Z" fill="white"/>
<path fill-rule="evenodd" clip-rule="evenodd" d="M33.7838 28.6387H38.5613C39.4538 28.6387 40.215 27.9037 40.215 26.9849V7.42865C40.215 6.5099 39.48 5.7749 38.5613 5.7749H28.3238C27.405 5.7749 26.67 6.5099 26.67 7.42865V9.7124H2.12625C1.9425 9.7124 1.785 9.8699 1.785 10.0537V35.8837C1.785 36.0674 1.9425 36.2249 2.12625 36.2249H33.4425C33.6263 36.2249 33.7838 36.0674 33.7838 35.9099V28.6387ZM33.1013 28.6387H28.3238C27.405 28.6387 26.67 27.9037 26.67 26.9849V15.2512H2.4675V35.5687H33.1013V28.6387ZM27.3525 26.9849C27.3525 27.5099 27.7988 27.9562 28.3238 27.9562H38.5613C39.0863 27.9562 39.5325 27.5099 39.5325 26.9849V7.42865C39.5325 6.90365 39.0863 6.4574 38.5613 6.4574H28.3238C27.7988 6.4574 27.3525 6.90365 27.3525 7.42865V26.9849ZM26.67 10.3949V14.5687H2.4675V10.3949H26.67Z" fill="white"/>
</svg>
