<svg width="351" height="296" viewBox="0 0 351 296" fill="none" xmlns="http://www.w3.org/2000/svg">
<g opacity="0.4">
<path d="M358.206 261.023H11.9961C11.9961 261.023 7.16875 213.559 55.9336 216.652C55.9336 216.652 43.1859 169.362 85.8227 179.045C85.8227 179.045 93.2805 157.077 112.185 170.691C112.185 170.691 161.615 90.1876 211.334 142.219C217.433 148.607 227.29 172.281 215.005 182.37C215.005 182.37 260.272 157.77 277.384 207.402C294.526 257.063 313.864 219.716 338.03 235.095C362.138 250.473 358.206 261.023 358.206 261.023Z" fill="#E4EEF7"/>
<path d="M290.248 266.227C290.248 266.227 301.521 240.963 294.93 229.053C293.89 227.145 291.288 226.799 289.785 228.359C286.577 231.713 282.356 240.905 284.409 266.227H290.248Z" fill="url(#paint0_linear_29_1061)"/>
<path d="M287.906 266.256C287.935 265.967 292.531 229.4 292.531 229.4C290.681 238.014 287.386 265.88 287.357 266.169L287.906 266.256Z" fill="white"/>
<path d="M297.041 271.025C297.041 271.025 324.906 245.385 323.027 226.799C322.738 223.85 319.674 222 316.928 223.156C311.089 225.613 300.798 234.921 289.669 267.845L297.041 271.025Z" fill="url(#paint1_linear_29_1061)"/>
<path d="M294.092 269.811C294.295 269.464 319.819 225.989 319.819 225.989C312.823 235.817 293.63 269.088 293.398 269.406L294.092 269.811Z" fill="white"/>
<path d="M333.578 280.593C333.578 280.593 324.039 254.289 300.452 264.724C300.452 264.724 290.479 269.262 279.581 257.931C279.581 257.931 259.405 231.857 239.893 240.471C239.893 240.471 230.354 244.114 225.382 261.804C225.382 261.804 200.436 260.908 197.256 280.853L333.578 280.593Z" fill="url(#paint2_linear_29_1061)"/>
<path d="M278.454 280.824C278.454 280.824 268.915 257.699 253.508 267.209C253.508 267.209 247.148 274.465 239.893 268.106C239.893 268.106 226.741 250.415 211.767 256.774C196.794 263.134 191.359 280.824 191.359 280.824H278.454Z" fill="url(#paint3_linear_29_1061)"/>
<path d="M74.2312 273.337C74.2312 273.337 63.218 247.958 49.95 244.807C47.8398 244.316 45.8164 245.992 45.9609 248.131C46.25 252.756 50.2102 262.093 70.2711 277.673L74.2312 273.337Z" fill="url(#paint4_linear_29_1061)"/>
<path d="M72.6992 275.072C72.5258 274.841 48.6203 246.802 48.6203 246.802C53.7367 253.999 72.0633 275.216 72.2656 275.448L72.6992 275.072Z" fill="white"/>
<path d="M78.1047 270.476C78.1047 270.476 75.4164 238.679 62.1195 230.325C60.0094 228.995 57.1766 230.094 56.5406 232.493C55.1531 237.667 56.0203 249.316 72.2078 273.742L78.1047 270.476Z" fill="url(#paint5_linear_29_1061)"/>
<path d="M75.7922 271.805C75.6766 271.488 59.9227 232.031 59.9227 232.031C62.8422 241.772 75.0695 271.748 75.1852 272.037L75.7922 271.805Z" fill="white"/>
<path d="M27.4609 280.795C27.4609 280.795 35.2078 259.087 54.4305 267.585C54.4305 267.585 62.5531 271.285 71.4273 262.035C71.4273 262.035 87.875 240.789 103.745 247.813C103.745 247.813 111.491 250.762 115.567 265.186C115.567 265.186 135.888 264.434 138.461 280.708L27.4609 280.795Z" fill="url(#paint6_linear_29_1061)"/>
<path d="M113.602 195.262C111.463 195.262 109.699 197.025 109.699 199.164H108.832C108.832 196.534 110.971 194.395 113.602 194.395C116.232 194.395 118.371 196.534 118.371 199.164H117.504C117.504 197.025 115.741 195.262 113.602 195.262Z" fill="url(#paint7_linear_29_1061)"/>
<path d="M83.9727 124.354L84.8977 124.615C85.9672 123.401 87.6437 122.822 89.3203 123.285C91.6328 123.921 92.9914 126.32 92.3555 128.604C91.7195 130.916 89.3203 132.275 87.0367 131.639C85.5047 131.205 84.3773 129.991 84.0016 128.546L83.0477 128.286C83.3656 130.222 84.782 131.899 86.8055 132.477C89.5805 133.229 92.4422 131.61 93.1937 128.835C93.9453 126.06 92.3266 123.198 89.5516 122.447C87.3836 121.869 85.2156 122.707 83.9727 124.354Z" fill="url(#paint8_linear_29_1061)"/>
<path d="M132.448 61.5124C131.813 60.9921 131.466 60.2405 131.495 59.4312V58.8819C131.495 58.3038 131.234 57.7835 130.801 57.4366C130.338 57.0898 129.76 57.003 129.211 57.1765C128.402 57.4366 127.505 57.2921 126.812 56.7718C126.118 56.2515 125.742 55.4421 125.771 54.5749L125.8 54.0257C125.829 53.4765 125.598 52.9851 125.193 52.6382C124.788 52.2913 124.239 52.1468 123.719 52.2624L123.545 51.4241C124.326 51.2507 125.135 51.4819 125.771 52.0023C126.378 52.5226 126.725 53.303 126.696 54.0835L126.667 54.6327C126.638 55.2108 126.898 55.7601 127.361 56.1069C127.823 56.4538 128.402 56.5694 128.951 56.3671C129.76 56.1069 130.627 56.2515 131.321 56.7429C132.015 57.2632 132.391 58.0437 132.391 58.8819V59.4312C132.391 59.9804 132.622 60.5007 133.084 60.8476C133.518 61.1944 134.096 61.2812 134.645 61.1366L134.848 61.0788C135.657 60.8476 136.495 60.9921 137.16 61.4835C137.825 61.9749 138.201 62.7554 138.201 63.5937H137.334C137.334 63.0444 137.073 62.5241 136.64 62.1773C136.206 61.8304 135.628 61.7437 135.108 61.8882L134.905 61.946C134.096 62.1773 133.258 62.0327 132.593 61.5124C132.506 61.5413 132.477 61.5124 132.448 61.5124Z" fill="url(#paint9_linear_29_1061)"/>
<path d="M274.898 83.6836C272.759 83.6836 270.996 81.9203 270.996 79.7812H270.129C270.129 82.4117 272.268 84.5508 274.898 84.5508C277.529 84.5508 279.668 82.4117 279.668 79.7812H278.801C278.801 81.9203 277.038 83.6836 274.898 83.6836Z" fill="url(#paint10_linear_29_1061)"/>
<path d="M234.083 225.469H221.22L227.868 215.265L234.083 225.469ZM223.272 224.341H232.088L227.81 217.375L223.272 224.341Z" fill="url(#paint11_linear_29_1061)"/>
<path d="M312.968 154.764C312.187 155.024 311.378 154.909 310.684 154.475L310.222 154.157C309.759 153.839 309.152 153.781 308.632 153.984C308.112 154.186 307.707 154.619 307.563 155.169C307.36 156.007 306.753 156.672 305.944 156.961C305.134 157.25 304.238 157.134 303.545 156.643L303.082 156.325C302.648 156.007 302.099 155.92 301.579 156.094C301.059 156.238 300.654 156.643 300.452 157.134L299.642 156.816C299.931 156.065 300.538 155.487 301.319 155.255C302.099 155.024 302.909 155.14 303.573 155.602L304.036 155.92C304.498 156.238 305.106 156.325 305.626 156.123C306.175 155.92 306.551 155.487 306.695 154.909C306.898 154.07 307.476 153.434 308.285 153.116C309.095 152.798 309.962 152.914 310.655 153.376L311.118 153.694C311.58 154.012 312.159 154.07 312.679 153.868C313.199 153.666 313.604 153.261 313.748 152.712L313.806 152.509C314.038 151.7 314.616 151.064 315.396 150.775C316.177 150.486 317.015 150.573 317.737 151.035L317.275 151.758C316.812 151.469 316.234 151.382 315.714 151.584C315.194 151.787 314.818 152.191 314.645 152.741L314.587 152.943C314.355 153.752 313.777 154.388 312.968 154.677C313.026 154.735 312.997 154.764 312.968 154.764Z" fill="url(#paint12_linear_29_1061)"/>
<path d="M258.133 139.473C264.678 139.473 269.984 134.167 269.984 127.621C269.984 121.076 264.678 115.77 258.133 115.77C251.587 115.77 246.281 121.076 246.281 127.621C246.281 134.167 251.587 139.473 258.133 139.473Z" fill="url(#paint13_linear_29_1061)"/>
<path d="M255.387 134.617L250.299 129.038C249.866 128.546 249.895 127.824 250.386 127.39C250.877 126.956 251.6 126.985 252.034 127.477L255.416 131.206L263.798 122.418C264.232 121.956 264.984 121.927 265.446 122.389C265.909 122.823 265.938 123.574 265.475 124.037L255.387 134.617Z" fill="white"/>
<path d="M251.773 53.1875C251.773 53.1875 257.844 52.0312 259.289 44.5156C259.289 44.5156 260.879 51.8867 266.949 53.043C266.949 53.043 260.301 55.6445 259.434 61.7148C259.434 61.7148 257.988 54.4883 251.773 53.1875Z" fill="url(#paint14_linear_29_1061)"/>
<path d="M240.789 45.5852C240.789 45.5852 245.588 44.6602 246.744 38.7344C246.744 38.7344 247.987 44.5734 252.785 45.4695C252.785 45.4695 247.524 47.5219 246.83 52.3203C246.83 52.3203 245.703 46.5969 240.789 45.5852Z" fill="url(#paint15_linear_29_1061)"/>
<path d="M241.714 61.05C241.714 61.05 245.79 60.2695 246.773 55.2109C246.773 55.2109 247.842 60.1828 251.918 60.9344C251.918 60.9344 247.438 62.6977 246.859 66.7734C246.859 66.7734 245.877 61.9172 241.714 61.05Z" fill="url(#paint16_linear_29_1061)"/>
<path d="M132.391 140.195C132.391 140.195 138.461 139.039 139.906 131.523C139.906 131.523 141.496 138.895 147.566 140.051C147.566 140.051 140.918 142.652 140.051 148.723C140.051 148.723 138.605 141.496 132.391 140.195Z" fill="url(#paint17_linear_29_1061)"/>
<path d="M121.406 132.593C121.406 132.593 126.205 131.668 127.361 125.742C127.361 125.742 128.604 131.581 133.402 132.477C133.402 132.477 128.141 134.53 127.448 139.328C127.448 139.328 126.32 133.605 121.406 132.593Z" fill="url(#paint18_linear_29_1061)"/>
<path d="M122.331 148.058C122.331 148.058 126.407 147.277 127.39 142.219C127.39 142.219 128.459 147.191 132.535 147.942C132.535 147.942 128.055 149.705 127.477 153.781C127.477 153.781 126.494 148.925 122.331 148.058Z" fill="url(#paint19_linear_29_1061)"/>
<path d="M161.759 246.715L156.036 252.698L154.244 254.577L148.52 249.143L152.596 244.142L155.082 241.107L161.759 246.715Z" fill="#FFC0BF"/>
<path d="M144.647 251.195L149.243 248.131C149.243 248.131 150.688 253.334 155.255 253.508L159.389 268.395C159.62 269.204 158.58 269.753 158.03 269.117L144.329 253.392C143.78 252.727 143.924 251.687 144.647 251.195Z" fill="url(#paint20_linear_29_1061)"/>
<path d="M136.466 218.734L129.731 223.879L127.795 225.324L123.025 219.052L126.927 215.612L130.772 212.172L136.466 218.734Z" fill="#FFC0BF"/>
<path d="M203.645 64.7789L193.585 88.6266L190.666 91.9219L187.602 95.3906L177.022 91.8063C177.629 91.893 179.016 90.9391 180.548 89.6961C183.352 87.4125 186.619 84.1461 186.619 84.1461L198.933 61.4258L203.645 64.7789Z" fill="#FFC0BF"/>
<path opacity="0.65" d="M213.675 70.0688L219.254 84.1173L227.377 80.2149L219.977 67.0337L213.675 70.0688Z" fill="#5646CC"/>
<path d="M218.329 35.9305L225.151 32.6641C225.151 32.6641 234.198 45.7875 223.185 56.2227L222.405 52.6961C222.405 52.6961 229.024 47.7531 224.139 36.393L219.109 38.7922L218.329 35.9305Z" fill="#DD4B47"/>
<path d="M217.982 70.1554L218.011 70.1843C217.953 70.2132 217.895 70.2421 217.809 70.271C217.722 70.2999 217.635 70.3578 217.548 70.3867C217.404 70.4734 217.259 70.5312 217.086 70.6179L217.057 70.5601C202.864 75.9078 189.394 48.3312 189.394 48.3312L203.009 41.7984L203.095 41.7695L218.589 34.3406C218.618 34.3984 231.684 62.2062 217.982 70.1554Z" fill="url(#paint21_linear_29_1061)"/>
<path d="M190.723 49.1406L183.902 52.407C183.902 52.407 188.44 67.6984 203.5 65.675L201.245 62.8422C201.245 62.8422 193.267 64.8945 187.457 53.9391L192.487 51.5398L190.723 49.1406Z" fill="#FA655C"/>
<path d="M232.695 80.2727L215.901 88.3086L214.427 85.2156L231.221 77.1797L232.695 80.2727Z" fill="url(#paint22_linear_29_1061)"/>
<path d="M243.766 94.1188L219.89 105.537L212.114 89.3492L236.02 77.9023L243.766 94.1188Z" fill="url(#paint23_linear_29_1061)"/>
<path d="M227.955 97.9633C231.403 97.9633 234.198 95.1679 234.198 91.7196C234.198 88.2712 231.403 85.4758 227.955 85.4758C224.506 85.4758 221.711 88.2712 221.711 91.7196C221.711 95.1679 224.506 97.9633 227.955 97.9633Z" fill="url(#paint24_linear_29_1061)"/>
<path d="M190.666 91.9218L187.602 95.3906L177.022 91.8062C177.629 91.8929 179.016 90.939 180.548 89.696L190.666 91.9218Z" fill="#EFA3B2"/>
<path d="M136.466 218.734L129.731 223.879L126.927 215.612L130.772 212.172L136.466 218.734Z" fill="#EFA3B2"/>
<path d="M168.408 93.0781L169.535 95.7375L172.628 103.109L165.43 107.676L158.03 93.2227L151.555 87.557L158.233 73.1328L164.91 74.2312C167.107 75.7344 172.744 78.625 172.744 78.625L171.443 80.3305C180.057 92.2398 168.408 93.0781 168.408 93.0781Z" fill="#FFC0BF"/>
<path d="M161.759 246.715L156.036 252.698L152.596 244.142L155.082 241.107L161.759 246.715Z" fill="#EFA3B2"/>
<path d="M225.989 87.6726L228.273 89.4648L231.048 88.5976L230.036 91.3148L231.712 93.6851L228.822 93.5695L227.087 95.9109L226.307 93.107L223.561 92.182L225.96 90.5632L225.989 87.6726Z" fill="white"/>
<path d="M217.809 70.3C217.722 70.329 217.635 70.3868 217.548 70.4157C217.404 70.5024 217.259 70.5602 217.086 70.6469L217.057 70.5891C202.864 75.9368 189.394 48.3602 189.394 48.3602L203.009 41.8274L217.809 70.3Z" fill="url(#paint25_linear_29_1061)"/>
<path d="M168.841 100.131L178.756 88.6265L189.018 94.4366L176.675 105.219L168.841 100.131Z" fill="url(#paint26_linear_29_1061)"/>
<path d="M126.667 215.178L135.397 227.463L177.282 191.966C178.062 191.302 178.641 190.492 178.988 189.538L186.821 169.015L170.229 149.359L161.817 182.196L126.667 215.178Z" fill="url(#paint27_linear_29_1061)"/>
<path d="M202.228 199.655L163.494 254.751L152.509 243.737L184.595 190.521L173.12 168.148C171.472 165.691 170.345 163.465 169.593 161.528C166.384 153.116 170.345 149.445 170.345 149.445L193.441 143.52L197.401 159.36L204.541 187.833C205.581 191.937 204.714 196.273 202.228 199.655Z" fill="url(#paint28_linear_29_1061)"/>
<path d="M197.43 159.36C190.608 163.234 176.155 161.586 168.523 160.719C165.315 152.307 170.345 149.445 170.345 149.445L193.441 143.52L197.43 159.36Z" fill="url(#paint29_linear_29_1061)"/>
<path d="M215.178 64.2585L211.767 66.9468C211.767 66.9468 213.444 89.2335 212.172 96.807C211.594 100.276 203.327 103.6 197.863 105.45C195.117 106.404 193.094 106.953 193.094 106.953L187.602 95.9687C187.602 95.9687 191.041 95.2749 194.77 94.5234C197.834 93.9163 201.101 93.2515 202.691 92.8757C206.102 91.6327 205.523 66.5421 205.523 66.5421C202.633 61.4546 207.807 57.639 208.674 57.2632C209.541 56.8874 209.715 58.1882 209.715 58.1882L206.94 61.5702C206.94 61.5702 206.853 61.7437 206.969 61.8882C207.171 62.0906 207.287 62.0327 207.287 62.0327C207.605 61.4835 210.264 58.6218 210.264 58.6218C211.073 58.3617 211.362 59.6624 211.362 59.6624C211.362 59.6624 208.53 62.1484 208.443 62.8132C208.327 63.4781 208.934 63.4781 208.934 63.4781L211.652 60.3273C213.068 59.6335 212.692 61.4835 212.692 61.4835C212.692 61.4835 211.594 62.8421 210.784 63.9117C209.975 65.0101 211.102 65.039 211.102 65.039C211.102 65.039 213.27 63.3624 214.369 63.5648C215.467 63.7671 215.178 64.2585 215.178 64.2585Z" fill="#FFC0BF"/>
<path d="M197.863 105.479C195.117 106.404 193.094 106.953 193.094 106.953L187.602 95.9688C187.602 95.9688 191.041 95.275 194.77 94.5234C195.637 97.6453 197.025 102.559 197.863 105.479Z" fill="#EFA3B2"/>
<path d="M194.597 107.04L185.376 109.902L185.462 110.22L194.597 141.352C194.597 141.352 193.094 148 187.977 151.122C186.85 151.816 185.549 152.336 184.075 152.567C179.392 153.319 178.236 157.539 175.952 158.984C173.524 160.516 166.211 160.603 166.211 160.603C166.211 160.603 155.371 118.834 158.551 105.248C158.927 103.658 161.586 100.623 161.586 100.623C161.586 100.623 167.078 103.282 169.882 98.9172L194.597 94.2344V107.04Z" fill="url(#paint30_linear_29_1061)"/>
<path d="M194.597 141.38C194.597 141.38 193.094 148.029 187.977 151.151C188.295 135.773 185.289 109.844 185.289 109.844C185.289 109.844 185.347 109.988 185.462 110.22L194.597 141.38Z" fill="url(#paint31_linear_29_1061)"/>
<path d="M118.891 220.439L123.921 218.156C123.921 218.156 124.528 223.532 129.009 224.428L130.743 239.806C130.83 240.645 129.731 241.02 129.298 240.327L118.227 222.607C117.764 221.827 118.053 220.815 118.891 220.439Z" fill="url(#paint32_linear_29_1061)"/>
<path d="M158.464 94.639C158.638 94.8703 160.285 91.1414 159.852 90.6789C159.418 90.1875 153.377 89.725 155.14 85.5914C155.14 85.5914 156.874 82.7007 160.488 85.7937C160.488 85.7937 160.401 83.5968 158.117 81.9203C158.117 81.9203 163.436 79.7812 163.898 77.7867C163.898 77.7867 159.909 78.8851 158.984 78.8273C158.984 78.8273 164.245 78.307 165.604 74.8093L169.044 76.6882C169.044 76.6882 170.055 74.3757 168.234 71.8031L169.738 72.6992C169.738 72.6992 168.495 66.3109 162.193 67.2937C155.92 68.2765 147.913 76.1101 147.538 78.307C147.538 78.307 141.496 83.8859 151.613 89.0601C151.613 89.0601 156.354 91.6617 158.464 94.639Z" fill="#2C1B29"/>
<path d="M214.196 109.224L207.986 130.838L208.82 131.078L215.029 109.464L214.196 109.224Z" fill="#515151"/>
<path d="M219.699 115.651L211.028 144.857L211.86 145.104L220.531 115.898L219.699 115.651Z" fill="#515151"/>
<path d="M226.647 112.726L222.595 124.873L223.418 125.148L227.469 113L226.647 112.726Z" fill="#515151"/>
<path d="M236.205 102.037L226.651 132.396L227.479 132.656L237.033 102.298L236.205 102.037Z" fill="#515151"/>
<path d="M169.535 95.7375C165.459 95.882 163.031 91.9219 163.031 91.9219C165.633 93.0781 167.425 93.0203 168.437 93.0781L169.535 95.7375Z" fill="#EFA3B2"/>
</g>
<defs>
<linearGradient id="paint0_linear_29_1061" x1="291.524" y1="237.61" x2="286.887" y2="265.318" gradientUnits="userSpaceOnUse">
<stop stop-color="#AB53FF"/>
<stop offset="1" stop-color="#CF87FF"/>
</linearGradient>
<linearGradient id="paint1_linear_29_1061" x1="296.336" y1="266.794" x2="314.937" y2="233.158" gradientUnits="userSpaceOnUse">
<stop stop-color="#64D7FD"/>
<stop offset="1" stop-color="#6577FF"/>
</linearGradient>
<linearGradient id="paint2_linear_29_1061" x1="215.786" y1="259.703" x2="315.522" y2="260.57" gradientUnits="userSpaceOnUse">
<stop stop-color="#29056B"/>
<stop offset="1" stop-color="#6C93F5"/>
</linearGradient>
<linearGradient id="paint3_linear_29_1061" x1="278.46" y1="268.115" x2="191.359" y2="268.115" gradientUnits="userSpaceOnUse">
<stop stop-color="#64D7FD"/>
<stop offset="1" stop-color="#6577FF"/>
</linearGradient>
<linearGradient id="paint4_linear_29_1061" x1="53.987" y1="253.059" x2="71.3037" y2="275.181" gradientUnits="userSpaceOnUse">
<stop stop-color="#AB53FF"/>
<stop offset="1" stop-color="#CF87FF"/>
</linearGradient>
<linearGradient id="paint5_linear_29_1061" x1="74.9516" y1="268.752" x2="62.1763" y2="238.987" gradientUnits="userSpaceOnUse">
<stop stop-color="#64D7FD"/>
<stop offset="1" stop-color="#6577FF"/>
</linearGradient>
<linearGradient id="paint6_linear_29_1061" x1="27.4609" y1="263.583" x2="138.461" y2="263.583" gradientUnits="userSpaceOnUse">
<stop stop-color="#29056B"/>
<stop offset="1" stop-color="#6C93F5"/>
</linearGradient>
<linearGradient id="paint7_linear_29_1061" x1="108.832" y1="196.779" x2="118.371" y2="196.779" gradientUnits="userSpaceOnUse">
<stop stop-color="#FA655C"/>
<stop offset="1" stop-color="#FFBF8A"/>
</linearGradient>
<linearGradient id="paint8_linear_29_1061" x1="86.92" y1="132.544" x2="89.6808" y2="122.511" gradientUnits="userSpaceOnUse">
<stop stop-color="#64D7FD"/>
<stop offset="1" stop-color="#6577FF"/>
</linearGradient>
<linearGradient id="paint9_linear_29_1061" x1="123.167" y1="51.9006" x2="137.957" y2="63.861" gradientUnits="userSpaceOnUse">
<stop stop-color="#C681E6"/>
<stop offset="1" stop-color="#7057E4"/>
</linearGradient>
<linearGradient id="paint10_linear_29_1061" x1="270.129" y1="82.166" x2="279.668" y2="82.166" gradientUnits="userSpaceOnUse">
<stop stop-color="#AB53FF"/>
<stop offset="1" stop-color="#CF87FF"/>
</linearGradient>
<linearGradient id="paint11_linear_29_1061" x1="221.2" y1="220.365" x2="234.07" y2="220.365" gradientUnits="userSpaceOnUse">
<stop stop-color="#C681E6"/>
<stop offset="1" stop-color="#7057E4"/>
</linearGradient>
<linearGradient id="paint12_linear_29_1061" x1="299.882" y1="157.461" x2="317.917" y2="151.416" gradientUnits="userSpaceOnUse">
<stop stop-color="#FA655C"/>
<stop offset="1" stop-color="#FFBF8A"/>
</linearGradient>
<linearGradient id="paint13_linear_29_1061" x1="246.281" y1="127.621" x2="269.984" y2="127.621" gradientUnits="userSpaceOnUse">
<stop stop-color="#64D7FD"/>
<stop offset="1" stop-color="#6577FF"/>
</linearGradient>
<linearGradient id="paint14_linear_29_1061" x1="251.773" y1="53.1152" x2="266.949" y2="53.1152" gradientUnits="userSpaceOnUse">
<stop stop-color="#64D7FD"/>
<stop offset="1" stop-color="#6577FF"/>
</linearGradient>
<linearGradient id="paint15_linear_29_1061" x1="240.789" y1="45.5225" x2="252.785" y2="45.5225" gradientUnits="userSpaceOnUse">
<stop stop-color="#64D7FD"/>
<stop offset="1" stop-color="#6577FF"/>
</linearGradient>
<linearGradient id="paint16_linear_29_1061" x1="241.707" y1="60.9874" x2="251.918" y2="60.9874" gradientUnits="userSpaceOnUse">
<stop stop-color="#64D7FD"/>
<stop offset="1" stop-color="#6577FF"/>
</linearGradient>
<linearGradient id="paint17_linear_29_1061" x1="132.391" y1="140.123" x2="147.566" y2="140.123" gradientUnits="userSpaceOnUse">
<stop stop-color="#FA655C"/>
<stop offset="1" stop-color="#FFBF8A"/>
</linearGradient>
<linearGradient id="paint18_linear_29_1061" x1="121.406" y1="132.53" x2="133.402" y2="132.53" gradientUnits="userSpaceOnUse">
<stop stop-color="#FA655C"/>
<stop offset="1" stop-color="#FFBF8A"/>
</linearGradient>
<linearGradient id="paint19_linear_29_1061" x1="122.324" y1="147.995" x2="132.535" y2="147.995" gradientUnits="userSpaceOnUse">
<stop stop-color="#FA655C"/>
<stop offset="1" stop-color="#FFBF8A"/>
</linearGradient>
<linearGradient id="paint20_linear_29_1061" x1="145.233" y1="260.172" x2="157.769" y2="258.141" gradientUnits="userSpaceOnUse">
<stop stop-color="#2B233C"/>
<stop offset="1" stop-color="#635C70"/>
</linearGradient>
<linearGradient id="paint21_linear_29_1061" x1="199.566" y1="76.1051" x2="210.57" y2="43.3855" gradientUnits="userSpaceOnUse">
<stop stop-color="#FA655C"/>
<stop offset="1" stop-color="#FFBF8A"/>
</linearGradient>
<linearGradient id="paint22_linear_29_1061" x1="214.428" y1="82.7457" x2="232.701" y2="82.7457" gradientUnits="userSpaceOnUse">
<stop stop-color="#FA655C"/>
<stop offset="1" stop-color="#FFBF8A"/>
</linearGradient>
<linearGradient id="paint23_linear_29_1061" x1="212.122" y1="91.7213" x2="243.778" y2="91.7213" gradientUnits="userSpaceOnUse">
<stop stop-color="#C681E6"/>
<stop offset="1" stop-color="#7057E4"/>
</linearGradient>
<linearGradient id="paint24_linear_29_1061" x1="221.715" y1="91.7214" x2="234.186" y2="91.7214" gradientUnits="userSpaceOnUse">
<stop stop-color="#FA655C"/>
<stop offset="1" stop-color="#FFBF8A"/>
</linearGradient>
<linearGradient id="paint25_linear_29_1061" x1="225.583" y1="68.4121" x2="193.732" y2="48.7224" gradientUnits="userSpaceOnUse">
<stop stop-color="#DD4B47"/>
<stop offset="1" stop-color="#FFBF8A"/>
</linearGradient>
<linearGradient id="paint26_linear_29_1061" x1="181.251" y1="89.7231" x2="177.033" y2="103.432" gradientUnits="userSpaceOnUse">
<stop stop-color="#64D7FD"/>
<stop offset="1" stop-color="#6577FF"/>
</linearGradient>
<linearGradient id="paint27_linear_29_1061" x1="172.507" y1="163.304" x2="139.989" y2="227.906" gradientUnits="userSpaceOnUse">
<stop stop-color="#2B233C"/>
<stop offset="1" stop-color="#635C70"/>
</linearGradient>
<linearGradient id="paint28_linear_29_1061" x1="167.345" y1="254.39" x2="190.325" y2="158.136" gradientUnits="userSpaceOnUse">
<stop stop-color="#2B233C"/>
<stop offset="1" stop-color="#635C70"/>
</linearGradient>
<linearGradient id="paint29_linear_29_1061" x1="167.454" y1="152.679" x2="197.421" y2="152.679" gradientUnits="userSpaceOnUse">
<stop stop-color="#2B233C"/>
<stop offset="1" stop-color="#635C70"/>
</linearGradient>
<linearGradient id="paint30_linear_29_1061" x1="181.671" y1="111.373" x2="159.695" y2="163.729" gradientUnits="userSpaceOnUse">
<stop stop-color="#64D7FD"/>
<stop offset="1" stop-color="#6577FF"/>
</linearGradient>
<linearGradient id="paint31_linear_29_1061" x1="193.049" y1="162.137" x2="191.892" y2="151.731" gradientUnits="userSpaceOnUse">
<stop stop-color="#64D7FD"/>
<stop offset="1" stop-color="#6577FF"/>
</linearGradient>
<linearGradient id="paint32_linear_29_1061" x1="118.019" y1="229.428" x2="130.718" y2="229.411" gradientUnits="userSpaceOnUse">
<stop stop-color="#2B233C"/>
<stop offset="1" stop-color="#635C70"/>
</linearGradient>
</defs>
</svg>
