<svg width="769" height="682" viewBox="0 0 769 682" fill="none" xmlns="http://www.w3.org/2000/svg">
<g opacity="0.4">
<path d="M824.843 601.412H27.6234C27.6234 601.412 16.5075 492.052 128.798 499.179C128.798 499.179 99.4444 390.219 197.624 412.53C197.624 412.53 214.797 361.913 258.329 393.282C258.329 393.282 372.151 207.797 486.638 327.68C500.683 342.399 523.381 396.945 495.092 420.189C495.092 420.189 599.329 363.511 638.734 477.866C678.205 592.288 722.736 506.239 778.382 541.671C833.895 577.103 824.843 601.412 824.843 601.412Z" fill="#E4EEF7"/>
<path d="M668.354 613.4C668.354 613.4 694.313 555.191 679.137 527.751C676.741 523.355 670.75 522.556 667.289 526.152C659.901 533.878 650.183 555.057 654.908 613.4H668.354Z" fill="url(#paint0_linear_2_1774)"/>
<path d="M662.963 613.467C663.029 612.801 673.612 528.55 673.612 528.55C669.352 548.397 661.764 612.601 661.698 613.267L662.963 613.467Z" fill="white"/>
<path d="M683.996 624.456C683.996 624.456 748.162 565.381 743.836 522.556C743.17 515.763 736.115 511.5 729.791 514.164C716.346 519.825 692.649 541.271 667.023 617.13L683.996 624.456Z" fill="url(#paint1_linear_2_1774)"/>
<path d="M677.207 621.659C677.673 620.86 736.448 520.691 736.448 520.691C720.339 543.335 676.142 619.994 675.609 620.727L677.207 621.659Z" fill="white"/>
<path d="M768.131 646.501C768.131 646.501 746.166 585.894 691.851 609.937C691.851 609.937 668.887 620.393 643.793 594.286C643.793 594.286 597.332 534.211 552.402 554.058C552.402 554.058 530.437 562.45 518.988 603.21C518.988 603.21 461.544 601.146 454.223 647.101L768.131 646.501Z" fill="url(#paint2_linear_2_1774)"/>
<path d="M641.197 647.034C641.197 647.034 619.231 593.753 583.753 615.665C583.753 615.665 569.109 632.382 552.402 617.73C552.402 617.73 522.116 576.969 487.637 591.622C453.157 606.274 440.644 647.034 440.644 647.034H641.197Z" fill="url(#paint3_linear_2_1774)"/>
<path d="M170.932 629.784C170.932 629.784 145.572 571.308 115.02 564.049C110.161 562.916 105.502 566.779 105.834 571.708C106.5 582.364 115.619 603.876 161.813 639.775L170.932 629.784Z" fill="url(#paint4_linear_2_1774)"/>
<path d="M167.405 633.78C167.005 633.248 111.958 568.644 111.958 568.644C123.74 585.228 165.94 634.113 166.406 634.646L167.405 633.78Z" fill="white"/>
<path d="M179.852 623.191C179.852 623.191 173.662 549.929 143.043 530.681C138.184 527.618 131.661 530.148 130.196 535.676C127.001 547.598 128.998 574.438 166.273 630.717L179.852 623.191Z" fill="url(#paint5_linear_2_1774)"/>
<path d="M174.527 626.255C174.261 625.522 137.984 534.611 137.984 534.611C144.707 557.056 172.863 626.121 173.129 626.787L174.527 626.255Z" fill="white"/>
<path d="M63.2344 646.968C63.2344 646.968 81.0731 596.95 125.337 616.531C125.337 616.531 144.041 625.056 164.476 603.743C164.476 603.743 202.35 554.791 238.893 570.975C238.893 570.975 256.732 577.769 266.117 611.003C266.117 611.003 312.91 609.271 318.834 646.768L63.2344 646.968Z" fill="url(#paint6_linear_2_1774)"/>
<path d="M261.591 449.894C256.665 449.894 252.605 453.956 252.605 458.885H250.608C250.608 452.824 255.533 447.896 261.591 447.896C267.648 447.896 272.573 452.824 272.573 458.885H270.577C270.577 453.956 266.516 449.894 261.591 449.894Z" fill="url(#paint7_linear_2_1774)"/>
<path d="M193.364 286.52L195.494 287.119C197.957 284.322 201.817 282.99 205.678 284.056C211.003 285.521 214.132 291.049 212.667 296.31C211.203 301.639 205.678 304.769 200.42 303.304C196.892 302.305 194.296 299.507 193.431 296.177L191.234 295.578C191.966 300.04 195.228 303.903 199.887 305.235C206.277 306.967 212.867 303.237 214.597 296.843C216.328 290.45 212.601 283.856 206.211 282.124C201.218 280.792 196.226 282.724 193.364 286.52Z" fill="url(#paint8_linear_2_1774)"/>
<path d="M304.989 141.728C303.525 140.529 302.726 138.798 302.793 136.933V135.667C302.793 134.335 302.194 133.137 301.195 132.337C300.13 131.538 298.799 131.338 297.534 131.738C295.671 132.337 293.607 132.004 292.01 130.806C290.412 129.607 289.547 127.742 289.613 125.744L289.68 124.478C289.747 123.213 289.214 122.081 288.282 121.281C287.35 120.482 286.086 120.149 284.888 120.416L284.488 118.484C286.285 118.085 288.149 118.617 289.613 119.816C291.011 121.015 291.81 122.813 291.743 124.612L291.677 125.877C291.61 127.209 292.209 128.474 293.274 129.274C294.339 130.073 295.671 130.339 296.935 129.873C298.799 129.274 300.796 129.607 302.393 130.739C303.991 131.938 304.856 133.736 304.856 135.667V136.933C304.856 138.198 305.389 139.397 306.454 140.196C307.452 140.996 308.783 141.195 310.048 140.862L310.514 140.729C312.378 140.196 314.308 140.529 315.839 141.662C317.37 142.794 318.235 144.592 318.235 146.523H316.238C316.238 145.258 315.639 144.059 314.641 143.26C313.643 142.461 312.311 142.261 311.113 142.594L310.647 142.727C308.783 143.26 306.853 142.927 305.322 141.728C305.123 141.795 305.056 141.728 304.989 141.728Z" fill="url(#paint9_linear_2_1774)"/>
<path d="M633.009 192.812C628.084 192.812 624.023 188.749 624.023 183.82H622.027C622.027 189.881 626.952 194.81 633.009 194.81C639.067 194.81 643.992 189.881 643.992 183.82H641.995C641.995 188.749 637.935 192.812 633.009 192.812Z" fill="url(#paint10_linear_2_1774)"/>
<path d="M539.023 519.492H509.403L524.712 495.982L539.023 519.492ZM514.129 516.895H534.43L524.579 500.844L514.129 516.895Z" fill="url(#paint11_linear_2_1774)"/>
<path d="M720.672 356.585C718.875 357.184 717.011 356.918 715.414 355.919L714.349 355.186C713.284 354.454 711.886 354.32 710.688 354.787C709.49 355.253 708.558 356.252 708.225 357.517C707.759 359.449 706.361 360.98 704.498 361.646C702.634 362.313 700.57 362.046 698.973 360.914L697.908 360.181C696.909 359.449 695.645 359.249 694.447 359.648C693.248 359.981 692.317 360.914 691.851 362.046L689.987 361.313C690.653 359.582 692.05 358.25 693.848 357.717C695.645 357.184 697.508 357.451 699.039 358.516L700.104 359.249C701.169 359.981 702.567 360.181 703.765 359.715C705.03 359.249 705.895 358.25 706.228 356.918C706.694 354.986 708.025 353.521 709.889 352.788C711.753 352.056 713.75 352.322 715.347 353.388L716.412 354.121C717.477 354.853 718.808 354.986 720.007 354.52C721.205 354.054 722.137 353.121 722.469 351.856L722.602 351.39C723.135 349.525 724.466 348.06 726.263 347.394C728.061 346.728 729.991 346.928 731.655 347.993L730.59 349.658C729.525 348.992 728.194 348.792 726.996 349.259C725.797 349.725 724.932 350.657 724.533 351.923L724.4 352.389C723.867 354.254 722.536 355.719 720.672 356.385C720.805 356.518 720.739 356.585 720.672 356.585Z" fill="url(#paint12_linear_2_1774)"/>
<path d="M594.403 321.353C609.475 321.353 621.694 309.127 621.694 294.046C621.694 278.965 609.475 266.739 594.403 266.739C579.331 266.739 567.112 278.965 567.112 294.046C567.112 309.127 579.331 321.353 594.403 321.353Z" fill="url(#paint13_linear_2_1774)"/>
<path d="M588.08 310.164L576.365 297.309C575.366 296.177 575.433 294.512 576.564 293.513C577.696 292.514 579.36 292.581 580.358 293.713L588.146 302.305L607.449 282.058C608.448 280.992 610.178 280.925 611.243 281.991C612.308 282.99 612.375 284.722 611.31 285.787L588.08 310.164Z" fill="white"/>
<path d="M579.759 122.547C579.759 122.547 593.737 119.883 597.066 102.566C597.066 102.566 600.727 119.55 614.705 122.214C614.705 122.214 599.395 128.208 597.398 142.194C597.398 142.194 594.07 125.544 579.759 122.547Z" fill="url(#paint14_linear_2_1774)"/>
<path d="M554.466 105.031C554.466 105.031 565.515 102.899 568.177 89.2461C568.177 89.2461 571.04 102.7 582.089 104.764C582.089 104.764 569.975 109.493 568.377 120.549C568.377 120.549 565.781 107.362 554.466 105.031Z" fill="url(#paint15_linear_2_1774)"/>
<path d="M556.596 140.662C556.596 140.662 565.981 138.864 568.244 127.209C568.244 127.209 570.707 138.664 580.092 140.396C580.092 140.396 569.775 144.459 568.444 153.85C568.444 153.85 566.181 142.661 556.596 140.662Z" fill="url(#paint16_linear_2_1774)"/>
<path d="M304.856 323.018C304.856 323.018 318.834 320.354 322.162 303.037C322.162 303.037 325.823 320.021 339.802 322.685C339.802 322.685 324.492 328.679 322.495 342.665C322.495 342.665 319.167 326.015 304.856 323.018Z" fill="url(#paint17_linear_2_1774)"/>
<path d="M279.562 305.501C279.562 305.501 290.612 303.37 293.274 289.717C293.274 289.717 296.137 303.17 307.186 305.235C307.186 305.235 295.072 309.964 293.474 321.02C293.474 321.02 290.878 307.832 279.562 305.501Z" fill="url(#paint18_linear_2_1774)"/>
<path d="M281.693 341.133C281.693 341.133 291.078 339.335 293.341 327.68C293.341 327.68 295.804 339.135 305.189 340.867C305.189 340.867 294.872 344.929 293.541 354.32C293.541 354.32 291.278 343.131 281.693 341.133Z" fill="url(#paint19_linear_2_1774)"/>
<path d="M372.484 568.444L359.304 582.231L355.177 586.56L341.998 574.039L351.383 562.517L357.108 555.524L372.484 568.444Z" fill="#FFC0BF"/>
<path d="M333.079 578.768L343.662 571.708C343.662 571.708 346.99 583.696 357.507 584.096L367.026 618.395C367.558 620.26 365.162 621.526 363.897 620.06L332.347 583.829C331.082 582.297 331.415 579.9 333.079 578.768Z" fill="url(#paint20_linear_2_1774)"/>
<path d="M314.242 503.974L298.733 515.829L294.273 519.159L283.29 504.707L292.276 496.781L301.129 488.855L314.242 503.974Z" fill="#FFC0BF"/>
<path d="M468.933 149.254L445.769 204.2L439.046 211.793L431.991 219.785L407.629 211.527C409.027 211.726 412.222 209.529 415.749 206.665C422.206 201.403 429.727 193.877 429.727 193.877L458.083 141.528L468.933 149.254Z" fill="#FFC0BF"/>
<path opacity="0.65" d="M492.03 161.442L504.877 193.811L523.581 184.819L506.541 154.449L492.03 161.442Z" fill="#5646CC"/>
<path d="M502.747 82.7857L518.455 75.2598C518.455 75.2598 539.289 105.497 513.929 129.54L512.132 121.415C512.132 121.415 527.375 110.026 516.126 83.8514L504.544 89.3793L502.747 82.7857Z" fill="#DD4B47"/>
<path d="M501.948 161.642L502.014 161.708C501.881 161.775 501.748 161.842 501.548 161.908C501.349 161.975 501.149 162.108 500.949 162.175C500.617 162.375 500.284 162.508 499.884 162.708L499.818 162.574C467.136 174.896 436.117 111.358 436.117 111.358L467.468 96.3058L467.668 96.2392L503.346 79.1226C503.412 79.2558 533.498 143.326 501.948 161.642Z" fill="url(#paint21_linear_2_1774)"/>
<path d="M439.179 113.223L423.471 120.749C423.471 120.749 433.921 155.981 468.6 151.319L463.408 144.792C463.408 144.792 445.037 149.521 431.658 124.279L443.24 118.751L439.179 113.223Z" fill="#FA655C"/>
<path d="M535.828 184.953L497.155 203.468L493.761 196.341L532.433 177.826L535.828 184.953Z" fill="url(#paint22_linear_2_1774)"/>
<path d="M561.322 216.855L506.341 243.162L488.436 205.865L543.483 179.491L561.322 216.855Z" fill="url(#paint23_linear_2_1774)"/>
<path d="M524.912 225.713C532.852 225.713 539.289 219.272 539.289 211.327C539.289 203.382 532.852 196.941 524.912 196.941C516.971 196.941 510.534 203.382 510.534 211.327C510.534 219.272 516.971 225.713 524.912 225.713Z" fill="url(#paint24_linear_2_1774)"/>
<path d="M439.046 211.793L431.991 219.785L407.629 211.526C409.027 211.726 412.222 209.528 415.749 206.665L439.046 211.793Z" fill="#EFA3B2"/>
<path d="M314.242 503.974L298.732 515.829L292.276 496.781L301.129 488.855L314.242 503.974Z" fill="#EFA3B2"/>
<path d="M387.793 214.457L390.389 220.584L397.511 237.568L380.937 248.091L363.897 214.79L348.987 201.736L364.363 168.502L379.739 171.033C384.798 174.496 397.777 181.156 397.777 181.156L394.782 185.086C414.618 212.526 387.793 214.457 387.793 214.457Z" fill="#FFC0BF"/>
<path d="M372.484 568.444L359.304 582.231L351.383 562.517L357.108 555.524L372.484 568.444Z" fill="#EFA3B2"/>
<path d="M520.386 202.002L525.644 206.132L532.034 204.134L529.704 210.394L533.565 215.856L526.909 215.589L522.915 220.984L521.118 214.524L514.794 212.392L520.319 208.663L520.386 202.002Z" fill="white"/>
<path d="M501.548 161.975C501.349 162.042 501.149 162.175 500.949 162.242C500.617 162.441 500.284 162.575 499.884 162.774L499.818 162.641C467.136 174.962 436.117 111.425 436.117 111.425L467.468 96.3726L501.548 161.975Z" fill="url(#paint25_linear_2_1774)"/>
<path d="M388.792 230.708L411.623 204.2L435.252 217.587L406.83 242.43L388.792 230.708Z" fill="url(#paint26_linear_2_1774)"/>
<path d="M291.677 495.782L311.779 524.088L408.228 442.301C410.025 440.769 411.356 438.904 412.155 436.707L430.193 389.419L391.987 344.13L372.617 419.79L291.677 495.782Z" fill="url(#paint27_linear_2_1774)"/>
<path d="M465.671 460.017L376.477 586.96L351.184 561.584L425.068 438.971L398.643 387.421C394.849 381.76 392.253 376.632 390.522 372.17C383.134 352.788 392.253 344.33 392.253 344.33L445.436 330.677L454.555 367.174L470.996 432.777C473.393 442.234 471.396 452.225 465.671 460.017Z" fill="url(#paint28_linear_2_1774)"/>
<path d="M454.622 367.174C438.913 376.099 405.632 372.303 388.059 370.305C380.671 350.924 392.253 344.33 392.253 344.33L445.436 330.677L454.622 367.174Z" fill="url(#paint29_linear_2_1774)"/>
<path d="M495.491 148.055L487.637 154.249C487.637 154.249 491.497 205.599 488.569 223.049C487.237 231.041 468.201 238.7 455.62 242.963C449.297 245.16 444.637 246.426 444.637 246.426L431.991 221.117C431.991 221.117 439.912 219.519 448.498 217.787C455.554 216.389 463.075 214.857 466.736 213.991C474.591 211.127 473.259 153.317 473.259 153.317C466.603 141.595 478.518 132.804 480.515 131.938C482.512 131.072 482.911 134.069 482.911 134.069L476.521 141.861C476.521 141.861 476.321 142.261 476.587 142.594C477.053 143.06 477.32 142.927 477.32 142.927C478.052 141.662 484.176 135.068 484.176 135.068C486.039 134.469 486.705 137.466 486.705 137.466C486.705 137.466 480.182 143.193 479.982 144.725C479.716 146.257 481.114 146.257 481.114 146.257L487.371 138.998C490.632 137.399 489.767 141.662 489.767 141.662C489.767 141.662 487.237 144.792 485.374 147.256C483.51 149.787 486.106 149.854 486.106 149.854C486.106 149.854 491.098 145.991 493.627 146.457C496.157 146.923 495.491 148.055 495.491 148.055Z" fill="#FFC0BF"/>
<path d="M455.62 243.029C449.297 245.16 444.637 246.426 444.637 246.426L431.991 221.117C431.991 221.117 439.912 219.519 448.498 217.787C450.495 224.98 453.69 236.302 455.62 243.029Z" fill="#EFA3B2"/>
<path d="M448.099 246.626L426.865 253.219L427.065 253.952L448.099 325.682C448.099 325.682 444.637 341 432.856 348.193C430.26 349.791 427.265 350.99 423.87 351.523C413.087 353.255 410.424 362.979 405.166 366.309C399.575 369.838 382.734 370.038 382.734 370.038C382.734 370.038 357.773 273.799 365.095 242.496C365.961 238.833 372.084 231.84 372.084 231.84C372.084 231.84 384.731 237.967 391.188 227.911L448.099 217.121V246.626Z" fill="url(#paint30_linear_2_1774)"/>
<path d="M448.099 325.748C448.099 325.748 444.637 341.067 432.856 348.26C433.588 312.828 426.666 253.086 426.666 253.086C426.666 253.086 426.799 253.419 427.065 253.952L448.099 325.748Z" fill="url(#paint31_linear_2_1774)"/>
<path d="M273.772 507.904L285.353 502.642C285.353 502.642 286.751 515.03 297.068 517.095L301.062 552.527C301.262 554.458 298.732 555.324 297.734 553.725L272.241 512.899C271.176 511.1 271.841 508.769 273.772 507.904Z" fill="url(#paint32_linear_2_1774)"/>
<path d="M364.896 218.053C365.295 218.586 369.089 209.995 368.091 208.929C367.092 207.797 353.181 206.731 357.241 197.207C357.241 197.207 361.235 190.547 369.555 197.673C369.555 197.673 369.355 192.612 364.097 188.749C364.097 188.749 376.344 183.82 377.409 179.225C377.409 179.225 368.224 181.756 366.094 181.622C366.094 181.622 378.208 180.424 381.337 172.365L389.257 176.694C389.257 176.694 391.587 171.366 387.394 165.438L390.855 167.503C390.855 167.503 387.993 152.784 373.482 155.048C359.038 157.313 340.6 175.362 339.735 180.424C339.735 180.424 325.823 193.278 349.12 205.199C349.12 205.199 360.037 211.193 364.896 218.053Z" fill="#2C1B29"/>
<path d="M493.229 251.658L478.931 301.458L480.85 302.01L495.148 252.21L493.229 251.658Z" fill="#515151"/>
<path d="M505.902 266.466L485.935 333.758L487.85 334.327L507.816 267.035L505.902 266.466Z" fill="#515151"/>
<path d="M521.9 259.727L512.571 287.715L514.465 288.347L523.795 260.359L521.9 259.727Z" fill="#515151"/>
<path d="M543.911 235.099L521.911 305.047L523.816 305.647L545.816 235.699L543.911 235.099Z" fill="#515151"/>
<path d="M390.389 220.584C381.004 220.917 375.413 211.793 375.413 211.793C381.403 214.457 385.53 214.324 387.86 214.457L390.389 220.584Z" fill="#EFA3B2"/>
</g>
<defs>
<linearGradient id="paint0_linear_2_1774" x1="671.292" y1="547.466" x2="660.604" y2="611.305" gradientUnits="userSpaceOnUse">
<stop stop-color="#AB53FF"/>
<stop offset="1" stop-color="#CF87FF"/>
</linearGradient>
<linearGradient id="paint1_linear_2_1774" x1="682.373" y1="614.707" x2="725.245" y2="537.23" gradientUnits="userSpaceOnUse">
<stop stop-color="#64D7FD"/>
<stop offset="1" stop-color="#6577FF"/>
</linearGradient>
<linearGradient id="paint2_linear_2_1774" x1="496.89" y1="598.369" x2="726.554" y2="600.365" gradientUnits="userSpaceOnUse">
<stop stop-color="#29056B"/>
<stop offset="1" stop-color="#6C93F5"/>
</linearGradient>
<linearGradient id="paint3_linear_2_1774" x1="641.21" y1="617.75" x2="440.644" y2="617.75" gradientUnits="userSpaceOnUse">
<stop stop-color="#64D7FD"/>
<stop offset="1" stop-color="#6577FF"/>
</linearGradient>
<linearGradient id="paint4_linear_2_1774" x1="124.316" y1="583.063" x2="164.22" y2="634.009" gradientUnits="userSpaceOnUse">
<stop stop-color="#AB53FF"/>
<stop offset="1" stop-color="#CF87FF"/>
</linearGradient>
<linearGradient id="paint5_linear_2_1774" x1="172.591" y1="619.218" x2="143.144" y2="550.651" gradientUnits="userSpaceOnUse">
<stop stop-color="#64D7FD"/>
<stop offset="1" stop-color="#6577FF"/>
</linearGradient>
<linearGradient id="paint6_linear_2_1774" x1="63.2344" y1="607.31" x2="318.834" y2="607.31" gradientUnits="userSpaceOnUse">
<stop stop-color="#29056B"/>
<stop offset="1" stop-color="#6C93F5"/>
</linearGradient>
<linearGradient id="paint7_linear_2_1774" x1="250.608" y1="453.39" x2="272.573" y2="453.39" gradientUnits="userSpaceOnUse">
<stop stop-color="#FA655C"/>
<stop offset="1" stop-color="#FFBF8A"/>
</linearGradient>
<linearGradient id="paint8_linear_2_1774" x1="200.151" y1="305.39" x2="206.515" y2="282.274" gradientUnits="userSpaceOnUse">
<stop stop-color="#64D7FD"/>
<stop offset="1" stop-color="#6577FF"/>
</linearGradient>
<linearGradient id="paint9_linear_2_1774" x1="283.616" y1="119.582" x2="317.691" y2="147.12" gradientUnits="userSpaceOnUse">
<stop stop-color="#C681E6"/>
<stop offset="1" stop-color="#7057E4"/>
</linearGradient>
<linearGradient id="paint10_linear_2_1774" x1="622.027" y1="189.315" x2="643.992" y2="189.315" gradientUnits="userSpaceOnUse">
<stop stop-color="#AB53FF"/>
<stop offset="1" stop-color="#CF87FF"/>
</linearGradient>
<linearGradient id="paint11_linear_2_1774" x1="509.357" y1="507.733" x2="538.994" y2="507.733" gradientUnits="userSpaceOnUse">
<stop stop-color="#C681E6"/>
<stop offset="1" stop-color="#7057E4"/>
</linearGradient>
<linearGradient id="paint12_linear_2_1774" x1="690.538" y1="362.799" x2="732.074" y2="348.886" gradientUnits="userSpaceOnUse">
<stop stop-color="#FA655C"/>
<stop offset="1" stop-color="#FFBF8A"/>
</linearGradient>
<linearGradient id="paint13_linear_2_1774" x1="567.112" y1="294.046" x2="621.694" y2="294.046" gradientUnits="userSpaceOnUse">
<stop stop-color="#64D7FD"/>
<stop offset="1" stop-color="#6577FF"/>
</linearGradient>
<linearGradient id="paint14_linear_2_1774" x1="579.759" y1="122.38" x2="614.705" y2="122.38" gradientUnits="userSpaceOnUse">
<stop stop-color="#64D7FD"/>
<stop offset="1" stop-color="#6577FF"/>
</linearGradient>
<linearGradient id="paint15_linear_2_1774" x1="554.466" y1="104.886" x2="582.089" y2="104.886" gradientUnits="userSpaceOnUse">
<stop stop-color="#64D7FD"/>
<stop offset="1" stop-color="#6577FF"/>
</linearGradient>
<linearGradient id="paint16_linear_2_1774" x1="556.58" y1="140.518" x2="580.092" y2="140.518" gradientUnits="userSpaceOnUse">
<stop stop-color="#64D7FD"/>
<stop offset="1" stop-color="#6577FF"/>
</linearGradient>
<linearGradient id="paint17_linear_2_1774" x1="304.856" y1="322.851" x2="339.802" y2="322.851" gradientUnits="userSpaceOnUse">
<stop stop-color="#FA655C"/>
<stop offset="1" stop-color="#FFBF8A"/>
</linearGradient>
<linearGradient id="paint18_linear_2_1774" x1="279.562" y1="305.357" x2="307.186" y2="305.357" gradientUnits="userSpaceOnUse">
<stop stop-color="#FA655C"/>
<stop offset="1" stop-color="#FFBF8A"/>
</linearGradient>
<linearGradient id="paint19_linear_2_1774" x1="281.677" y1="340.989" x2="305.189" y2="340.989" gradientUnits="userSpaceOnUse">
<stop stop-color="#FA655C"/>
<stop offset="1" stop-color="#FFBF8A"/>
</linearGradient>
<linearGradient id="paint20_linear_2_1774" x1="334.429" y1="599.449" x2="363.296" y2="594.776" gradientUnits="userSpaceOnUse">
<stop stop-color="#2B233C"/>
<stop offset="1" stop-color="#635C70"/>
</linearGradient>
<linearGradient id="paint21_linear_2_1774" x1="459.542" y1="175.35" x2="484.906" y2="99.9714" gradientUnits="userSpaceOnUse">
<stop stop-color="#FA655C"/>
<stop offset="1" stop-color="#FFBF8A"/>
</linearGradient>
<linearGradient id="paint22_linear_2_1774" x1="493.763" y1="190.651" x2="535.842" y2="190.651" gradientUnits="userSpaceOnUse">
<stop stop-color="#FA655C"/>
<stop offset="1" stop-color="#FFBF8A"/>
</linearGradient>
<linearGradient id="paint23_linear_2_1774" x1="488.455" y1="211.331" x2="561.349" y2="211.331" gradientUnits="userSpaceOnUse">
<stop stop-color="#C681E6"/>
<stop offset="1" stop-color="#7057E4"/>
</linearGradient>
<linearGradient id="paint24_linear_2_1774" x1="510.543" y1="211.331" x2="539.261" y2="211.331" gradientUnits="userSpaceOnUse">
<stop stop-color="#FA655C"/>
<stop offset="1" stop-color="#FFBF8A"/>
</linearGradient>
<linearGradient id="paint25_linear_2_1774" x1="519.451" y1="157.625" x2="446.084" y2="112.298" gradientUnits="userSpaceOnUse">
<stop stop-color="#DD4B47"/>
<stop offset="1" stop-color="#FFBF8A"/>
</linearGradient>
<linearGradient id="paint26_linear_2_1774" x1="417.367" y1="206.727" x2="407.643" y2="238.31" gradientUnits="userSpaceOnUse">
<stop stop-color="#64D7FD"/>
<stop offset="1" stop-color="#6577FF"/>
</linearGradient>
<linearGradient id="paint27_linear_2_1774" x1="397.232" y1="376.261" x2="322.283" y2="525.072" gradientUnits="userSpaceOnUse">
<stop stop-color="#2B233C"/>
<stop offset="1" stop-color="#635C70"/>
</linearGradient>
<linearGradient id="paint28_linear_2_1774" x1="385.347" y1="586.128" x2="438.32" y2="364.368" gradientUnits="userSpaceOnUse">
<stop stop-color="#2B233C"/>
<stop offset="1" stop-color="#635C70"/>
</linearGradient>
<linearGradient id="paint29_linear_2_1774" x1="385.596" y1="351.781" x2="454.602" y2="351.781" gradientUnits="userSpaceOnUse">
<stop stop-color="#2B233C"/>
<stop offset="1" stop-color="#635C70"/>
</linearGradient>
<linearGradient id="paint30_linear_2_1774" x1="418.335" y1="256.609" x2="367.679" y2="377.219" gradientUnits="userSpaceOnUse">
<stop stop-color="#64D7FD"/>
<stop offset="1" stop-color="#6577FF"/>
</linearGradient>
<linearGradient id="paint31_linear_2_1774" x1="444.534" y1="373.572" x2="441.868" y2="349.596" gradientUnits="userSpaceOnUse">
<stop stop-color="#64D7FD"/>
<stop offset="1" stop-color="#6577FF"/>
</linearGradient>
<linearGradient id="paint32_linear_2_1774" x1="271.762" y1="528.614" x2="301.005" y2="528.575" gradientUnits="userSpaceOnUse">
<stop stop-color="#2B233C"/>
<stop offset="1" stop-color="#635C70"/>
</linearGradient>
</defs>
</svg>
