<svg width="473" height="448" viewBox="0 0 473 448" fill="none" xmlns="http://www.w3.org/2000/svg">
<g clip-path="url(#clip0_172_3878)">
<path opacity="0.17" d="M126.649 448C140.256 448 151.287 446.975 151.287 445.711C151.287 444.446 140.256 443.421 126.649 443.421C113.041 443.421 102.01 444.446 102.01 445.711C102.01 446.975 113.041 448 126.649 448Z" fill="#8982BC"/>
<path opacity="0.17" d="M98.4343 401.516C98.4343 402.81 87.4071 403.804 73.7963 403.804C60.1854 403.804 49.1587 402.812 49.1587 401.516C49.1587 400.221 60.1859 399.229 73.7968 399.229C87.4077 399.229 98.4343 400.224 98.4343 401.516Z" fill="#8982BC"/>
<path opacity="0.17" d="M383.657 407.789C400.557 407.789 414.256 406.764 414.256 405.5C414.256 404.235 400.557 403.21 383.657 403.21C366.758 403.21 353.059 404.235 353.059 405.5C353.059 406.764 366.758 407.789 383.657 407.789Z" fill="#8982BC"/>
<path opacity="0.17" d="M223.908 400.722C223.908 401.817 214.172 402.712 202.251 402.712C190.329 402.712 180.593 401.816 180.593 400.722C180.593 399.627 190.329 398.731 202.251 398.731C214.272 398.632 223.908 399.526 223.908 400.722Z" fill="#8982BC"/>
<path d="M100.719 145.221V398.631H369.451V153.681L100.719 145.221Z" fill="#DDD6FF"/>
<path opacity="0.18" d="M172.647 331.646L168.673 400.423L303.585 398.233L172.647 331.646Z" fill="#8982BC"/>
<path d="M174.434 400.125L172.646 331.647L301.299 324.579L303.583 398.233L174.434 400.125Z" fill="#8982BC"/>
<path opacity="0.18" d="M218.842 233.507L220.332 297.506L353.158 296.411L346.999 221.662L218.842 233.507Z" fill="#8982BC"/>
<path d="M99.428 160.051L369.451 161.942V150.994L99.428 144.723V160.051Z" fill="#EFF3FB"/>
<path d="M99.428 160.051V182.247H369.451V161.942L99.428 160.051Z" fill="#624FB5"/>
<path d="M133.454 173.017C134.446 168.79 131.831 164.557 127.612 163.562C123.392 162.568 119.167 165.188 118.175 169.415C117.182 173.643 119.798 177.876 124.017 178.87C128.236 179.865 132.461 177.244 133.454 173.017Z" fill="white"/>
<path d="M143.339 168.512V173.886H182.68V168.512" fill="white"/>
<path d="M204.636 164.729V179.062H304.181V165.924L204.636 164.729Z" fill="white"/>
<path d="M214.708 170.155V177.264H213.781V170.155H214.708ZM216.993 170.155V170.926H211.5V170.155H216.993ZM214.137 189.362C213.769 189.362 213.435 189.3 213.136 189.176C212.84 189.049 212.584 188.872 212.369 188.644C212.158 188.416 211.995 188.146 211.881 187.833C211.767 187.521 211.71 187.179 211.71 186.808V186.603C211.71 186.173 211.774 185.791 211.901 185.456C212.028 185.117 212.2 184.831 212.418 184.596C212.636 184.362 212.884 184.184 213.16 184.064C213.437 183.944 213.724 183.883 214.02 183.883C214.397 183.883 214.723 183.948 214.996 184.079C215.273 184.209 215.499 184.391 215.675 184.625C215.851 184.857 215.981 185.13 216.066 185.446C216.15 185.758 216.193 186.1 216.193 186.471V186.876H212.247V186.139H215.289V186.071C215.276 185.836 215.227 185.609 215.143 185.387C215.061 185.166 214.931 184.984 214.752 184.84C214.573 184.697 214.329 184.625 214.02 184.625C213.815 184.625 213.626 184.669 213.453 184.757C213.281 184.842 213.133 184.969 213.009 185.138C212.885 185.307 212.789 185.514 212.721 185.758C212.653 186.002 212.618 186.284 212.618 186.603V186.808C212.618 187.059 212.653 187.295 212.721 187.516C212.793 187.734 212.895 187.926 213.029 188.092C213.165 188.258 213.33 188.389 213.522 188.483C213.717 188.577 213.938 188.625 214.186 188.625C214.505 188.625 214.775 188.559 214.996 188.429C215.218 188.299 215.411 188.125 215.577 187.907L216.124 188.341C216.01 188.514 215.865 188.678 215.69 188.834C215.514 188.991 215.297 189.118 215.04 189.215C214.786 189.313 214.485 189.362 214.137 189.362ZM217.858 183.981L219.015 185.905L220.187 183.981H221.246L219.518 186.588L221.3 189.264H220.255L219.034 187.282L217.814 189.264H216.764L218.541 186.588L216.818 183.981H217.858ZM214.156 195.981V196.674H211.3V195.981H214.156ZM212.267 194.697H213.17V199.956C213.17 200.135 213.198 200.27 213.253 200.361C213.309 200.452 213.38 200.512 213.468 200.542C213.556 200.571 213.65 200.585 213.751 200.585C213.826 200.585 213.904 200.579 213.986 200.566C214.07 200.55 214.134 200.537 214.176 200.527L214.181 201.264C214.109 201.287 214.015 201.308 213.898 201.328C213.784 201.35 213.645 201.362 213.483 201.362C213.261 201.362 213.058 201.318 212.872 201.23C212.687 201.142 212.539 200.996 212.428 200.791C212.321 200.582 212.267 200.302 212.267 199.951V194.697Z" fill="#4D7EB7"/>
<path d="M108.568 155.074C109.5 155.074 110.257 154.317 110.257 153.382C110.257 152.448 109.5 151.69 108.568 151.69C107.635 151.69 106.879 152.448 106.879 153.382C106.879 154.317 107.635 155.074 108.568 155.074Z" fill="#FC846D"/>
<path d="M116.317 155.074C117.249 155.074 118.005 154.317 118.005 153.382C118.005 152.448 117.249 151.69 116.317 151.69C115.384 151.69 114.628 152.448 114.628 153.382C114.628 154.317 115.384 155.074 116.317 155.074Z" fill="#F9D452"/>
<path d="M125.754 153.383C125.754 153.717 125.655 154.044 125.47 154.323C125.284 154.601 125.02 154.818 124.712 154.946C124.403 155.074 124.064 155.107 123.736 155.042C123.408 154.977 123.108 154.816 122.871 154.579C122.635 154.342 122.474 154.041 122.409 153.713C122.344 153.385 122.377 153.044 122.505 152.735C122.633 152.426 122.85 152.162 123.127 151.976C123.405 151.79 123.732 151.691 124.066 151.691C124.29 151.68 124.514 151.717 124.724 151.799C124.933 151.88 125.123 152.004 125.282 152.163C125.441 152.323 125.565 152.513 125.647 152.723C125.728 152.933 125.765 153.158 125.754 153.383Z" fill="#57BE8B"/>
<path d="M122.377 199.864H125.953V245.251H122.377V199.864Z" fill="#C4B9FF"/>
<path d="M133.603 203.248V207.031H182.68L183.276 202.651L133.603 203.248Z" fill="#8982BC"/>
<path d="M216.458 198.172V201.955H353.258L354.947 197.675L216.458 198.172Z" fill="#8982BC"/>
<path d="M216.458 301.189V304.971H353.258L354.947 300.691L216.458 301.189Z" fill="#8982BC"/>
<path d="M216.458 211.211V214.993H268.515L269.211 210.713L216.458 211.211Z" fill="#8982BC"/>
<path d="M216.458 314.427V318.209H268.515L269.211 313.83L216.458 314.427Z" fill="#8982BC"/>
<path d="M134.1 214.993V218.877H183.077L183.276 215.394L134.1 214.993Z" fill="#8982BC"/>
<path d="M133.901 227.634V231.417H182.879L183.077 227.933L133.901 227.634Z" fill="#8982BC"/>
<path d="M133.901 241.469V245.353H182.879L183.077 241.87L133.901 241.469Z" fill="#8982BC"/>
<path d="M218.842 230.023L224.406 297.605L352.66 287.055L346.999 218.079L218.842 230.023Z" fill="#FE9887"/>
<g opacity="0.18">
<path opacity="0.18" d="M334.083 288.847C333.027 286.632 332.259 284.29 331.8 281.879C331.7 281.488 331.7 281.077 331.8 280.685C331.998 279.789 333.091 279.291 333.985 279.391C334.892 279.556 335.706 280.052 336.269 280.784C336.864 281.481 337.461 282.277 338.057 282.874C338.529 283.271 339.027 283.637 339.547 283.969C340.791 284.667 342.087 285.266 343.424 285.761C344.318 286.059 345.212 286.258 345.808 286.856C344.852 287.189 343.838 287.325 342.828 287.254C339.718 287.191 336.613 287.525 333.587 288.249C333.708 288.144 333.853 288.07 334.009 288.035C334.165 288 334.328 288.006 334.482 288.05" fill="#8982BC"/>
</g>
<g opacity="0.18">
<path opacity="0.18" d="M352.165 272.623C349.681 271.329 348.986 268.244 348.288 265.556C347.087 260.566 345.109 255.796 342.426 251.423C341.891 250.667 341.488 249.826 341.234 248.935C341.116 248.044 341.271 247.138 341.679 246.338C342.087 245.538 342.728 244.882 343.518 244.456C345.106 243.619 346.947 243.407 348.684 243.859L352.165 272.623Z" fill="#8982BC"/>
</g>
<path d="M363.888 378.527L365.477 381.115L367.464 380.119L365.676 377.332L363.888 378.527Z" fill="#DDD6FF"/>
<path d="M372.928 387.385C372.928 387.385 364.086 385.295 362.695 386.389C361.305 387.484 372.928 388.977 372.928 388.977V387.385Z" fill="#3F327A"/>
<path d="M339.944 286.857C339.944 286.857 340.043 282.378 339.745 282.378C338.948 282.179 338.851 284.468 338.851 284.468C338.851 284.468 337.46 280.088 336.864 280.287C336.467 280.387 336.963 282.975 336.963 282.975C336.963 282.975 335.87 280.984 335.275 281.084C334.778 281.183 335.87 283.97 335.87 283.97C335.87 283.97 334.877 282.676 334.38 282.776C333.983 282.875 337.559 288.847 337.559 288.847L339.944 286.857Z" fill="#F7D3A9"/>
<path d="M358.622 320.997C358.622 320.997 344.613 338.016 351.57 358.023C358.624 378.029 363.293 380.119 363.293 380.119L367.366 378.029C367.366 378.029 359.516 359.317 359.217 352.548C358.919 346.376 369.649 331.845 369.649 331.845L367.463 386.887L372.629 387.584C372.629 387.584 386.437 325.874 384.95 321.096C383.558 316.12 377.399 309.152 358.622 320.997Z" fill="#3F327A"/>
<path d="M355.543 297.606L358.623 320.897L383.758 317.911L373.525 281.582L365.974 282.776L360.61 283.373C357.53 283.771 355.643 284.269 353.457 286.459L344.714 296.511L340.343 286.061L336.567 287.951C336.567 287.951 339.647 306.962 344.614 305.071C347.993 303.777 355.543 297.606 355.543 297.606Z" fill="#FFC359"/>
<path d="M351.27 252.518C351.27 252.518 356.834 266.552 357.529 268.742C358.224 270.932 373.524 281.582 373.524 281.582L365.974 285.065L351.171 271.33L347.893 252.518H351.27Z" fill="#FFC359"/>
<path d="M357.032 267.348L354.946 274.714C354.833 275.099 354.797 275.503 354.841 275.903C354.884 276.302 355.007 276.689 355.201 277.041C355.395 277.393 355.657 277.703 355.971 277.952C356.286 278.202 356.646 278.387 357.032 278.496L358.026 278.794V284.069H362.497C363.261 284.068 363.993 283.764 364.533 283.223C365.074 282.682 365.377 281.948 365.378 281.183V269.239L357.032 267.348Z" fill="#F7D3A9"/>
<path d="M361.304 279.193C360.508 278.596 359.318 277.501 359.318 276.008C359.318 276.008 362.398 275.908 361.601 273.72C361.105 272.426 359.318 273.421 359.318 273.421C359.318 273.421 360.013 270.734 359.616 269.838C359.616 269.838 354.252 269.838 355.145 266.653C355.145 266.653 356.635 265.26 360.013 265.16C363.39 264.961 365.179 270.635 365.179 270.635L362.397 278.796C362.099 279.292 361.602 279.491 361.304 279.193Z" fill="#353E70"/>
<path d="M347.992 252.518C347.992 252.518 345.21 249.034 345.31 248.835C345.806 248.139 347.296 249.831 347.296 249.831C347.296 249.831 345.608 245.551 346.303 245.252C346.7 245.153 347.793 247.442 347.793 247.442C347.793 247.442 347.396 245.154 347.892 244.854C348.389 244.655 349.184 247.442 349.184 247.442C349.184 247.442 349.184 245.849 349.68 245.65C349.978 245.551 350.972 252.419 350.972 252.419H347.992L347.992 252.518Z" fill="#F7D3A9"/>
<path d="M361.204 293.625C361.204 293.724 360.906 293.824 360.31 294.321C359.813 294.719 359.018 295.317 358.224 295.914C356.535 297.108 355.144 298.004 355.045 297.904C354.946 297.805 356.336 296.809 357.926 295.617C358.722 295.02 359.515 294.522 360.111 294.124C360.808 293.625 361.204 293.525 361.204 293.625Z" fill="#D69E43"/>
<path d="M365.378 279.392H365.477C365.577 279.392 365.577 279.591 365.676 279.69C365.688 280.058 365.655 280.426 365.577 280.785C365.495 281.353 365.292 281.896 364.981 282.378C364.778 282.668 364.544 282.935 364.285 283.176C363.986 283.4 363.65 283.568 363.291 283.673C362.095 284.009 360.858 284.176 359.615 284.171C358.721 284.171 358.125 284.071 358.125 283.972C358.125 283.872 358.721 283.972 359.615 283.872C360.791 283.786 361.955 283.587 363.092 283.275C363.698 283.089 364.223 282.703 364.582 282.18C364.865 281.721 365.067 281.215 365.178 280.687C365.284 280.33 365.35 279.963 365.377 279.592C365.477 279.491 365.279 279.392 365.378 279.392Z" fill="#D69E43"/>
<path d="M344.416 299.796C344.485 299.88 344.52 299.986 344.515 300.095H344.317C344.221 299.536 344.187 298.969 344.217 298.403C344.317 297.308 344.515 296.412 344.614 296.412C344.714 296.412 344.714 297.308 344.614 298.403C344.614 299.1 344.515 299.796 344.515 300.095H344.317C344.311 299.986 344.347 299.88 344.416 299.796Z" fill="#D69E43"/>
<path d="M345.31 299C345.059 298.535 344.891 298.03 344.814 297.507C344.615 296.611 344.615 295.915 344.714 295.915C344.965 296.38 345.133 296.885 345.211 297.408C345.31 298.303 345.41 299 345.31 299Z" fill="#D69E43"/>
<path d="M340.641 287.056C339.987 287.47 339.287 287.804 338.555 288.051C337.362 288.449 336.369 288.748 336.369 288.648C337.023 288.235 337.723 287.9 338.455 287.653C339.647 287.255 340.641 286.956 340.641 287.056Z" fill="#D69E43"/>
<path d="M382.565 315.722C382.565 315.722 382.267 315.921 381.768 316.219C380.971 316.598 380.14 316.898 379.285 317.115C377.099 317.712 374.02 318.409 370.641 319.006C368.953 319.305 367.363 319.603 365.873 319.804C364.383 320.005 363.091 320.202 361.899 320.302C361 320.406 360.09 320.338 359.216 320.103C358.621 320.003 358.223 319.804 358.322 319.804C358.648 319.897 358.98 319.963 359.316 320.003C360.207 320.106 361.107 320.106 361.998 320.003C363.301 319.88 364.595 319.68 365.875 319.406C367.365 319.207 368.955 318.909 370.644 318.608C374.021 318.011 377.101 317.314 379.287 316.817C380.128 316.594 380.957 316.327 381.771 316.019C382.051 315.968 382.32 315.867 382.565 315.722Z" fill="#D69E43"/>
<path opacity="0.25" d="M361.007 293.426C361.007 293.426 359.516 304.275 356.437 305.967L355.443 298.005L361.007 293.426Z" fill="#8982BC"/>
<path d="M356.238 269.24C355.729 268.816 355.293 268.312 354.947 267.747C354.748 267.05 355.046 265.358 355.642 264.96C356.337 264.562 357.232 264.96 358.027 265.059C359.219 265.258 360.411 264.761 361.703 264.661C362.895 264.562 364.385 264.96 364.783 266.055C364.882 266.254 364.882 266.552 365.18 266.652H365.478C366.472 266.552 367.068 267.647 367.068 268.642C366.968 269.638 366.472 270.434 366.271 271.33C365.775 273.32 366.668 275.61 365.775 277.502C365.079 278.995 362.894 280.289 361.403 279.194L363.291 270.634L356.238 269.24Z" fill="#353E70"/>
<path d="M367.464 380.119C367.464 380.119 359.218 383.802 358.721 385.493C358.225 387.184 368.458 381.313 368.458 381.313L367.464 380.119Z" fill="#3F327A"/>
<path d="M359.218 349.961C359.317 350.06 358.224 350.759 356.833 351.553C355.442 352.348 354.25 352.748 354.151 352.648C354.941 352.09 355.771 351.591 356.635 351.155C358.028 350.458 359.119 349.861 359.218 349.961Z" fill="#2C2656"/>
<path d="M359.119 352.35C359.119 352.45 358.323 352.748 357.331 353.346C356.339 353.943 355.642 354.441 355.543 354.341C355.444 354.242 356.139 353.543 357.132 352.948C358.125 352.45 359.119 352.251 359.119 352.35Z" fill="#2C2656"/>
<path d="M377.399 357.028C377.399 357.127 376.008 356.928 374.518 356.431C373.535 356.178 372.596 355.775 371.736 355.237C371.736 355.137 373.027 355.535 374.617 356.035C376.107 356.53 377.399 356.928 377.399 357.028Z" fill="#2C2656"/>
<path d="M377.796 356.232C377.796 356.332 376.505 356.033 374.915 355.336C373.969 355.003 373.094 354.497 372.332 353.843C372.432 353.743 373.624 354.34 375.114 354.938C376.036 355.31 376.932 355.742 377.796 356.232Z" fill="#2C2656"/>
<path d="M363.887 378.725C363.986 378.626 364.185 378.825 364.384 379.223C364.582 379.521 364.682 379.82 364.582 379.92C364.483 380.02 364.284 379.82 364.086 379.422C363.887 379.024 363.788 378.725 363.887 378.725Z" fill="#2C2656"/>
<path d="M361.205 374.048C361.304 373.948 361.702 374.446 362.002 375.143C362.399 375.74 362.598 376.337 362.498 376.437C362.399 376.536 362.002 376.039 361.702 375.342C361.485 374.932 361.318 374.497 361.205 374.048Z" fill="#2C2656"/>
<path d="M358.92 369.27C359.223 369.585 359.46 369.957 359.616 370.365C359.914 371.062 360.113 371.56 360.013 371.659C359.711 371.344 359.474 370.972 359.318 370.564C359.02 369.967 358.821 369.37 358.92 369.27Z" fill="#2C2656"/>
<path d="M356.933 364.393C357.252 364.733 357.49 365.141 357.628 365.587C357.926 366.284 358.026 366.881 357.926 366.881C357.607 366.541 357.37 366.132 357.231 365.687C357.032 364.99 356.834 364.393 356.933 364.393Z" fill="#2C2656"/>
<path d="M355.343 359.316C355.653 359.648 355.86 360.063 355.939 360.511C356.138 361.208 356.237 361.805 356.138 361.805C355.828 361.473 355.621 361.058 355.542 360.61C355.343 359.913 355.244 359.316 355.343 359.316Z" fill="#2C2656"/>
<path d="M354.052 354.141C354.151 354.141 354.35 354.638 354.548 355.435C354.747 356.131 354.747 356.729 354.648 356.729C354.548 356.729 354.35 356.231 354.151 355.435C354.052 354.738 353.952 354.141 354.052 354.141Z" fill="#2C2656"/>
<path d="M353.555 348.866C353.654 348.866 353.754 349.463 353.853 350.16C353.853 350.857 353.853 351.454 353.754 351.454C353.654 351.454 353.555 350.857 353.456 350.16C353.356 349.463 353.456 348.866 353.555 348.866Z" fill="#2C2656"/>
<path d="M353.754 343.491C353.854 343.491 353.854 344.088 353.854 344.785C353.754 345.482 353.655 346.079 353.556 346.079C353.456 346.079 353.456 345.482 353.456 344.785C353.556 344.088 353.655 343.491 353.754 343.491Z" fill="#2C2656"/>
<path d="M354.748 338.315C354.847 338.315 354.847 338.912 354.648 339.609C354.569 340.069 354.401 340.509 354.152 340.903C354.053 340.903 354.053 340.306 354.251 339.609C354.449 338.813 354.648 338.315 354.748 338.315Z" fill="#2C2656"/>
<path d="M356.437 333.239C356.536 333.239 356.437 333.836 356.139 334.533C355.841 335.23 355.642 335.727 355.543 335.727C355.444 335.727 355.543 335.13 355.841 334.433C355.92 333.986 356.127 333.571 356.437 333.239Z" fill="#2C2656"/>
<path d="M358.721 328.461C358.821 328.561 358.622 329.058 358.324 329.755C358.182 330.196 357.903 330.58 357.528 330.85C357.428 330.85 357.627 330.253 357.925 329.556C358.324 328.859 358.622 328.461 358.721 328.461Z" fill="#2C2656"/>
<path d="M361.602 323.982C361.702 324.082 361.404 324.579 361.007 325.177C360.609 325.774 360.21 326.272 360.112 326.172C360.015 326.073 360.311 325.575 360.708 324.978C361.105 324.38 361.503 323.883 361.602 323.982Z" fill="#2C2656"/>
<path d="M363.987 320.797C364.086 320.897 363.987 321.195 363.689 321.394C363.49 321.693 363.192 321.892 363.093 321.792C362.994 321.693 363.093 321.394 363.391 321.195C363.689 320.897 363.888 320.797 363.987 320.797Z" fill="#2C2656"/>
<path d="M399.652 405.5C399.354 405.6 395.876 389.475 391.903 369.47C387.829 349.563 384.849 333.339 385.048 333.24C385.346 333.14 388.823 349.265 392.797 369.271C396.87 389.276 399.95 405.401 399.652 405.5Z" fill="#8982BC"/>
<path d="M411.573 405.5C411.275 405.6 407.798 389.475 403.824 369.47C399.751 349.563 396.771 333.339 396.969 333.24C397.267 333.14 400.745 349.265 404.718 369.271C408.792 389.276 411.871 405.401 411.573 405.5Z" fill="#8982BC"/>
<path d="M363.888 326.471H399.752V333.24H363.888V326.471Z" fill="#8982BC"/>
<path d="M379.982 329.955C380.28 329.955 377.498 346.974 373.922 367.777C370.346 388.679 367.166 405.501 366.967 405.501C366.67 405.501 369.451 388.481 373.028 367.579C376.604 346.776 379.684 329.855 379.982 329.955Z" fill="#8982BC"/>
<path d="M370.345 329.955C370.643 329.955 367.861 346.974 364.285 367.777C360.709 388.679 357.529 405.501 357.33 405.501C357.033 405.501 359.814 388.481 363.391 367.579C366.967 346.776 370.146 329.855 370.345 329.955Z" fill="#8982BC"/>
<path d="M391.208 363.398H403.03L403.626 366.185H391.704L391.208 363.398Z" fill="#8982BC"/>
<path d="M368.458 397.936C368.458 398.234 366.371 398.734 363.59 399.13C360.907 399.528 358.623 399.628 358.623 399.329C358.623 399.031 360.709 398.531 363.49 398.135C366.172 397.834 368.358 397.736 368.458 397.936Z" fill="#8982BC"/>
<path d="M369.451 391.665C369.451 391.963 367.365 392.463 364.583 392.859C361.901 393.257 359.616 393.357 359.616 393.058C359.616 392.76 361.702 392.26 364.484 391.864C367.166 391.466 369.451 391.366 369.451 391.665Z" fill="#8982BC"/>
<path d="M370.544 384.399C370.544 384.698 368.458 385.197 365.676 385.594C362.994 385.992 360.709 386.091 360.709 385.793C360.709 385.494 362.795 384.995 365.577 384.598C368.259 384.2 370.544 384.101 370.544 384.399Z" fill="#8982BC"/>
<path d="M371.835 377.134C371.835 377.432 369.749 377.932 366.967 378.328C364.285 378.726 362 378.825 362 378.527C362 378.228 364.086 377.729 366.868 377.333C369.55 376.935 371.736 376.835 371.835 377.134Z" fill="#8982BC"/>
<path d="M372.73 370.663C372.73 370.962 370.643 371.461 367.862 371.858C365.179 372.256 362.895 372.355 362.895 372.057C362.895 371.758 364.981 371.259 367.762 370.862C370.444 370.464 372.63 370.365 372.73 370.663Z" fill="#8982BC"/>
<path d="M374.319 364.095C374.319 364.393 372.233 364.893 369.451 365.289C366.769 365.687 364.484 365.787 364.484 365.488C364.484 365.19 366.57 364.69 369.352 364.294C372.134 363.898 374.319 363.796 374.319 364.095Z" fill="#8982BC"/>
<path d="M375.412 357.028C375.412 357.326 373.326 357.826 370.544 358.222C367.862 358.62 365.577 358.72 365.577 358.421C365.577 358.123 367.663 357.623 370.445 357.227C373.127 356.829 375.412 356.729 375.412 357.028Z" fill="#8982BC"/>
<path d="M376.704 349.264C376.704 349.562 374.618 350.062 371.836 350.458C369.153 350.856 366.869 350.956 366.869 350.657C366.869 350.359 368.955 349.859 371.736 349.463C374.418 349.065 376.704 348.965 376.704 349.264Z" fill="#8982BC"/>
<path d="M378.392 340.605C378.392 340.903 376.306 341.403 373.525 341.799C370.842 342.197 368.557 342.297 368.557 341.998C368.557 341.7 370.643 341.2 373.425 340.804C376.107 340.406 378.293 340.306 378.392 340.605Z" fill="#8982BC"/>
<path d="M53.43 330.95C53.43 330.95 51.8405 335.628 52.9335 339.012C54.0264 342.396 55.1188 341.202 55.1188 341.202C54.6015 340.225 54.3937 339.114 54.523 338.017C54.7216 336.126 55.1188 335.528 55.1188 335.528L56.0132 339.51C56.2457 338.857 56.4446 338.193 56.609 337.519C56.907 336.325 56.0132 334.135 56.2118 332.941C56.4104 331.846 56.8077 330.552 56.8077 330.552L53.43 330.95Z" fill="#F7D3A9"/>
<path d="M118.204 269.04L118.502 267.248C118.502 267.248 116.714 263.267 117.21 262.471C117.932 261.574 118.73 260.741 119.595 259.982L120.688 260.181C120.688 260.181 122.675 262.769 122.873 263.665C123.072 264.56 121.88 267.646 121.085 270.035L118.204 269.04Z" fill="#F7D3A9"/>
<path d="M118.7 258.092L119.694 266.254L120.787 266.055L119.694 257.993L119.098 256.599L118.7 258.092Z" fill="#7FBBEF"/>
<path d="M118.403 261.077L119.595 259.982C119.595 259.982 120.191 261.177 118.9 262.471L118.403 261.077Z" fill="#F7D3A9"/>
<path d="M91.182 396.641L91.2813 399.627L89.1953 399.926L89.0959 396.641H91.182Z" fill="#F7D3A9"/>
<path d="M89.1952 399.926C89.1952 399.926 98.1363 398.334 99.4279 399.429C100.719 400.524 88.9966 401.519 88.9966 401.519L89.1952 399.926Z" fill="#3F327A"/>
<path d="M59.9894 386.091L57.5056 387.783L56.1147 386.091L58.8965 384.299L59.9894 386.091Z" fill="#F7D3A9"/>
<path d="M56.1126 386.091C56.1126 386.091 62.0733 392.859 61.8747 394.651C61.5768 396.343 54.7217 386.788 54.7217 386.788L56.1126 386.091Z" fill="#3F327A"/>
<path d="M94.7587 322.29C94.7587 322.29 102.21 329.158 102.406 354.837C102.506 380.517 93.5644 397.537 93.5644 397.537H87.3057C87.3057 397.537 97.6377 365.288 86.0141 343.988C86.0141 343.988 82.1373 368.872 61.5752 387.884L56.6096 382.607C56.6096 382.607 71.8095 363.497 71.9088 339.708C71.9088 335.03 72.7054 332.542 71.1122 327.267L94.7587 322.29Z" fill="#624FB5"/>
<path d="M90.4861 293.426C90.4861 293.426 110.057 288.15 115.024 274.415L117.806 268.145L121.582 269.439C121.582 269.439 120.588 294.62 96.3476 301.488L95.9504 302.981C94.2461 309.566 94.1779 316.469 95.7517 323.087L98.2356 328.163L72.1067 334.035C72.1067 334.035 68.8284 321.195 71.9081 307.659C71.9081 307.659 66.2453 306.365 56.7083 333.139L53.0327 332.442C53.0327 332.442 58.2983 296.511 77.273 291.534L90.4861 293.426Z" fill="#FE9887"/>
<path d="M90.884 278.695L92.3742 285.563C92.514 286.301 92.365 287.064 91.958 287.694C91.5511 288.324 90.9175 288.773 90.1888 288.947L89.2945 289.146L88.9966 293.924L82.3401 293.426L83.3337 279.89L90.884 278.695Z" fill="#F7D3A9"/>
<path d="M85.5181 289.644C85.5181 289.644 88.2006 288.449 88.2999 286.459C88.2999 286.459 84.823 284.269 86.0163 283.373C87.2096 282.476 89.0965 284.667 89.0965 284.667C89.0965 284.667 88.1029 281.581 88.5007 280.783C88.5007 280.783 93.3685 281.081 92.7726 278.195C92.7726 278.195 91.481 276.901 88.4013 276.503C85.3217 276.105 83.2356 281.181 83.2356 281.181L85.5181 289.644Z" fill="#353E70"/>
<path d="M87.6053 276.806C86.8631 276.247 85.9497 275.965 85.0222 276.008C83.8623 276.013 82.7178 276.274 81.6703 276.773C80.6228 277.272 79.6981 277.996 78.9621 278.894C78.2228 279.8 77.6961 280.86 77.421 281.997C77.1459 283.134 77.1294 284.319 77.3726 285.463C77.484 285.991 77.6856 286.496 77.9685 286.956C78.7651 288.151 80.1539 288.648 81.4454 289.046C82.6377 289.444 84.6244 290.141 85.6181 289.444C85.6181 289.444 84.1279 284.667 85.0222 281.782C85.6229 280 86.4942 278.322 87.6053 276.806Z" fill="#353E70"/>
<path d="M77.9689 281.88C76.1808 280.487 73.2004 280.885 71.9088 282.678C71.0145 283.873 70.8159 285.565 69.6252 286.461C68.2343 287.556 66.2476 287.058 64.5588 286.859C61.4785 286.66 58.2008 287.954 56.512 290.542C54.8231 293.13 55.0218 296.912 57.3086 299.002C58.0827 299.664 58.9863 300.156 59.9615 300.447C60.9367 300.739 61.9619 300.823 62.9714 300.694C64.9581 300.594 66.9454 299.798 68.8329 299.101C71.5153 298.006 74.3964 296.314 75.2902 293.527C75.886 291.636 75.3895 289.446 75.6874 287.456C75.7867 286.859 75.9853 286.162 76.484 285.963C76.8813 285.764 77.4777 285.963 77.8749 285.963C79.0672 285.863 79.7623 284.47 79.3651 283.375C79.1281 282.848 78.7709 282.385 78.3222 282.021C77.8735 281.658 77.3459 281.406 76.782 281.285" fill="#353E70"/>
<path d="M81.2472 292.032C79.5121 293.058 77.9105 294.295 76.4786 295.715C75.0878 297.208 73.9948 298.999 73.8955 301.089C73.8955 301.586 73.8955 302.184 74.2928 302.482C74.5015 302.651 74.7363 302.786 74.9879 302.88C77.074 303.477 79.1606 302.184 80.9487 300.989C83.9291 298.999 87.0088 297.008 89.294 294.221C89.3914 294.137 89.4621 294.026 89.4974 293.903C89.5327 293.779 89.531 293.647 89.4926 293.524C89.3794 293.401 89.2448 293.3 89.0954 293.226C87.1086 292.529 83.4325 292.629 81.2472 292.031" fill="#624FB5"/>
<path d="M89.6918 294.521C89.6114 294.61 89.5445 294.711 89.4932 294.82C89.3366 295.115 89.1356 295.384 88.8973 295.618C88.798 295.817 88.5994 296.016 88.5001 296.215C88.2774 296.425 88.0776 296.659 87.9042 296.912C87.7056 297.111 87.507 297.409 87.2091 297.71C86.9691 298 86.7024 298.268 86.4125 298.508C85.117 299.859 83.6468 301.031 82.0412 301.991C81.1072 302.574 80.1065 303.042 79.0608 303.385C77.9506 303.816 76.7743 304.052 75.5839 304.081H73.7957C73.4745 304.074 73.1629 303.97 72.9014 303.783C72.627 303.628 72.416 303.381 72.3055 303.086C72.1397 302.494 72.1746 301.864 72.4049 301.294C72.6035 300.797 72.7028 300.199 72.9014 299.801C73.3232 298.882 73.8946 298.039 74.5924 297.307C75.1882 296.61 75.7846 296.013 76.3805 295.416C77.2751 294.519 78.203 293.656 79.1622 292.828C79.4602 292.53 79.7581 292.331 79.9588 292.131C80.0673 292.08 80.1677 292.013 80.2568 291.932C80.1764 292.021 80.1095 292.122 80.0582 292.231L79.363 292.928C78.7671 293.525 77.7735 294.421 76.6805 295.516C76.0847 296.113 75.5876 296.71 74.9917 297.407C74.3273 298.142 73.79 298.983 73.4022 299.895C73.2036 300.393 73.1043 300.891 72.9057 301.388C72.6786 301.853 72.6429 302.39 72.8064 302.881C72.9207 303.105 73.0903 303.296 73.299 303.435C73.5076 303.575 73.7485 303.659 73.9986 303.679C74.5905 303.779 75.1948 303.779 75.7867 303.679C76.9318 303.553 78.0626 303.319 79.1644 302.982C80.1614 302.598 81.125 302.132 82.0454 301.589C83.5989 300.635 85.033 299.499 86.3174 298.205L87.114 297.407C87.3126 297.108 87.6106 296.909 87.8092 296.608C88.0078 296.409 88.2064 296.111 88.405 295.911C88.6037 295.712 88.703 295.513 88.9016 295.314C89.1398 295.081 89.3408 294.811 89.4975 294.516C89.5925 294.621 89.5925 294.521 89.6918 294.521Z" fill="#CE6C5F"/>
<path d="M89.6917 296.412C89.6917 296.412 89.3938 296.611 88.7974 297.109C88.0812 297.795 87.4478 298.563 86.9099 299.397C86.2592 300.719 85.695 302.082 85.2211 303.477C84.9232 304.276 84.6253 305.07 84.2275 305.966C83.7907 306.845 83.221 307.65 82.5387 308.355C81.7784 309.085 80.8605 309.63 79.8562 309.947C79.4069 310.126 78.941 310.259 78.4653 310.345C77.9618 310.477 77.4266 310.406 76.9752 310.146C76.7444 310.057 76.5408 309.909 76.3841 309.717C76.2274 309.525 76.1229 309.296 76.0808 309.051C75.9184 308.641 75.8505 308.198 75.8822 307.757C76.0079 307.042 76.2076 306.342 76.4781 305.667L76.6767 305.767C76.5784 305.878 76.4544 305.964 76.3155 306.016C76.1766 306.068 76.0271 306.085 75.8801 306.065C75.7432 306.05 75.6108 306.007 75.4913 305.939C75.3717 305.87 75.2674 305.778 75.1849 305.667C75.063 305.516 74.9809 305.337 74.9462 305.145C74.9115 304.954 74.9253 304.757 74.9863 304.572C75.0432 304.355 75.1446 304.152 75.2842 303.975L75.4828 303.776C75.3257 304.029 75.1927 304.297 75.0856 304.575C75.0457 304.745 75.0427 304.922 75.077 305.094C75.1113 305.266 75.1819 305.428 75.2842 305.57C75.46 305.71 75.6629 305.812 75.8801 305.869C76.0787 305.869 76.3766 305.869 76.4759 305.67L76.9725 305.073L76.6746 305.77C76.418 306.414 76.2195 307.08 76.0814 307.759C76.0411 308.136 76.11 308.516 76.28 308.854C76.4323 309.237 76.7143 309.554 77.0766 309.75C77.4819 309.935 77.9394 309.97 78.3682 309.85C78.8406 309.75 79.3054 309.617 79.759 309.452C80.7329 309.131 81.6178 308.586 82.3422 307.859C82.9922 307.188 83.529 306.415 83.9317 305.571C84.3289 304.773 84.6269 303.979 85.0246 303.182C85.5054 301.742 86.1035 300.344 86.8128 299.002C87.322 298.118 87.9966 297.341 88.7995 296.714C88.8988 296.614 89.0974 296.515 89.1967 296.415C89.296 296.316 89.3954 296.316 89.4947 296.216C89.5924 296.412 89.6917 296.412 89.6917 296.412Z" fill="#CE6C5F"/>
<path opacity="0.18" d="M78.7638 310.645C78.7638 310.645 76.7771 316.617 81.6449 313.333C86.612 309.949 87.3077 297.707 87.3077 297.707C87.3077 297.707 83.9296 309.948 78.7638 310.645Z" fill="#8982BC"/>
<path d="M97.8383 368.175C97.8383 368.275 96.5468 368.275 94.9572 368.474C93.3677 368.673 92.1755 368.971 92.0762 368.872C92.0762 368.772 93.2684 368.275 94.8579 368.074C96.5468 367.876 97.8383 368.075 97.8383 368.175Z" fill="#453C87"/>
<path d="M98.633 366.084C98.3903 366.312 98.1232 366.513 97.8364 366.681C97.1273 367.059 96.3517 367.296 95.5528 367.378C94.7571 367.451 93.9551 367.418 93.1683 367.278C92.5724 367.079 92.2739 366.98 92.2739 366.88C92.2739 366.781 93.7641 367.278 95.5522 366.98C96.6114 366.807 97.6458 366.506 98.633 366.084Z" fill="#453C87"/>
<path d="M75.2863 363.499C75.2863 363.599 74.1934 363.101 73.2996 361.907C72.4053 360.812 72.2066 359.619 72.306 359.619C72.4053 359.619 72.8025 360.614 73.5975 361.709C74.3925 362.701 75.2863 363.397 75.2863 363.499Z" fill="#453C87"/>
<path d="M74.6904 364.094C74.5911 364.094 74.5911 363.895 74.2931 363.696C73.9224 363.421 73.5226 363.187 73.1009 362.999C72.4766 362.682 71.8787 362.316 71.3127 361.904C71.3127 361.805 72.2071 362.103 73.2002 362.702C73.6323 362.952 74.0328 363.252 74.393 363.598C74.7897 363.796 74.7897 364.094 74.6904 364.094Z" fill="#453C87"/>
<path d="M91.6791 345.879C91.1412 345.925 90.5998 345.857 90.0896 345.68C89.0959 345.382 87.9042 344.685 86.5133 344.088C85.1224 343.391 83.9302 342.794 83.0364 342.296C82.1426 341.799 81.6455 341.498 81.6455 341.4C81.6455 341.4 82.2414 341.599 83.1357 341.997C84.03 342.395 85.3211 342.993 86.6126 343.689C87.7396 344.317 88.9003 344.882 90.0896 345.381C91.0827 345.78 91.6791 345.78 91.6791 345.879Z" fill="#453C87"/>
<g opacity="0.18">
<path opacity="0.18" d="M199.27 145.42C197.879 146.515 197.482 148.705 197.979 150.397C198.475 152.188 199.568 153.681 200.661 155.075C203.443 158.658 206.423 162.241 209.602 165.625C211.093 167.317 212.683 168.91 213.874 170.801C218.742 178.365 217.153 188.319 218.047 197.277C218.246 199.267 219.239 201.855 221.226 201.756C222 201.693 222.733 201.379 223.312 200.86C225.382 199.387 227.08 197.451 228.271 195.204C229.461 192.957 230.11 190.463 230.167 187.92C230.167 186.427 230.068 184.934 230.465 183.541C231.16 181.55 232.85 180.256 234.24 178.763C237.121 175.578 238.413 171.398 239.705 167.317C241.095 162.639 242.486 157.463 240.3 153.083C238.711 149.997 235.532 148.107 232.353 146.813C221.922 142.632 210.298 144.225 199.172 145.817" fill="#8982BC"/>
</g>
<path d="M226.889 199.168L226.988 202.154L224.803 202.452L224.703 199.168H226.889Z" fill="#F7D3A9"/>
<path d="M224.803 202.453C224.803 202.453 233.744 200.86 235.035 201.955C236.327 203.05 224.604 204.045 224.604 204.045L224.803 202.453Z" fill="#3F327A"/>
<path d="M233.346 182.845L231.856 185.433L229.869 184.537L231.558 181.75L233.346 182.845Z" fill="#F7D3A9"/>
<path d="M229.869 184.537C229.869 184.537 238.214 188.021 238.711 189.713C239.208 191.405 228.875 185.731 228.875 185.731L229.869 184.537Z" fill="#3F327A"/>
<path d="M229.472 110.683C232.949 108.494 228.478 106.602 232.651 106.901C233.545 106.901 234.638 107 235.333 106.503C236.327 105.806 236.526 104.413 236.228 103.218C235.896 101.786 235.104 100.504 233.973 99.5682C232.841 98.6326 231.434 98.0962 229.968 98.0417C225.994 97.9422 222.616 101.326 218.642 101.128C217.152 101.028 215.761 100.431 214.271 100.033C210.098 98.7387 204.635 99.4357 202.548 103.317C201.952 104.313 201.751 105.507 201.058 106.502C199.27 109.389 195.494 109.886 192.713 111.678C191.165 112.713 189.924 114.146 189.12 115.828C188.316 117.509 187.979 119.376 188.143 121.233C188.341 122.726 188.838 124.418 190.129 125.314C190.129 125.314 194.401 130.788 204.038 125.314C213.674 119.839 229.472 110.683 229.472 110.683Z" fill="#FE9887"/>
<path d="M221.425 120.935C222.915 119.243 245.863 144.425 250.831 147.113C255.699 149.801 254.606 147.113 254.606 147.113L244.771 136.165L225.895 114.864L221.425 120.935Z" fill="#624FB5"/>
<path d="M224.306 111.48C222.269 110.492 219.996 110.099 217.747 110.345C215.498 110.591 213.364 111.468 211.589 112.873L211.49 112.973C205.132 118.049 197.184 128.002 199.568 145.023L221.921 142.335C221.921 142.335 218.742 138.553 222.815 127.306C225.001 121.134 226.988 115.362 226.988 115.362L224.306 111.48Z" fill="#C4B9FF"/>
<path d="M212.384 119.541C212.384 119.541 214.272 139.647 221.822 142.334C229.372 145.021 242.982 145.022 242.982 145.022C242.982 145.022 244.075 143.628 229.571 140.145C228.975 140.045 228.378 139.846 227.683 139.747C227.683 139.747 219.437 134.969 219.934 120.437C219.951 119.772 219.918 119.107 219.835 118.447C219.537 116.357 218.444 111.978 215.464 112.375C211.49 112.873 212.384 119.541 212.384 119.541Z" fill="#624FB5"/>
<path d="M199.569 145.022C199.569 145.022 216.557 165.526 220.034 171.597C223.412 177.669 221.921 199.265 223.014 199.865C224.107 200.464 228.479 199.865 228.479 199.865L228.777 183.541L228.975 174.981C229.075 170.869 228.366 166.776 226.889 162.938L222.319 150.795C222.319 150.795 241.096 151.989 237.817 161.445C233.644 173.289 229.87 182.347 229.87 182.347L233.645 183.84C233.645 183.84 251.428 161.445 247.255 151.591C243.083 141.737 221.923 142.533 221.923 142.533L199.569 145.022Z" fill="#FFC359"/>
<path d="M236.326 106.006L233.346 112.376C233.016 113.048 232.433 113.562 231.725 113.804C231.018 114.047 230.243 113.999 229.571 113.67L228.774 113.272L227.383 114.864C227.148 115.126 226.864 115.338 226.548 115.49C226.231 115.641 225.887 115.729 225.537 115.747C225.186 115.766 224.835 115.715 224.504 115.597C224.173 115.48 223.869 115.298 223.608 115.063L222.913 114.466C222.301 113.92 221.927 113.156 221.871 112.337C221.815 111.518 222.082 110.71 222.615 110.087L229.571 102.223L236.326 106.006Z" fill="#F7D3A9"/>
<path d="M225.398 111.48C225.398 111.48 228.18 112.177 229.472 110.682C229.472 110.682 227.982 106.899 229.472 106.798C230.962 106.798 231.061 109.684 231.061 109.684C231.061 109.684 232.154 106.598 232.949 106.3C232.949 106.3 236.624 109.585 237.916 106.897C237.916 106.897 237.717 105.106 235.531 102.916C233.345 100.726 228.975 101.92 228.975 101.92L225.398 111.48Z" fill="#FE9887"/>
<path d="M226.889 115.261C226.889 115.261 226.889 115.361 226.69 115.56C226.432 115.77 226.124 115.907 225.796 115.958C225.3 116.008 224.801 116.008 224.306 115.958C223.984 115.951 223.673 115.847 223.411 115.659C223.133 115.48 222.895 115.242 222.716 114.963C222.072 114.063 221.724 112.984 221.722 111.877C221.722 111.079 221.921 110.583 222.02 110.583C222.12 110.583 222.02 111.08 222.02 111.877C222.061 112.916 222.407 113.92 223.014 114.763L223.61 115.36C223.826 115.472 224.062 115.54 224.305 115.559C224.767 115.609 225.234 115.609 225.696 115.559C226.005 115.564 226.312 115.496 226.59 115.36C226.699 115.366 226.805 115.331 226.889 115.261Z" fill="#624FB5"/>
<path d="M215.265 117.452C215.085 117.794 214.886 118.127 214.669 118.447C214.272 119.144 213.775 120.04 213.08 121.135C211.318 124.062 209.79 127.124 208.51 130.292C207.842 132.065 207.343 133.898 207.02 135.766C206.756 137.278 206.623 138.81 206.622 140.345C206.618 141.377 206.685 142.408 206.821 143.431C206.92 144.127 207.02 144.526 207.02 144.526C207.007 144.42 206.974 144.319 206.92 144.227C206.89 143.953 206.823 143.685 206.722 143.429C206.501 142.414 206.368 141.381 206.324 140.343C206.29 138.778 206.39 137.213 206.622 135.665C206.958 133.8 207.457 131.968 208.113 130.191C209.408 126.993 211.005 123.927 212.881 121.034C213.577 119.939 214.173 119.043 214.57 118.446C214.967 117.75 215.166 117.452 215.265 117.452Z" fill="#624FB5"/>
<path d="M220.928 109.887C222.258 110.791 223.797 111.339 225.399 111.48C227.783 111.579 229.275 101.526 229.275 101.526L220.928 109.887Z" fill="#FE9887"/>
<path d="M211.391 145.818C211.526 146.167 211.56 146.546 211.49 146.913C211.46 147.775 211.257 148.621 210.894 149.402C210.555 150.199 210.047 150.912 209.404 151.492C209.126 151.719 208.826 151.919 208.51 152.089C208.51 152.089 208.808 151.79 209.205 151.291C209.724 150.653 210.158 149.95 210.497 149.201C210.838 148.441 211.072 147.637 211.192 146.812C211.292 146.216 211.292 145.818 211.391 145.818Z" fill="#DBA246"/>
<path d="M211.689 153.781C211.799 153.905 211.899 154.038 211.987 154.179C212.186 154.477 212.483 154.776 212.881 155.274C213.676 156.269 214.769 157.663 216.16 159.454C217.728 161.561 219.123 163.791 220.332 166.123C221.047 167.497 221.645 168.928 222.12 170.403C222.623 172.001 223.021 173.63 223.313 175.28C224.209 181.078 224.707 186.931 224.803 192.798C224.803 195.085 224.803 196.879 224.703 198.171C224.703 198.768 224.604 199.266 224.604 199.664C224.604 199.963 224.604 200.162 224.505 200.162V198.171C224.505 196.877 224.505 195.085 224.406 192.896C224.269 187.06 223.738 181.241 222.816 175.478C222.557 173.83 222.192 172.201 221.723 170.601C221.248 169.126 220.65 167.694 219.935 166.321C218.78 163.98 217.417 161.748 215.862 159.652C214.57 157.861 213.477 156.368 212.683 155.372C212.285 154.876 211.987 154.477 211.788 154.178C211.788 153.98 211.689 153.88 211.689 153.781Z" fill="#DBA246"/>
<path d="M221.624 148.307C221.723 148.307 221.822 148.904 222.12 149.502C222.319 150.198 222.617 150.696 222.518 150.696C222.418 150.796 222.021 150.298 221.721 149.601C221.524 148.904 221.524 148.307 221.624 148.307Z" fill="#DBA246"/>
<path d="M220.729 145.918C220.63 146.018 220.034 145.421 219.239 144.724C218.444 144.027 217.749 143.529 217.848 143.43C217.948 143.33 218.645 143.728 219.537 144.425C220.332 145.122 220.829 145.817 220.729 145.918Z" fill="#DBA246"/>
<path d="M224.703 149.9C224.821 149.807 224.956 149.739 225.101 149.701C225.543 149.528 225.974 149.329 226.392 149.104C228.09 148.552 229.874 148.316 231.657 148.408C232.872 148.504 234.071 148.738 235.233 149.104C236.619 149.522 237.881 150.273 238.909 151.294C239.452 151.877 239.889 152.55 240.201 153.284C240.471 154.055 240.638 154.858 240.697 155.673C240.782 156.5 240.815 157.331 240.796 158.161C240.811 159.025 240.778 159.889 240.697 160.749C240.512 162.42 240.111 164.059 239.505 165.626C238.909 167.119 238.213 168.513 237.617 169.906C236.326 172.594 235.233 174.983 234.339 177.073C233.346 179.063 232.65 180.755 232.056 181.85C231.758 182.447 231.46 182.846 231.36 183.045C231.272 183.186 231.173 183.319 231.062 183.443L231.261 183.045C231.517 182.627 231.749 182.195 231.956 181.751C232.552 180.656 233.248 178.964 234.142 176.874C235.035 174.784 236.128 172.395 237.42 169.707C238.016 168.314 238.711 166.92 239.307 165.427C239.913 163.895 240.314 162.288 240.5 160.65C240.582 159.823 240.615 158.992 240.599 158.161C240.618 157.364 240.584 156.566 240.5 155.772C240.44 154.991 240.273 154.221 240.003 153.485C239.701 152.799 239.299 152.161 238.811 151.594C237.825 150.642 236.636 149.928 235.334 149.504C234.174 149.128 232.973 148.895 231.758 148.807C230.014 148.697 228.265 148.899 226.592 149.404C225.299 149.601 224.703 150 224.703 149.9Z" fill="#DBA246"/>
<g opacity="0.18">
<path opacity="0.18" d="M219.736 241.967C219.777 241.736 219.87 241.517 220.008 241.328C220.146 241.138 220.325 240.982 220.532 240.872C220.86 240.725 221.216 240.648 221.575 240.648C221.935 240.648 222.291 240.725 222.619 240.872C223.612 241.469 224.109 242.763 224.407 243.858C224.705 245.053 224.903 246.247 225.599 247.242C225.801 247.577 226.12 247.825 226.493 247.939C227.188 248.038 227.685 247.541 228.182 247.043C229.474 245.649 230.964 244.256 232.752 243.758C234.54 243.261 236.825 243.758 237.818 245.45C238.247 246.389 238.484 247.404 238.514 248.436C239.109 256.697 239.606 264.959 240.202 273.22C240.5 277.104 240.699 280.984 239.606 284.667C238.613 287.951 229.076 297.606 224.506 297.606" fill="#8982BC"/>
</g>
<path d="M220.332 325.176L218.147 369.668L211.787 399.328L208.906 398.53L211.39 368.77L206.422 338.213L201.952 366.779L192.116 399.426L189.533 399.525L194.202 366.978L192.911 327.364L220.332 325.176Z" fill="#F7D3A9"/>
<path d="M229.77 250.626L226.887 273.42L212.78 287.155L200.064 287.354L195.496 295.416L197.383 302.682C198.753 307.985 198.298 313.596 196.091 318.608L193.111 327.565L220.829 330.75C221.723 309.649 221.325 307.957 217.848 295.914L234.241 274.714V249.93L229.77 250.626Z" fill="#3F327A"/>
<path d="M218.047 249.83C216.656 250.628 207.814 273.32 207.814 273.32L208.311 287.852L199.966 289.344V272.722L214.471 247.143L218.047 249.83Z" fill="#3F327A"/>
<path d="M210.795 273.121L213.378 279.69C213.646 280.39 213.63 281.167 213.333 281.856C213.036 282.544 212.481 283.088 211.788 283.372L210.894 283.67L211.291 288.448L204.635 289.045L203.443 275.51L210.795 273.121Z" fill="#F7D3A9"/>
<path d="M207.119 285.562C207.119 285.562 209.702 283.373 209.503 281.382C209.503 281.382 205.728 279.789 206.721 278.694C207.715 277.599 209.9 279.492 209.9 279.492C209.9 279.492 208.41 276.606 208.708 275.809C208.708 275.809 213.576 275.411 212.585 272.525C212.585 272.525 211.095 271.43 208.015 271.529C204.935 271.629 203.642 277.002 203.642 277.002L207.119 285.562Z" fill="#FFC359"/>
<path d="M208.509 271.826C207.052 271.457 205.529 271.436 204.063 271.764C202.596 272.093 201.227 272.762 200.065 273.717C198.92 274.683 198.025 275.911 197.454 277.297C196.883 278.683 196.655 280.186 196.787 281.68C196.986 283.77 197.781 285.96 196.986 287.852C196.526 288.825 195.846 289.677 194.999 290.34C192.715 292.43 190.23 294.521 188.442 297.109C186.654 299.697 185.462 302.882 185.958 305.967C186.15 307.315 186.698 308.587 187.548 309.649C188.063 310.133 188.529 310.666 188.939 311.242C190.33 313.332 189.535 316.218 190.429 318.607C191.522 321.593 195.098 322.987 198.277 323.285C202.649 323.683 207.417 322.788 210.695 319.802C213.974 316.816 215.168 311.44 212.682 307.758C211.49 305.966 209.304 304.374 209.503 302.184C209.602 300.79 210.695 299.795 211.192 298.501C211.756 297.249 211.886 295.845 211.562 294.51C211.238 293.176 210.479 291.988 209.404 291.136C208.607 290.539 207.616 290.14 206.92 289.444C206.224 288.747 205.728 287.652 206.123 286.756C206.421 286.059 207.216 285.661 207.614 284.965C208.11 283.969 207.514 282.677 206.719 281.78C205.924 280.883 205.03 279.988 204.931 278.893C204.904 277.997 205.185 277.118 205.728 276.405C206.524 274.912 207.317 273.319 208.112 271.826" fill="#FFC359"/>
<path d="M192.912 327.366L190.926 342.893L205.827 345.282L206.523 339.11L207.319 345.181H222.221L220.632 330.55L192.912 327.366Z" fill="#624FB5"/>
<path d="M189.833 398.134C189.833 398.134 198.873 398.134 199.966 399.428C201.059 400.822 189.336 399.627 189.336 399.627L189.833 398.134Z" fill="#3F327A"/>
<path d="M208.212 398.831C208.212 398.831 217.153 397.238 218.444 398.333C219.736 399.428 208.013 400.423 208.013 400.423L208.212 398.831Z" fill="#3F327A"/>
<path d="M212.285 340.903C212.186 341.003 210.099 340.007 207.318 338.913C204.635 337.818 202.351 337.121 202.351 337.022C202.351 336.922 202.946 337.121 203.841 337.32C204.735 337.619 206.026 338.017 207.417 338.515C208.617 338.95 209.78 339.482 210.894 340.107C211.788 340.605 212.285 340.903 212.285 340.903Z" fill="#453C87"/>
<path d="M206.125 343.69C206.125 343.789 205.231 343.59 203.94 343.292C202.549 342.993 200.662 342.695 198.576 342.396C196.491 342.097 194.503 341.898 193.112 341.698C191.721 341.499 190.828 341.4 190.828 341.3C190.828 341.201 191.723 341.3 193.112 341.4C194.501 341.499 196.49 341.698 198.576 341.997C200.663 342.296 202.65 342.694 203.94 342.993C205.331 343.291 206.125 343.59 206.125 343.69Z" fill="#453C87"/>
<path d="M221.822 342.993C221.822 343.093 221.026 343.093 219.637 343.192C218.248 343.292 216.359 343.391 214.371 343.491C212.285 343.59 210.397 343.789 209.106 343.889C207.814 343.988 206.92 343.988 206.92 343.988C206.92 343.889 207.717 343.789 209.106 343.59C210.495 343.391 212.384 343.192 214.371 343.093C216.457 342.993 218.345 342.894 219.735 342.894C220.928 342.894 221.822 342.894 221.822 342.993Z" fill="#453C87"/>
<path d="M221.226 334.234C220.945 334.402 220.645 334.536 220.332 334.632C219.525 334.764 218.697 334.661 217.947 334.334C217.206 333.993 216.583 333.439 216.159 332.741C215.861 332.244 215.762 331.845 215.861 331.845C215.96 331.845 216.06 332.144 216.358 332.643C216.784 333.253 217.368 333.735 218.046 334.037C218.732 334.344 219.482 334.481 220.232 334.435C220.829 334.234 221.127 334.133 221.226 334.234Z" fill="#453C87"/>
<path d="M220.332 345.479C220.232 345.479 219.835 343.09 219.535 340.105C219.235 337.12 219.039 334.731 219.138 334.731C219.237 334.731 219.634 337.12 219.934 340.105C220.234 343.09 220.431 345.479 220.332 345.479Z" fill="#453C87"/>
<path d="M194.403 367.876C194.403 367.777 195.199 367.976 196.191 368.274C197.182 368.573 197.979 368.772 197.979 368.871C197.979 368.971 197.085 368.971 196.091 368.672C195.475 368.541 194.897 368.269 194.403 367.876Z" fill="#D3AB84"/>
<path d="M198.277 367.677C198.277 367.776 197.383 368.075 196.29 367.975C195.198 367.975 194.304 367.677 194.304 367.577C194.304 367.478 195.198 367.577 196.29 367.677C197.383 367.677 198.18 367.577 198.277 367.677Z" fill="#D3AB84"/>
<path d="M215.861 368.174C215.316 368.488 214.701 368.659 214.073 368.672C213.079 368.871 212.186 368.771 212.186 368.672C212.186 368.572 212.982 368.373 213.974 368.274C214.965 368.174 215.762 368.075 215.861 368.174Z" fill="#D3AB84"/>
<path d="M214.868 367.378C214.554 367.682 214.182 367.919 213.775 368.075C213.08 368.374 212.583 368.573 212.483 368.473C212.483 368.374 212.881 368.075 213.576 367.776C214.272 367.378 214.767 367.279 214.868 367.378Z" fill="#D3AB84"/>
<path d="M217.253 249.83C217.253 249.83 221.129 247.74 221.129 247.441C220.931 246.643 218.846 247.64 218.846 247.64C218.846 247.64 222.025 244.356 221.528 243.858C221.23 243.559 219.245 245.251 219.245 245.251C219.245 245.251 220.437 243.261 220.041 242.862C219.646 242.463 217.856 244.753 217.856 244.753C217.856 244.753 218.551 243.26 218.154 242.862C217.856 242.564 214.378 248.635 214.378 248.635L217.253 249.83Z" fill="#F7D3A9"/>
<path d="M230.366 250.627C230.366 250.627 228.677 246.546 228.975 246.347C229.571 245.849 230.564 247.939 230.564 247.939C230.564 247.939 230.267 243.361 230.962 243.261C231.359 243.261 231.758 245.75 231.758 245.75C231.758 245.75 232.056 243.462 232.653 243.361C233.249 243.26 233.149 246.247 233.149 246.247C233.149 246.247 233.546 244.655 234.143 244.655C234.54 244.655 233.346 251.523 233.346 251.523L230.366 250.627Z" fill="#F7D3A9"/>
<path d="M142.743 346.478L152.976 321.594C152.976 321.594 181.289 331.149 180.991 331.747C180.693 332.344 168.67 357.028 168.67 357.028L142.743 346.478Z" fill="#F4F3FF"/>
<path d="M157.943 325.675C157.936 325.752 157.9 325.823 157.844 325.874C157.723 326.026 157.622 326.193 157.546 326.372C157.186 326.919 156.854 327.483 156.552 328.064C155.658 329.557 154.565 331.547 153.274 333.837C152.081 336.125 151.088 338.216 150.393 339.809C150.16 340.42 149.894 341.018 149.596 341.6C149.504 341.754 149.437 341.922 149.397 342.098C149.341 342.149 149.305 342.22 149.298 342.297C149.305 342.22 149.341 342.149 149.397 342.098C149.497 341.998 149.497 341.799 149.596 341.6C149.795 341.202 149.993 340.505 150.393 339.709C151.088 338.117 152.081 336.026 153.274 333.737C154.466 331.448 155.658 329.457 156.552 327.964C157.049 327.267 157.349 326.67 157.645 326.272C157.744 326.073 157.844 325.974 157.943 325.775C157.844 325.675 157.943 325.675 157.943 325.675Z" fill="#453C87"/>
<path d="M171.553 332.739C171.477 332.732 171.406 332.697 171.355 332.64C171.255 332.54 171.057 332.54 170.858 332.441C170.461 332.242 169.864 332.043 169.07 331.643C167.58 331.046 165.593 330.05 163.308 329.055C161.122 327.96 159.135 327.064 157.645 326.268C157.091 325.953 156.528 325.654 155.956 325.372C155.758 325.272 155.658 325.173 155.46 325.173C155.408 325.116 155.337 325.08 155.261 325.073C155.337 325.08 155.408 325.116 155.46 325.173C155.559 325.272 155.758 325.272 155.956 325.372C156.353 325.571 156.95 325.869 157.645 326.17C159.135 326.867 161.122 327.862 163.308 328.857C165.494 329.853 167.48 330.848 168.971 331.545C169.542 331.793 170.105 332.059 170.659 332.343C170.858 332.442 170.957 332.542 171.156 332.542C171.301 332.58 171.436 332.647 171.553 332.739Z" fill="#453C87"/>
<path d="M173.242 330.154C173.235 330.231 173.199 330.302 173.143 330.353C173.025 330.578 172.926 330.811 172.845 331.05C172.547 331.647 172.15 332.444 171.553 333.439C170.46 335.43 168.97 338.217 167.381 341.302C165.791 344.388 164.5 347.274 163.605 349.364C163.109 350.36 162.809 351.255 162.512 351.853C162.431 352.092 162.332 352.325 162.214 352.549L162.115 352.748C162.122 352.672 162.158 352.601 162.214 352.549C162.289 352.307 162.389 352.074 162.512 351.853C162.711 351.256 163.108 350.36 163.506 349.364C164.4 347.274 165.691 344.388 167.281 341.302C168.871 338.217 170.362 335.43 171.454 333.439C172.05 332.444 172.448 331.648 172.745 331.05C172.866 330.843 172.998 330.644 173.143 330.453C173.196 330.362 173.23 330.26 173.242 330.154Z" fill="#453C87"/>
<path d="M172.547 334.633C172.547 334.633 168.971 333.14 164.599 331.15C160.228 329.159 156.652 327.567 156.751 327.467C156.751 327.467 160.327 328.96 164.699 330.95C169.07 332.941 172.547 334.633 172.547 334.633Z" fill="#453C87"/>
<path d="M159.831 331.647C159.831 331.647 159.136 331.249 158.241 330.849C157.347 330.449 156.552 330.252 156.652 330.152C157.234 330.243 157.802 330.41 158.341 330.65C158.864 330.939 159.363 331.273 159.831 331.647Z" fill="#453C87"/>
<path d="M159.234 332.144C159.234 332.144 158.539 331.746 157.645 331.346C156.751 330.946 155.956 330.85 155.956 330.751C156.571 330.779 157.176 330.914 157.744 331.149C158.292 331.396 158.796 331.733 159.234 332.144Z" fill="#453C87"/>
<path d="M159.036 333.041C159.036 333.041 158.341 332.643 157.447 332.242C156.552 331.842 155.758 331.545 155.857 331.444C156.435 331.599 156.999 331.799 157.546 332.041C158.07 332.332 158.569 332.666 159.036 333.041Z" fill="#453C87"/>
<path d="M162.314 331.747C162.368 331.693 162.437 331.658 162.513 331.647C162.612 331.647 162.91 331.548 163.109 331.647C163.271 331.68 163.418 331.767 163.526 331.893C163.634 332.019 163.697 332.178 163.704 332.344C163.718 332.452 163.707 332.562 163.673 332.665C163.638 332.769 163.581 332.863 163.506 332.941C163.388 333.125 163.214 333.265 163.009 333.339C162.822 333.42 162.617 333.454 162.413 333.439C162.218 333.401 162.042 333.295 161.917 333.14C161.798 333.028 161.716 332.882 161.681 332.723C161.645 332.563 161.658 332.396 161.718 332.244C162.016 331.846 162.215 331.747 162.314 331.747C162.513 331.647 162.612 331.647 162.513 331.647C162.612 331.747 162.513 331.747 162.314 331.747C162.215 331.747 162.115 331.946 162.016 332.145C161.978 332.268 161.976 332.399 162.012 332.523C162.047 332.647 162.117 332.757 162.215 332.841C162.335 332.947 162.48 333.021 162.637 333.056C162.793 333.09 162.955 333.085 163.109 333.04C163.264 332.993 163.403 332.903 163.509 332.779C163.614 332.656 163.682 332.505 163.705 332.344C163.705 332.045 163.407 331.846 163.208 331.747C163.117 331.698 163.014 331.672 162.911 331.672C162.807 331.672 162.704 331.698 162.613 331.747H162.314Z" fill="#453C87"/>
<path d="M167.778 334.534C167.135 334.38 166.504 334.181 165.89 333.937C165.271 333.686 164.674 333.386 164.102 333.041C164.102 333.041 164.899 333.339 165.89 333.839C166.539 334.014 167.17 334.246 167.778 334.534Z" fill="#453C87"/>
<path d="M165.394 334.336C165.394 334.436 164.997 334.336 164.499 334.137C164.002 333.938 163.703 333.64 163.703 333.54L164.499 333.938C164.997 334.135 165.394 334.234 165.394 334.336Z" fill="#453C87"/>
<path d="M159.234 338.116H159.334C159.433 338.116 159.532 338.216 159.731 338.216C160.029 338.315 160.528 338.514 161.122 338.713C162.314 339.211 164.003 339.808 165.89 340.604H165.791C166.588 339.31 167.381 337.817 168.275 336.324L168.374 336.225L168.474 336.324C165.99 335.428 163.705 334.533 161.818 333.935H161.917C160.427 336.324 159.532 337.618 159.234 338.116C159.234 338.116 159.433 337.718 159.93 336.921C160.327 336.224 161.023 335.13 161.817 333.935V333.836H161.916C163.804 334.533 166.089 335.329 168.572 336.225H168.672L168.572 336.325L168.473 336.424C167.579 337.917 166.685 339.41 165.989 340.704V340.804H165.89C163.903 340.006 162.314 339.311 161.022 338.813C160.544 338.651 160.079 338.451 159.631 338.216C159.532 338.117 159.333 338.117 159.234 338.017L159.234 338.116Z" fill="#453C87"/>
<path d="M157.645 339.51C157.698 339.456 157.768 339.421 157.844 339.41C157.943 339.41 158.241 339.311 158.439 339.41C158.602 339.443 158.749 339.53 158.857 339.656C158.965 339.782 159.028 339.941 159.035 340.107C159.049 340.215 159.038 340.325 159.003 340.428C158.969 340.532 158.912 340.626 158.837 340.704C158.719 340.888 158.545 341.028 158.34 341.102C158.152 341.183 157.948 341.218 157.744 341.202C157.549 341.164 157.373 341.058 157.248 340.903C157.129 340.791 157.047 340.646 157.011 340.486C156.976 340.326 156.989 340.16 157.049 340.007C157.347 339.609 157.546 339.41 157.645 339.51C157.844 339.41 157.943 339.41 157.844 339.41C157.943 339.41 157.844 339.41 157.645 339.51C157.546 339.51 157.446 339.709 157.347 339.908C157.309 340.031 157.307 340.162 157.342 340.286C157.378 340.41 157.448 340.521 157.546 340.605C157.666 340.711 157.811 340.784 157.967 340.819C158.124 340.854 158.286 340.849 158.44 340.804C158.595 340.757 158.734 340.666 158.84 340.543C158.945 340.42 159.013 340.268 159.036 340.107C159.036 339.809 158.738 339.61 158.539 339.51C158.448 339.461 158.345 339.436 158.241 339.436C158.137 339.436 158.035 339.461 157.943 339.51L157.645 339.51Z" fill="#453C87"/>
<path d="M163.108 342.297C162.466 342.144 161.835 341.944 161.221 341.7C160.602 341.449 160.004 341.15 159.433 340.804C159.433 340.804 160.229 341.103 161.32 341.602C161.95 341.736 162.553 341.971 163.108 342.297Z" fill="#453C87"/>
<path d="M160.725 342C160.725 342.1 160.327 342 159.83 341.801C159.333 341.602 159.034 341.304 159.034 341.204L159.83 341.602C160.143 341.698 160.444 341.832 160.725 342Z" fill="#453C87"/>
<path d="M154.565 345.78H154.665C154.764 345.78 154.863 345.88 155.062 345.88C155.36 345.979 155.858 346.178 156.453 346.377C157.645 346.875 159.334 347.472 161.221 348.268H161.122C161.918 346.974 162.711 345.481 163.606 343.988L163.705 343.889L163.804 343.988C161.32 343.092 159.036 342.197 157.148 341.599H157.248C156.428 343.04 155.533 344.435 154.565 345.78C154.565 345.78 154.764 345.382 155.26 344.585C155.658 343.888 156.353 342.794 157.148 341.599V341.5H157.247C159.135 342.197 161.42 342.993 163.903 343.889H164.002L163.903 343.989L163.804 344.088C162.909 345.581 162.016 347.074 161.32 348.368V348.468H161.221C159.234 347.67 157.644 346.975 156.353 346.477C155.874 346.315 155.409 346.115 154.962 345.88C154.863 345.781 154.664 345.781 154.565 345.681C154.665 345.88 154.565 345.78 154.565 345.78Z" fill="#453C87"/>
<path d="M175.229 331.946C175.229 331.946 173.044 336.425 170.361 341.8C167.58 347.274 165.295 351.654 165.295 351.654C165.295 351.654 167.48 347.175 170.163 341.8C172.942 336.325 175.229 331.946 175.229 331.946Z" fill="#453C87"/>
<path d="M176.52 336.126C176.52 336.226 175.328 335.828 173.937 335.328C172.546 334.829 171.354 334.432 171.453 334.333C171.453 334.233 172.646 334.631 174.036 335.131C175.427 335.63 176.52 336.126 176.52 336.126Z" fill="#453C87"/>
<path d="M174.335 337.52C173.988 336.927 173.72 336.291 173.538 335.629C173.24 334.534 173.042 333.638 173.141 333.539C173.24 333.539 173.439 334.435 173.737 335.529C174.035 336.624 174.335 337.422 174.335 337.52Z" fill="#453C87"/>
<path d="M172.845 340.505C172.745 340.505 172.745 340.107 172.845 339.609C172.845 339.112 172.944 338.713 173.043 338.713C173.143 338.713 173.143 339.111 173.043 339.609C173.043 340.107 172.944 340.505 172.845 340.505Z" fill="#453C87"/>
<path d="M174.136 339.61C174.136 339.709 173.64 339.61 173.143 339.709C172.645 339.809 172.149 339.908 172.149 339.809C172.443 339.612 172.789 339.509 173.143 339.51C173.476 339.506 173.81 339.54 174.136 339.61Z" fill="#453C87"/>
<path d="M153.671 326.272C153.671 326.272 154.367 326.57 155.261 327.07C155.824 327.264 156.358 327.533 156.85 327.868C156.273 327.713 155.708 327.514 155.162 327.271C154.619 327.013 154.117 326.676 153.671 326.272Z" fill="#453C87"/>
<path d="M156.651 323.187C156.651 323.187 156.055 324.381 155.26 325.874C154.8 326.777 154.268 327.643 153.671 328.462C153.671 328.462 154.267 327.268 155.062 325.775C155.954 324.282 156.651 323.187 156.651 323.187Z" fill="#453C87"/>
<path d="M154.168 325.874C154.069 325.874 154.069 325.575 153.969 325.177V324.48C154.069 324.48 154.069 324.779 154.168 325.177C154.228 325.406 154.228 325.646 154.168 325.874Z" fill="#453C87"/>
<path d="M155.459 325.078C155.459 325.177 154.962 325.277 154.366 325.376C153.77 325.476 153.273 325.575 153.273 325.476C153.273 325.376 153.77 325.277 154.366 325.177C154.962 325.078 155.459 324.978 155.459 325.078Z" fill="#453C87"/>
<path d="M171.057 345.382C171.057 345.382 172.348 341.102 172.547 341.102C173.343 341.102 172.845 343.389 172.845 343.389C172.845 343.389 175.428 339.607 176.024 340.005C176.322 340.204 175.129 342.494 175.129 342.494C175.129 342.494 176.818 340.901 177.315 341.2C177.811 341.498 175.924 343.688 175.924 343.688C175.924 343.688 177.216 342.693 177.712 342.991C178.01 343.19 172.844 347.868 172.844 347.868L171.057 345.382Z" fill="#F7D3A9"/>
<path d="M171.057 345.382C171.057 345.382 172.348 341.102 172.547 341.102C173.343 341.102 172.845 343.389 172.845 343.389C172.845 343.389 175.428 339.607 176.024 340.005C176.322 340.204 175.129 342.494 175.129 342.494C175.129 342.494 176.818 340.901 177.315 341.2C177.811 341.498 175.924 343.688 175.924 343.688C175.924 343.688 177.216 342.693 177.712 342.991C178.01 343.19 172.844 347.868 172.844 347.868L171.057 345.382Z" fill="#F7D3A9"/>
<path d="M143.935 440.934L144.034 443.92L141.849 444.318L141.749 441.033L143.935 440.934Z" fill="#F7D3A9"/>
<path d="M141.849 444.318C141.849 444.318 150.79 442.725 152.081 443.82C153.373 444.915 141.65 445.91 141.65 445.91L141.849 444.318Z" fill="#3F327A"/>
<path d="M112.743 430.482L110.259 432.174L108.868 430.482L111.65 428.691L112.743 430.482Z" fill="#F7D3A9"/>
<path d="M108.866 430.482C108.866 430.482 114.827 437.25 114.628 439.042C114.33 440.734 107.475 431.179 107.475 431.179L108.866 430.482Z" fill="#3F327A"/>
<path d="M147.412 366.682C147.412 366.682 154.863 373.65 155.06 399.229C155.159 424.909 146.218 441.929 146.218 441.929H139.959C139.959 441.929 150.291 409.68 138.667 388.381C138.667 388.381 134.791 413.264 114.228 432.276L109.263 426.999C109.263 426.999 124.463 407.889 124.562 384.101C124.562 379.423 125.359 376.934 123.765 371.659L147.412 366.682Z" fill="#3F327A"/>
<path d="M150.591 412.567C150.591 412.666 149.299 412.666 147.71 412.865C146.12 413.064 144.928 413.363 144.829 413.263C144.829 413.164 146.021 412.666 147.611 412.465C149.299 412.169 150.591 412.467 150.591 412.567Z" fill="#232049"/>
<path d="M151.386 410.476C151.143 410.704 150.876 410.904 150.589 411.073C149.88 411.451 149.104 411.688 148.305 411.77C147.51 411.843 146.708 411.81 145.921 411.67C145.325 411.471 145.027 411.372 145.027 411.272C145.027 411.173 146.517 411.67 148.305 411.372C149.995 411.173 151.286 410.377 151.386 410.476Z" fill="#232049"/>
<path d="M127.94 407.891C127.94 407.991 126.847 407.493 125.953 406.299C125.059 405.204 124.86 404.011 124.959 404.011C125.059 404.011 125.456 405.006 126.251 406.101C127.145 407.093 128.039 407.79 127.94 407.891Z" fill="#232049"/>
<path d="M127.443 408.486C127.344 408.486 127.344 408.287 127.046 408.088C126.748 407.889 126.351 407.59 125.854 407.29C125.23 406.973 124.632 406.607 124.066 406.195C124.066 406.095 124.96 406.394 125.953 406.993C126.385 407.243 126.786 407.544 127.146 407.89C127.315 408.045 127.421 408.257 127.443 408.486Z" fill="#232049"/>
<path d="M144.432 390.272C143.894 390.317 143.352 390.249 142.842 390.072C141.849 389.774 140.657 389.077 139.266 388.48C137.875 387.783 136.683 387.186 135.789 386.688C134.895 386.191 134.398 385.89 134.398 385.792C134.398 385.792 134.994 385.991 135.888 386.389C136.783 386.787 138.074 387.385 139.365 388.081C140.492 388.709 141.653 389.274 142.842 389.773C143.835 390.172 144.432 390.172 144.432 390.272Z" fill="#232049"/>
<path d="M119.694 341.899L124.066 375.84L151.585 376.238L147.511 350.658C147.511 350.658 161.122 363.597 167.083 358.222C173.043 352.848 173.938 347.573 173.938 347.573L170.659 345.383C170.659 345.383 165.792 354.739 161.32 351.852C156.254 348.568 145.028 335.031 134.497 336.723C127.443 337.619 120.787 333.737 119.694 341.899Z" fill="#FFC359"/>
<path d="M135.888 321.693L138.471 328.262C138.739 328.962 138.723 329.74 138.426 330.429C138.129 331.117 137.574 331.662 136.881 331.945L135.987 332.244L136.384 337.021L129.728 337.618L128.536 324.082L135.888 321.693Z" fill="#F7D3A9"/>
<path d="M132.212 334.135C132.212 334.135 134.795 331.945 134.596 329.954C134.596 329.954 130.821 328.362 131.815 327.267C132.808 326.172 134.994 328.065 134.994 328.065C134.994 328.065 133.503 325.179 133.801 324.383C133.801 324.383 138.669 323.985 137.678 321.098C137.678 321.098 136.188 320.003 133.108 320.103C130.029 320.202 128.737 325.577 128.737 325.577L132.212 334.135Z" fill="#624FB5"/>
<path d="M133.603 320.399C132.146 320.03 130.623 320.009 129.156 320.337C127.689 320.665 126.32 321.334 125.159 322.29C124.014 323.255 123.118 324.483 122.547 325.869C121.977 327.255 121.748 328.759 121.88 330.252C122.079 332.342 122.874 334.532 122.079 336.424C121.62 337.398 120.939 338.25 120.092 338.913C117.809 341.003 115.324 343.093 113.536 345.681C111.747 348.269 110.555 351.454 111.052 354.54C111.243 355.888 111.792 357.16 112.641 358.223C113.156 358.706 113.622 359.239 114.032 359.815C115.423 361.905 114.628 364.792 115.522 367.181C116.615 370.167 120.191 371.56 123.37 371.859C127.742 372.257 132.51 371.361 135.789 368.375C139.067 365.389 140.259 360.014 137.775 356.332C136.583 354.54 134.398 352.948 134.596 350.758C134.696 349.364 135.789 348.369 136.285 347.075C136.849 345.823 136.979 344.418 136.655 343.084C136.331 341.75 135.572 340.562 134.497 339.709C133.7 339.112 132.709 338.714 132.013 338.017C131.317 337.321 130.821 336.226 131.217 335.33C131.515 334.633 132.31 334.235 132.707 333.538C133.203 332.543 132.607 331.25 131.812 330.353C131.017 329.456 130.124 328.562 130.024 327.467C129.997 326.57 130.278 325.692 130.821 324.978C131.618 323.485 132.41 321.892 133.205 320.403" fill="#624FB5"/>
<path d="M290.868 129.196H384.75C384.75 129.196 379.783 103.517 354.946 109.688C354.946 109.688 336.567 57.6321 318.486 109.688C318.486 109.688 303.085 83.9089 290.87 83.71C264.541 83.4109 256.792 129.196 290.868 129.196Z" fill="white" fill-opacity="0.47"/>
<path d="M49.7546 82.4161H138.072C138.072 82.4161 133.403 58.2298 110.056 64.1022C110.056 64.1022 92.7699 15.132 75.782 64.1022C75.782 64.1022 61.2773 39.8164 49.753 39.7169C25.0172 39.4179 17.7648 82.4161 49.7546 82.4161Z" fill="white" fill-opacity="0.45"/>
<path d="M353.853 61.2152H404.321C404.321 61.2152 401.638 47.3813 388.229 50.7642C388.229 50.7642 378.295 22.7954 368.658 50.7642C368.658 50.7642 360.313 36.9304 353.756 36.8298C339.647 36.6308 335.573 61.2152 353.853 61.2152Z" fill="white" fill-opacity="0.2"/>
<path d="M18.3591 125.016H45.2845C45.2845 125.016 43.8931 117.651 36.7401 119.442C36.7401 119.442 31.4745 104.512 26.3087 119.442C26.3087 119.442 21.8382 112.077 18.3612 111.977C10.811 111.878 8.62506 125.016 18.3591 125.016Z" fill="black"/>
<path d="M425.182 18.6157H452.107C452.107 18.6157 450.716 11.2502 443.563 13.0417C443.563 13.0417 438.297 -1.88822 433.132 13.0417C433.132 13.0417 428.661 5.67623 425.184 5.57673C417.634 5.47724 415.448 18.6157 425.182 18.6157Z" fill="black"/>
<path d="M95.5534 24.3885H146.021C146.021 24.3885 143.339 10.5547 129.93 13.9376C129.93 13.9376 119.995 -14.0313 110.359 13.9376C110.359 13.9376 102.013 0.103745 95.4567 0.00318326C81.3472 -0.295841 77.2738 24.3885 95.5534 24.3885Z" fill="white" fill-opacity="0.17"/>
<path d="M37.5373 375.74C27.8011 383.105 12.0054 376.437 3.26285 368.772C1.71048 367.462 0.628657 365.68 0.182624 363.696C-1.80412 354.141 13.1971 351.852 13.5944 343.292C13.793 339.609 11.0112 336.424 8.92515 333.338C4.15452 326.272 2.86348 317.314 3.85659 308.853C4.8497 300.393 8.02923 292.331 11.7048 284.667C14.6852 278.397 20.1489 271.23 26.9046 272.823C31.2759 273.818 34.0577 278.098 35.3487 282.477C37.1368 288.35 36.8389 294.72 35.6466 300.791C35.1501 303.478 34.4544 306.265 35.1501 308.853C37.0375 315.621 46.4758 317.114 49.8534 323.186C53.3303 329.358 49.1582 336.921 45.3828 342.893C42.1045 347.969 40.1172 351.155 42.2038 355.534C42.7709 356.692 43.5849 357.712 44.5883 358.52C46.6749 360.312 50.5486 365.786 37.5373 375.74Z" fill="#58BB85"/>
<path d="M26.4086 399.229C26.3093 399.229 26.21 381.412 26.21 359.515C26.21 337.618 26.3093 319.801 26.4086 319.801C26.5079 319.801 26.6072 337.618 26.6072 359.515C26.6072 381.412 26.5079 399.229 26.4086 399.229Z" fill="#453C87"/>
<path d="M25.1166 370.862C24.9079 370.746 24.7086 370.613 24.5208 370.464C24.1235 370.166 23.5271 369.666 22.8319 369.17C21.4411 368.075 19.5536 366.483 17.3677 364.89C15.1824 363.198 13.2944 361.804 11.8042 360.71C11.2107 360.32 10.6462 359.888 10.1154 359.416C9.9064 359.263 9.70737 359.097 9.51953 358.918C9.7694 359.016 10.0036 359.151 10.2147 359.316C10.6119 359.615 11.208 360.013 12.0028 360.511C13.493 361.506 15.4798 362.9 17.6657 364.592C19.8516 366.284 21.739 367.777 23.0295 368.971C23.7247 369.568 24.2218 370.066 24.619 370.365C25.0163 370.663 25.2165 370.862 25.1166 370.862Z" fill="#453C87"/>
<path d="M37.138 329.059C36.613 329.817 36.0493 330.548 35.4491 331.248C34.3562 332.542 32.9653 334.334 31.2765 336.324C29.687 338.315 28.1963 340.107 27.2032 341.4C26.6484 342.131 26.0513 342.829 25.415 343.49C25.5316 343.281 25.6644 343.081 25.8123 342.893C26.1102 342.495 26.5075 341.997 27.0045 341.301C27.9982 339.907 29.3891 338.116 30.9786 336.125C32.3186 334.395 33.7444 332.734 35.2505 331.148C35.717 330.683 36.1487 330.184 36.5421 329.655L37.138 329.059Z" fill="#453C87"/>
<path d="M464.326 376.933C458.266 381.512 448.53 377.331 443.066 372.653C442.08 371.891 441.409 370.793 441.178 369.567C439.986 363.695 449.226 362.202 449.524 356.927C449.623 354.639 447.934 352.746 446.643 350.755C443.762 346.375 442.868 340.801 443.562 335.626C444.158 330.35 446.146 325.374 448.43 320.596C450.318 316.712 453.596 312.335 457.868 313.231C460.55 313.828 462.339 316.515 463.134 319.203C464.226 322.886 464.028 326.767 463.332 330.55C463.034 332.242 462.536 333.934 463.034 335.526C464.127 339.707 469.989 340.602 472.174 344.385C474.36 348.269 471.777 352.844 469.392 356.627C467.405 359.812 466.114 361.803 467.405 364.49C467.815 365.185 468.316 365.821 468.896 366.381C469.989 367.379 472.373 370.763 464.326 376.933Z" fill="#76CC9B"/>
<path d="M455.782 399.926C455.683 399.926 455.583 382.11 455.583 360.212C455.583 338.315 455.683 320.499 455.782 320.499C455.881 320.499 455.98 338.315 455.98 360.212C455.98 382.11 455.881 399.926 455.782 399.926Z" fill="#453C87"/>
<path d="M447.34 372.554C437.604 379.919 421.808 373.251 413.066 365.587C411.513 364.277 410.431 362.494 409.985 360.511C407.999 350.956 423 348.666 423.397 340.106C423.596 336.424 420.814 333.238 418.728 330.153C413.959 323.086 412.668 314.128 413.661 305.668C414.655 297.208 417.834 289.146 421.51 281.482C424.49 275.211 429.954 268.045 436.709 269.637C441.081 270.633 443.863 274.913 445.154 279.292C446.942 285.165 446.644 291.535 445.451 297.606C444.955 300.293 444.259 303.08 444.955 305.668C446.842 312.436 456.281 313.929 459.658 320.001C463.135 326.173 458.963 333.736 455.088 339.708C451.81 344.784 449.823 347.97 451.909 352.349C452.476 353.507 453.29 354.527 454.294 355.335C456.478 357.226 460.351 362.698 447.34 372.554Z" fill="#58BB85"/>
<path d="M436.211 396.043C436.112 396.043 436.013 378.227 436.013 356.329C436.013 334.432 436.112 316.616 436.211 316.616C436.311 316.616 436.41 334.432 436.41 356.329C436.41 378.326 436.311 396.043 436.211 396.043Z" fill="#453C87"/>
<path d="M436.211 367.776C436.003 367.66 435.803 367.527 435.616 367.378C435.218 367.08 434.622 366.58 433.927 366.084C432.536 364.989 430.648 363.397 428.462 361.804C426.277 360.112 424.389 358.718 422.899 357.624C422.305 357.234 421.741 356.802 421.21 356.33C421.001 356.177 420.802 356.011 420.614 355.833C420.864 355.93 421.099 356.065 421.31 356.231C421.707 356.529 422.303 356.927 423.098 357.425C424.588 358.42 426.575 359.814 428.761 361.506C430.947 363.198 432.834 364.691 434.125 365.885C434.82 366.482 435.317 366.98 435.714 367.279C436.015 367.478 436.211 367.677 436.211 367.776Z" fill="#453C87"/>
<path d="M446.941 325.973C446.416 326.731 445.852 327.462 445.252 328.163C444.159 329.457 442.768 331.249 441.079 333.239C439.49 335.229 437.999 337.021 437.006 338.315C436.451 339.046 435.854 339.743 435.218 340.405C435.334 340.195 435.467 339.996 435.615 339.808C435.913 339.41 436.311 338.912 436.807 338.215C437.801 336.822 439.192 335.03 440.781 333.04C442.121 331.31 443.547 329.649 445.053 328.063C445.52 327.598 445.951 327.099 446.345 326.57L446.941 325.973Z" fill="#453C87"/>
<path d="M58.0999 270.334C67.9212 270.334 75.8829 262.357 75.8829 252.518C75.8829 242.678 67.9212 234.701 58.0999 234.701C48.2786 234.701 40.3169 242.678 40.3169 252.518C40.3169 262.357 48.2786 270.334 58.0999 270.334Z" fill="#FFD052"/>
<path d="M65.4517 267.646L74.0949 270.334L73.3992 261.376L65.4517 267.646Z" fill="#FFD052"/>
<path d="M57.0178 254.961H53.3323V251.186H57.0178V254.961ZM57.0178 237.148L56.0784 248.62H54.2537L53.3323 237.148L53.3323 228.404H57.0178L57.0178 237.148Z" fill="#F5F1EB"/>
<path d="M407.401 89.6816C407.401 89.6816 407.997 89.4826 409.289 89.0846C410.68 88.6866 412.666 88.0891 414.951 87.3926C419.819 85.9991 426.774 84.0086 435.019 81.7191L435.416 81.6196L435.516 82.0176C436.807 86.8946 438.297 92.2696 439.788 97.8435C439.887 97.744 439.192 98.9385 439.49 98.4405H439.291L439.092 98.54L438.596 98.6395L437.602 98.938C436.953 99.1505 436.289 99.3167 435.616 99.4355C434.324 99.8335 433.032 100.132 431.739 100.431C429.255 101.127 426.772 101.725 424.387 102.421C419.718 103.616 415.446 104.81 411.671 105.805L411.373 105.905L411.273 105.606C410.081 100.729 409.088 96.748 408.293 93.8615C407.995 92.5675 407.697 91.5736 407.496 90.6765C407.397 89.9801 407.397 89.5815 407.397 89.681C407.568 90.0652 407.701 90.4653 407.794 90.8755C408.092 91.6736 408.39 92.7665 408.788 94.0605C409.584 96.947 410.675 100.829 412.066 105.507L411.669 105.308C415.444 104.312 419.716 103.118 424.385 101.824C426.769 101.228 429.153 100.53 431.737 99.834C433.028 99.5355 434.32 99.1375 435.613 98.8385C436.263 98.626 436.927 98.4598 437.6 98.341L438.594 98.0425L439.09 97.943L439.289 97.8435H439.488C439.785 97.3461 439.09 98.54 439.19 98.4405C437.699 92.8665 436.209 87.4921 434.918 82.6146L435.414 82.9131C427.367 85.1026 420.413 86.7972 415.545 88.0885C413.161 88.6855 411.174 89.1836 409.783 89.5815C408.988 89.505 408.187 89.5387 407.401 89.6816Z" fill="black"/>
<path d="M435.221 82.1151C435.32 82.2146 434.128 83.7076 432.141 86.0966C430.153 88.4856 427.372 91.7701 424.193 95.3547C423.2 95.6532 423.895 95.4542 423.697 95.4542H423.2L422.803 95.3547L422.006 95.0562C421.47 94.8736 420.94 94.6745 420.417 94.4592C419.324 94.0612 418.331 93.7627 417.336 93.3642C415.449 92.6677 413.76 92.0702 412.171 91.5727C409.19 90.4777 407.402 89.7812 407.501 89.6817C407.501 89.5822 409.389 90.0797 412.369 90.9757C413.959 91.4732 415.747 92.0707 417.634 92.6677C418.628 92.9662 419.621 93.3642 420.715 93.6632C421.229 93.8741 421.761 94.0405 422.304 94.1607L423.101 94.4592L423.498 94.5587L423.697 94.6582H423.895C423.697 94.7577 424.392 94.5587 423.399 94.7577C426.578 91.1747 429.459 87.9892 431.545 85.6007C433.728 83.4113 435.119 82.0178 435.221 82.1151Z" fill="black"/>
<path d="M438.795 82.1187C438.952 82.7092 438.931 83.3332 438.734 83.9117C438.537 84.4903 438.174 84.9973 437.689 85.3689C437.205 85.7404 436.621 85.9596 436.013 85.9989C435.404 86.0382 434.797 85.8957 434.269 85.5896C433.741 85.2834 433.316 84.8272 433.046 84.2788C432.777 83.7303 432.676 83.1142 432.757 82.5083C432.837 81.9025 433.095 81.334 433.497 80.875C433.9 80.4159 434.43 80.0868 435.019 79.9292C435.809 79.732 436.644 79.8501 437.349 80.2587C438.053 80.6673 438.572 81.3342 438.795 82.1187Z" fill="#F19E36"/>
<path d="M31.773 168.312C31.773 168.312 32.4682 168.412 33.6604 168.71C35.0513 169.108 36.9387 169.509 39.2239 170.104C43.9924 171.298 50.8475 173.09 58.7951 175.18L59.1923 175.279L59.093 175.677C57.8014 180.455 56.4105 185.631 55.0197 191.107C55.119 191.008 54.026 191.704 54.4238 191.406H54.2278L54.0292 191.306L53.5326 191.207L52.539 190.908C51.9431 190.709 51.2474 190.61 50.6516 190.411C49.36 190.113 48.1677 189.715 46.976 189.415C44.4922 188.719 42.2075 188.122 39.9223 187.525C35.4517 186.231 31.2791 185.136 27.6014 184.141L27.3035 184.041L27.4028 183.743C28.6943 179.065 29.7873 175.283 30.6811 172.495C31.0783 171.301 31.3764 170.305 31.5754 169.509C31.6065 169.106 31.6729 168.706 31.774 168.315C31.6865 168.709 31.6202 169.108 31.5754 169.509C31.3768 170.307 31.0789 171.4 30.7788 172.595C30.0836 175.382 29.09 179.164 27.997 183.743L27.7984 183.345C31.9004 184.459 36.0074 185.553 40.1193 186.63C42.4029 187.227 44.7885 187.924 47.173 188.521C48.3653 188.819 49.6569 189.217 50.8486 189.516C51.4445 189.715 52.1402 189.815 52.736 190.014L53.7297 190.312L54.2262 190.412L54.4249 190.511H54.6235C55.12 190.213 53.9283 190.909 54.1269 190.81C55.6171 185.335 57.008 180.16 58.2996 175.482L58.5975 175.979C50.8486 173.79 44.1921 171.898 39.4257 170.605C37.1421 169.909 35.2531 169.411 33.8622 169.013C32.568 168.611 31.8723 168.312 31.773 168.312Z" fill="black"/>
<path d="M58.6958 175.578C58.6958 175.678 57.007 176.377 54.1259 177.469C51.2448 178.465 47.3701 179.858 42.8996 181.353C41.9059 181.055 42.6016 181.254 42.403 181.254L42.3037 181.155L42.2044 180.956L41.9064 180.657L41.3106 180.06C40.922 179.65 40.5571 179.218 40.2176 178.766L38.1316 176.377C36.84 174.884 35.7471 173.491 34.6546 172.296C32.6679 170.008 31.5744 168.514 31.6743 168.412C31.7741 168.31 33.0651 169.706 35.1512 171.895C36.2441 173.09 37.4348 174.384 38.7274 175.877C39.4226 176.675 40.1183 177.37 40.8135 178.266C41.202 178.676 41.5669 179.108 41.9064 179.56L42.5023 180.157L42.8002 180.455L42.8996 180.654L42.9989 180.754C42.8002 180.654 43.4954 180.853 42.5023 180.654C46.8736 179.161 50.8476 177.867 53.7287 176.972C56.9071 175.976 58.6958 175.479 58.6958 175.578Z" fill="black"/>
<path d="M453.1 201.657C452.945 199.713 452.646 197.783 452.206 195.884C451.65 193.664 450.744 191.547 449.523 189.613C447.95 187.02 445.893 184.756 443.463 182.945C440.531 180.741 437.131 179.242 433.528 178.565C429.366 177.8 425.075 178.178 421.11 179.66C418.969 180.403 416.958 181.477 415.149 182.845C413.239 184.228 411.563 185.908 410.182 187.822C407.214 191.859 405.612 196.742 405.612 201.756C405.612 206.771 407.214 211.654 410.182 215.691C410.889 216.664 411.651 217.594 412.466 218.478C413.314 219.293 414.21 220.057 415.148 220.766C416.957 222.134 418.968 223.208 421.109 223.951C425.085 225.384 429.363 225.761 433.527 225.046C437.13 224.369 440.53 222.87 443.462 220.666C445.892 218.855 447.949 216.591 449.522 213.998C450.702 212.042 451.605 209.932 452.205 207.727C452.696 205.737 452.995 203.704 453.099 201.656V203.15C453.117 203.786 453.05 204.422 452.9 205.04C452.812 205.884 452.646 206.717 452.404 207.529C451.893 209.81 451.021 211.994 449.821 213.998C448.257 216.655 446.2 218.986 443.762 220.867C440.804 223.194 437.326 224.765 433.628 225.446C429.376 226.247 424.988 225.903 420.912 224.45C418.695 223.696 416.615 222.587 414.752 221.166C413.781 220.458 412.852 219.694 411.97 218.878C411.123 217.995 410.326 217.065 409.585 216.091C406.544 211.928 404.877 206.917 404.817 201.758C404.783 196.584 406.46 191.544 409.585 187.425C410.326 186.451 411.123 185.521 411.97 184.638C412.827 183.793 413.758 183.028 414.752 182.35C416.615 180.929 418.695 179.82 420.912 179.066C424.988 177.613 429.376 177.269 433.628 178.07C437.326 178.751 440.804 180.322 443.762 182.649C446.178 184.553 448.231 186.88 449.822 189.517C451.022 191.521 451.895 193.705 452.405 195.986C452.647 196.799 452.813 197.632 452.901 198.475C453.007 199.1 453.073 199.732 453.1 200.366V201.66V201.657Z" fill="black"/>
<path d="M454.889 201.656C454.873 201.52 454.84 201.386 454.789 201.258C454.789 200.96 454.69 200.562 454.69 200.064C454.659 199.397 454.592 198.733 454.491 198.073C454.415 197.155 454.215 196.251 453.896 195.386C453.274 193 452.303 190.719 451.014 188.617C449.341 185.836 447.148 183.403 444.557 181.451C441.446 179.05 437.797 177.444 433.927 176.773C429.471 175.956 424.878 176.334 420.615 177.868C418.328 178.691 416.183 179.866 414.257 181.351C413.248 182.123 412.286 182.954 411.376 183.84C410.443 184.743 409.61 185.744 408.892 186.826C405.728 191.159 404.023 196.388 404.024 201.756C404.041 204.461 404.477 207.147 405.316 209.718C406.124 212.219 407.332 214.572 408.892 216.686C409.635 217.749 410.466 218.747 411.376 219.672C412.29 220.554 413.251 221.385 414.257 222.16C416.196 223.625 418.337 224.799 420.615 225.644C424.878 227.177 429.471 227.555 433.927 226.739C437.79 226.044 441.433 224.44 444.557 222.061C447.126 220.084 449.314 217.656 451.014 214.894C452.303 212.793 453.274 210.512 453.896 208.126C454.193 207.13 454.293 206.235 454.491 205.438C454.646 204.787 454.713 204.117 454.69 203.448C454.69 202.95 454.789 202.552 454.789 202.253C454.789 201.756 454.789 201.656 454.889 201.656V203.249C454.908 203.918 454.841 204.587 454.69 205.239C454.603 206.148 454.437 207.047 454.193 207.927C453.658 210.357 452.718 212.679 451.412 214.795C449.739 217.664 447.509 220.168 444.855 222.16C441.429 224.802 437.393 226.533 433.12 227.194C428.848 227.856 424.478 227.425 420.416 225.943C418.067 225.122 415.856 223.947 413.86 222.459C412.799 221.714 411.802 220.882 410.879 219.971C409.966 219.022 409.104 218.025 408.296 216.985C406.684 214.816 405.442 212.394 404.62 209.818C403.741 207.188 403.304 204.43 403.328 201.656C403.335 198.249 404.014 194.877 405.326 191.734C406.639 188.591 408.558 185.739 410.975 183.342C411.898 182.431 412.895 181.599 413.956 180.854C415.964 179.386 418.172 178.213 420.512 177.371C424.879 175.836 429.567 175.459 434.123 176.275C438.061 177.037 441.768 178.707 444.951 181.152C447.557 183.196 449.778 185.691 451.508 188.518C452.814 190.634 453.755 192.956 454.29 195.386C454.533 196.265 454.7 197.165 454.786 198.073C454.887 198.733 454.953 199.397 454.985 200.064V201.258C454.925 201.383 454.893 201.518 454.889 201.656Z" fill="black"/>
<path d="M429.257 182.645C429.058 182.645 428.959 181.55 428.959 180.157C428.959 178.763 429.158 177.668 429.257 177.668C429.456 177.668 429.555 178.763 429.555 180.157C429.555 181.55 429.456 182.645 429.257 182.645Z" fill="black"/>
<path d="M416.044 188.02C415.945 188.12 415.051 187.423 414.157 186.328C413.263 185.233 412.667 184.338 412.865 184.238C412.965 184.139 413.859 184.835 414.753 185.93C415.547 186.925 416.144 187.921 416.044 188.02Z" fill="black"/>
<path d="M446.047 218.179C445.948 218.279 445.054 217.582 444.16 216.487C443.266 215.392 442.67 214.497 442.868 214.397C442.968 214.298 443.862 214.994 444.756 216.089C445.65 217.084 446.246 217.98 446.047 218.179Z" fill="black"/>
<path d="M448.133 201.656C448.133 201.457 449.226 201.358 450.617 201.358C452.008 201.358 453.1 201.557 453.1 201.656C453.1 201.855 452.008 201.955 450.617 201.955C449.226 201.955 448.133 201.756 448.133 201.656Z" fill="black"/>
<path d="M405.215 201.656C405.215 201.457 406.308 201.358 407.699 201.358C409.09 201.358 410.183 201.557 410.183 201.656C410.183 201.855 409.09 201.955 407.699 201.955C406.308 201.955 405.215 201.756 405.215 201.656Z" fill="black"/>
<path d="M429.257 225.544C429.058 225.544 428.959 224.449 428.959 223.056C428.959 221.662 429.158 220.567 429.257 220.567C429.456 220.567 429.555 221.662 429.555 223.056C429.555 224.449 429.456 225.544 429.257 225.544Z" fill="black"/>
<path d="M414.752 213.8C414.852 213.899 414.156 214.795 413.063 215.691C411.971 216.586 411.077 217.184 410.977 216.985C410.878 216.885 411.573 215.989 412.666 215.094C413.659 214.198 414.653 213.6 414.752 213.8Z" fill="black"/>
<path d="M446.444 184.538C446.544 184.637 445.849 185.533 444.756 186.429C443.663 187.324 442.769 187.922 442.67 187.723C442.57 187.623 443.265 186.727 444.358 185.832C445.352 184.936 446.246 184.338 446.444 184.538Z" fill="black"/>
<path d="M438.595 205.538C438.595 205.637 437.502 205.737 435.515 205.737C433.628 205.836 430.945 205.836 427.868 205.836H427.568V202.353C427.568 198.469 427.568 194.987 427.667 192.499C427.767 190.01 427.767 188.418 427.866 188.418C427.965 188.418 428.065 190.01 428.065 192.499C428.164 194.987 428.164 198.471 428.164 202.353V205.538L427.866 205.239C430.946 205.239 433.628 205.339 435.514 205.339C437.404 205.438 438.595 205.538 438.595 205.538Z" fill="black"/>
<path d="M140.557 104.512C140.557 104.611 139.961 104.512 138.968 104.91C138.28 105.163 137.662 105.574 137.161 106.11C136.661 106.646 136.293 107.292 136.087 107.996C135.789 108.892 135.888 109.986 135.888 111.082V114.864C135.869 115.53 135.902 116.195 135.987 116.855C136.182 117.932 136.744 118.909 137.578 119.617C138.411 120.326 139.464 120.722 140.557 120.739H140.855V124.92L140.358 124.721C141.849 123.427 143.339 122.133 144.928 120.836L145.028 120.737H155.26C155.896 120.775 156.534 120.708 157.148 120.538C157.743 120.367 158.296 120.076 158.775 119.682C159.253 119.289 159.646 118.801 159.93 118.25C160.199 117.722 160.367 117.148 160.426 116.558V110.982C160.426 109.787 160.525 108.593 160.128 107.598C159.718 106.648 159.024 105.849 158.141 105.31C157.248 104.866 156.256 104.66 155.26 104.713H152.379C148.803 104.713 145.922 104.614 143.835 104.614C143.073 104.64 142.309 104.606 141.552 104.514H140.558C140.826 104.505 141.093 104.471 141.355 104.415C142.117 104.425 142.88 104.392 143.638 104.315C145.724 104.315 148.605 104.216 152.182 104.216H155.06C156.122 104.123 157.189 104.329 158.14 104.813C159.162 105.357 159.968 106.235 160.423 107.301C160.65 107.873 160.784 108.478 160.821 109.093V116.458C160.809 117.151 160.639 117.832 160.324 118.448C159.683 119.71 158.579 120.673 157.244 121.136C156.561 121.301 155.859 121.368 155.158 121.335H145.028L145.226 121.235C143.637 122.529 142.146 123.923 140.656 125.12L140.16 125.518V124.916C140.16 123.523 140.16 122.229 140.259 121.032L140.557 121.331C139.722 121.35 138.897 121.148 138.165 120.746C137.433 120.345 136.819 119.757 136.384 119.043C135.991 118.402 135.721 117.693 135.588 116.953C135.538 116.257 135.538 115.559 135.588 114.863V111.08C135.588 109.886 135.489 108.792 135.886 107.895C136.144 107.16 136.563 106.492 137.113 105.94C137.664 105.389 138.331 104.969 139.065 104.71C139.524 104.472 140.052 104.401 140.557 104.512Z" fill="black"/>
</g>
<defs>
<clipPath id="clip0_172_3878">
<rect width="473" height="448" fill="white"/>
</clipPath>
</defs>
</svg>
